<?xml version="1.0" encoding="utf-8"?>
<!-- Generator: Adobe Illustrator 22.1.0, SVG Export Plug-In . SVG Version: 6.00 Build 0)  -->
<svg version="1.1" id="Слой_1" xmlns="http://www.w3.org/2000/svg" xmlns:xlink="http://www.w3.org/1999/xlink" x="0px" y="0px"
	 viewBox="0 0 34 66" style="enable-background:new 0 0 34 66;" xml:space="preserve">
<style type="text/css">
	.st0{fill:#FFFFFF;stroke:#FFFFFF;stroke-miterlimit:10;}
</style>
<path class="st0" d="M25.3,18.2c0.7-0.8,0.7-2,0-2.7L11.4,1.6C11.1,1.2,10.6,1,10.1,1s-1,0.2-1.3,0.5L8.6,1.7
	c-0.7,0.7-0.7,1.9,0,2.6l8.9,8.9c0.9,0.9,1.4,2.1,1.5,3.4c0,0,0,0,0,0.1c0,1.3-0.5,2.5-1.5,3.5l-8.9,8.9c-0.7,0.7-0.7,1.9,0,2.6
	l0.2,0.2c0.3,0.3,0.8,0.5,1.3,0.5s1-0.2,1.3-0.5L25.3,18.2z"/>
<path class="st0" d="M7.8,48.5c-0.7,0.8-0.7,2,0,2.7l14,13.8c0.3,0.3,0.8,0.5,1.3,0.5c0.5,0,1-0.2,1.3-0.5l0.2-0.2
	c0.7-0.7,0.7-1.9,0-2.6l-8.9-8.9c-0.9-0.9-1.4-2.1-1.5-3.4c0,0,0,0,0-0.1c0-1.3,0.5-2.5,1.5-3.5l8.9-8.9c0.7-0.7,0.7-1.9,0-2.6
	l-0.2-0.2c-0.3-0.3-0.8-0.5-1.3-0.5c-0.5,0-1,0.2-1.3,0.5L7.8,48.5z"/>
</svg>
