<?xml version="1.0" encoding="utf-8"?>
<!-- Generator: Adobe Illustrator 22.1.0, SVG Export Plug-In . SVG Version: 6.00 Build 0)  -->
<svg version="1.1" id="Слой_1" xmlns="http://www.w3.org/2000/svg" xmlns:xlink="http://www.w3.org/1999/xlink" x="0px" y="0px"
	 viewBox="0 0 34 62" style="enable-background:new 0 0 34 62;" xml:space="preserve">
<style type="text/css">
	.st0{fill:#FFFFFF;stroke:#FFFFFF;stroke-width:0.5;stroke-miterlimit:10;}
	.st1{fill:#FFFFFF;stroke:#FFFFFF;stroke-width:0.5;stroke-miterlimit:10;}
</style>
<path class="st0" d="M32.9,46.3c-0.3-4.3-2.2-8.1-5.4-10.9c-3.2-2.8-7.3-4.2-11.5-3.9c-4.3,0.2-8.1,2.2-10.9,5.4S1,44.2,1.2,48.4
	c0.1,2.2,0.7,4.3,1.7,6.2c0.7,1.5,1.7,2.8,2.9,4l-1.3,1.6c-0.2,0.3-0.2,0.7-0.1,1c0.2,0.4,0.5,0.6,0.9,0.6l6-0.8
	c0.2-0.2,0.3-0.3,0.4-0.4l-1-6c-0.2-0.4-0.5-0.6-0.9-0.6c-0.4,0-0.7,0.2-0.9,0.5l-1.2,1.3c-1.9-2.1-3-4.7-3.2-7.6
	c-0.4-6.9,4.8-12.9,11.7-13.4c7-0.5,12.9,4.8,13.4,11.7c0.3,4.7-2,9.2-6,11.6c-0.8,0.5-1,1.5-0.6,2.3c0.3,0.5,0.8,0.8,1.4,0.8h0.1
	c0.3-0.1,0.6-0.1,0.8-0.2C30.4,57.9,33.3,52.3,32.9,46.3z"/>
<path class="st1" d="M1.3,15.7c0.3-4.3,2.2-8.1,5.4-10.9S14,0.6,18.2,0.9c4.3,0.2,8.1,2.2,10.9,5.4c2.8,3.2,4.1,7.3,3.9,11.5
	c-0.1,2.2-0.7,4.3-1.7,6.2c-0.7,1.5-1.7,2.8-2.9,4l1.4,1.6c0.2,0.3,0.2,0.7,0.1,1c-0.2,0.4-0.5,0.6-0.9,0.6l-6-0.8
	c-0.2-0.2-0.3-0.3-0.4-0.4l1-6c0.2-0.4,0.5-0.6,0.9-0.6s0.7,0.2,0.9,0.5l1.2,1.3c1.9-2.1,3-4.7,3.2-7.6C30.2,10.7,25,4.7,18.1,4.2
	C11.1,3.7,5.2,9,4.7,15.9c-0.3,4.7,2,9.2,6,11.6c0.8,0.5,1,1.5,0.6,2.3c-0.3,0.5-0.8,0.8-1.4,0.8H9.8c-0.3-0.1-0.6-0.1-0.8-0.2
	C3.8,27.2,0.9,21.6,1.3,15.7z"/>
</svg>
