<?xml version="1.0" encoding="utf-8"?>
<!-- Generator: Adobe Illustrator 22.1.0, SVG Export Plug-In . SVG Version: 6.00 Build 0)  -->
<svg version="1.1" id="Слой_1" xmlns="http://www.w3.org/2000/svg" xmlns:xlink="http://www.w3.org/1999/xlink" x="0px" y="0px"
	 viewBox="0 0 34 111" style="enable-background:new 0 0 34 111;" xml:space="preserve">
<style type="text/css">
	.st0{fill:#FFFFFF;stroke:#FFFFFF;stroke-miterlimit:10;}
	.st1{fill:#FFFFFF;stroke:#FFFFFF;stroke-miterlimit:10;}
</style>
<path class="st0" d="M7.6,15.5c-0.7,0.8-0.7,2,0,2.7l13.9,13.9c0.3,0.3,0.8,0.5,1.3,0.5s1-0.2,1.3-0.5l0.2-0.2
	c0.7-0.7,0.7-1.9,0-2.6l-8.9-8.9c-0.9-0.9-1.4-2.1-1.5-3.4c0,0,0,0,0-0.1c0-1.3,0.5-2.5,1.5-3.5l8.9-8.9c0.7-0.7,0.7-1.9,0-2.6
	l-0.2-0.2C23.7,1.2,23.3,1,22.8,1s-1,0.2-1.3,0.5L7.6,15.5z"/>
<path class="st1" d="M7.6,71.9c-0.7,0.8-0.7,2,0,2.7l13.9,13.9c0.3,0.3,0.8,0.5,1.3,0.5s1-0.2,1.3-0.5l0.2-0.2
	c0.7-0.7,0.7-1.9,0-2.6l-8.9-8.9c-0.9-0.9-1.4-2.1-1.5-3.4c0,0,0,0,0-0.1c0-1.3,0.5-2.5,1.5-3.5l8.9-8.9c0.7-0.7,0.7-1.9,0-2.6
	L24.1,58c-0.3-0.3-0.8-0.5-1.3-0.5s-1,0.2-1.3,0.5L7.6,71.9z"/>
<path class="st1" d="M18.3,36.7c-0.8-0.7-2-0.7-2.7,0L1.7,50.6c-0.3,0.3-0.5,0.8-0.5,1.3s0.2,1,0.5,1.3l0.2,0.2
	c0.7,0.7,1.9,0.7,2.6,0l8.9-8.9c0.9-0.9,2.1-1.4,3.4-1.5c0,0,0,0,0.1,0c1.3,0,2.5,0.5,3.5,1.5l8.9,8.9c0.7,0.7,1.9,0.7,2.6,0
	l0.2-0.2c0.3-0.3,0.5-0.8,0.5-1.3s-0.2-1-0.5-1.3L18.3,36.7z"/>
<path class="st1" d="M15.6,109.8c0.8,0.7,2,0.7,2.7,0l14-13.8c0.3-0.3,0.5-0.8,0.5-1.3s-0.2-1-0.5-1.3l-0.2-0.2
	c-0.7-0.7-1.9-0.7-2.6,0l-8.9,8.9c-0.9,0.9-2.1,1.4-3.4,1.5c0,0,0,0-0.1,0c-1.3,0-2.5-0.5-3.5-1.5l-8.9-8.9c-0.7-0.7-1.9-0.7-2.6,0
	l-0.2,0.2c-0.3,0.3-0.5,0.8-0.5,1.3s0.2,1,0.5,1.3L15.6,109.8z"/>
</svg>
