<?xml version="1.0" encoding="utf-8"?>
<!-- Generator: Adobe Illustrator 22.1.0, SVG Export Plug-In . SVG Version: 6.00 Build 0)  -->
<svg version="1.1" id="Слой_1" xmlns="http://www.w3.org/2000/svg" xmlns:xlink="http://www.w3.org/1999/xlink" x="0px" y="0px"
	 viewBox="0 0 51 26" style="enable-background:new 0 0 51 26;" xml:space="preserve">
<style type="text/css">
	.st0{fill:#FFFFFF;stroke:#FFFFFF;stroke-miterlimit:10;}
</style>
<path class="st0" d="M22.4,24.8c1.1,0,1.9-0.9,1.9-1.9V3.2c0-0.5-0.2-0.9-0.6-1.3s-0.8-0.6-1.3-0.6h-0.3c-1,0-1.9,0.9-1.9,1.9v12.6
	c0,1.3-0.5,2.5-1.4,3.4l0,0c-0.9,0.9-2.2,1.4-3.5,1.4H2.7c-1,0-1.9,0.9-1.9,1.9v0.3c0,0.5,0.2,1,0.6,1.3c0.4,0.4,0.8,0.6,1.3,0.6
	L22.4,24.8z"/>
<path class="st0" d="M26.8,22.9c0,1.1,0.9,1.9,1.9,1.9h19.7c0.5,0,0.9-0.2,1.3-0.6c0.4-0.4,0.6-0.8,0.6-1.3v-0.3
	c0-1-0.9-1.9-1.9-1.9H35.8c-1.3,0-2.5-0.5-3.4-1.4l0,0c-0.9-0.9-1.4-2.2-1.4-3.5V3.2c0-1-0.9-1.9-1.9-1.9h-0.3c-0.5,0-1,0.2-1.3,0.6
	c-0.4,0.4-0.6,0.8-0.6,1.3L26.8,22.9z"/>
</svg>
