<?xml version="1.0" encoding="utf-8"?>
<!-- Generator: Adobe Illustrator 22.1.0, SVG Export Plug-In . SVG Version: 6.00 Build 0)  -->
<svg version="1.1" id="Слой_1" xmlns="http://www.w3.org/2000/svg" xmlns:xlink="http://www.w3.org/1999/xlink" x="0px" y="0px"
	 viewBox="0 0 38 27" style="enable-background:new 0 0 38 27;" xml:space="preserve">
<style type="text/css">
	.st0{fill:#FFFFFF;stroke:#FFFFFF;stroke-miterlimit:10;}
</style>
<path class="st0" d="M37.1,23.1v0.3c0,0.5-0.2,0.9-0.6,1.3c-0.4,0.4-0.8,0.6-1.3,0.6H21.7c-1,0-1.9-0.8-1.9-1.9l0-3.1l0.1-16.6
	c0-0.5,0.2-0.9,0.6-1.3c0.3-0.4,0.8-0.6,1.3-0.6h0.3c1,0,1.9,0.9,1.9,1.9v12.6c0,1.3,0.5,2.6,1.4,3.5c0.9,0.9,2.1,1.4,3.4,1.4h6.4
	C36.2,21.2,37.1,22.1,37.1,23.1z"/>
<path class="st0" d="M0.8,23.3v0.3c0,0.5,0.2,0.9,0.6,1.3c0.4,0.4,0.8,0.6,1.3,0.6h13.5c1,0,1.9-0.8,1.9-1.9l0-3.1L18,3.9
	c0-0.5-0.2-0.9-0.6-1.3C17.1,2.2,16.6,2,16.1,2h-0.3c-1,0-1.9,0.9-1.9,1.9v12.6c0,1.3-0.5,2.6-1.4,3.5c-0.9,0.9-2.1,1.4-3.4,1.4H2.7
	C1.7,21.4,0.8,22.3,0.8,23.3z"/>
</svg>
