<?xml version="1.0" encoding="utf-8"?>
<!-- Generator: Adobe Illustrator 22.1.0, SVG Export Plug-In . SVG Version: 6.00 Build 0)  -->
<svg version="1.1" id="Слой_1" xmlns="http://www.w3.org/2000/svg" xmlns:xlink="http://www.w3.org/1999/xlink" x="0px" y="0px"
	 viewBox="0 0 34 74" style="enable-background:new 0 0 34 74;" xml:space="preserve">
<style type="text/css">
	.st0{fill:#FFFFFF;stroke:#FFFFFF;stroke-miterlimit:10;}
</style>
<path class="st0" d="M25.3,17.7c0.7-0.8,0.7-2,0-2.7L11.4,1c-0.3-0.3-0.8-0.5-1.3-0.5S9.1,0.7,8.8,1L8.6,1.2c-0.7,0.7-0.7,1.9,0,2.6
	l8.9,8.9c0.9,0.9,1.4,2.1,1.5,3.4c0,0,0,0,0,0.1c0,1.3-0.5,2.5-1.5,3.5l-8.9,8.9c-0.7,0.7-0.7,1.9,0,2.6l0.2,0.2
	c0.3,0.3,0.8,0.5,1.3,0.5s1-0.2,1.3-0.5L25.3,17.7z"/>
<path class="st0" d="M25.3,45.1c0.7-0.8,0.7-2,0-2.7L11.5,28.5c-0.3-0.3-0.8-0.5-1.3-0.5s-1,0.2-1.3,0.5l-0.2,0.2
	c-0.7,0.7-0.7,1.9,0,2.6l8.9,8.9c0.9,0.9,1.4,2.1,1.5,3.4c0,0,0,0,0,0.1c0,1.3-0.5,2.5-1.5,3.5l-8.9,8.9C8,56.8,8,58,8.7,58.7
	l0.2,0.2c0.3,0.3,0.8,0.5,1.3,0.5s1-0.2,1.3-0.5L25.3,45.1z"/>
<path class="st0" d="M8.6,56.1c-0.7,0.8-0.7,2,0,2.7l13.9,13.9c0.3,0.3,0.8,0.5,1.3,0.5s1-0.2,1.3-0.5l0.2-0.2
	c0.7-0.7,0.7-1.9,0-2.6L16.4,61c-0.9-0.9-1.4-2.1-1.5-3.4c0,0,0,0,0-0.1c0-1.3,0.5-2.5,1.5-3.5l8.9-8.9c0.7-0.7,0.7-1.9,0-2.6
	l-0.2-0.2c-0.3-0.3-0.8-0.5-1.3-0.5s-1,0.2-1.3,0.5L8.6,56.1z"/>
</svg>
