<?xml version="1.0" encoding="utf-8"?>
<!-- Generator: Adobe Illustrator 22.1.0, SVG Export Plug-In . SVG Version: 6.00 Build 0)  -->
<svg version="1.1" id="Слой_1" xmlns="http://www.w3.org/2000/svg" xmlns:xlink="http://www.w3.org/1999/xlink" x="0px" y="0px"
	 viewBox="0 0 38 36" style="enable-background:new 0 0 38 36;" xml:space="preserve">
<style type="text/css">
	.st0{fill:#FFFFFF;stroke:#FFFFFF;stroke-miterlimit:10;}
	.st1{fill:#FFFFFF;stroke:#FFFFFF;stroke-miterlimit:10;}
</style>
<path class="st0" d="M37.1,22.1v0.3c0,0.5-0.2,0.9-0.6,1.3c-0.4,0.4-0.8,0.6-1.3,0.6H21.7c-1,0-1.9-0.8-1.9-1.9l0-3.1l0.1-16.6
	c0-0.5,0.2-0.9,0.6-1.3c0.3-0.4,0.8-0.6,1.3-0.6h0.3c1,0,1.9,0.9,1.9,1.9v12.6c0,1.3,0.5,2.6,1.4,3.5c0.9,0.9,2.1,1.4,3.4,1.4h6.4
	C36.2,20.2,37.1,21.1,37.1,22.1z"/>
<circle class="st1" cx="18.6" cy="31.6" r="3.4"/>
<path class="st0" d="M0.8,22.3v0.3c0,0.5,0.2,0.9,0.6,1.3c0.4,0.4,0.8,0.6,1.3,0.6h13.5c1,0,1.9-0.8,1.9-1.9l0-3.1L18,2.9
	c0-0.5-0.2-0.9-0.6-1.3C17.1,1.2,16.6,1,16.1,1h-0.3c-1,0-1.9,0.9-1.9,1.9v12.6c0,1.3-0.5,2.6-1.4,3.5c-0.9,0.9-2.1,1.4-3.4,1.4H2.7
	C1.7,20.4,0.8,21.3,0.8,22.3z"/>
</svg>
