<?xml version="1.0" encoding="utf-8"?>
<!-- Generator: Adobe Illustrator 22.1.0, SVG Export Plug-In . SVG Version: 6.00 Build 0)  -->
<svg version="1.1" id="Слой_1" xmlns="http://www.w3.org/2000/svg" xmlns:xlink="http://www.w3.org/1999/xlink" x="0px" y="0px"
	 viewBox="0 0 34 34" style="enable-background:new 0 0 34 34;" xml:space="preserve">
<style type="text/css">
	.st0{fill:#FFFFFF;stroke:#FFFFFF;stroke-miterlimit:10;}
</style>
<path class="st0" d="M20.9,18.3c0.7-0.8,0.7-2,0-2.7L7,1.7C6.7,1.3,6.2,1.1,5.7,1.1s-1,0.2-1.3,0.5L4.2,1.9c-0.7,0.7-0.7,1.9,0,2.6
	l8.9,8.9c0.9,0.9,1.4,2.1,1.5,3.4c0,0,0,0,0,0.1c0,1.3-0.5,2.5-1.5,3.5l-8.9,8.9c-0.7,0.7-0.7,1.9,0,2.6l0.2,0.2
	c0.3,0.3,0.8,0.5,1.3,0.5s1-0.2,1.3-0.5L20.9,18.3z"/>
<path class="st0" d="M13.8,15.6c-0.7,0.8-0.7,2,0,2.7l13.9,13.9c0.3,0.3,0.8,0.5,1.3,0.5s1-0.2,1.3-0.5l0.2-0.2
	c0.7-0.7,0.7-1.9,0-2.6l-8.9-8.9c-0.9-0.9-1.4-2.1-1.5-3.4c0,0,0,0,0-0.1c0-1.3,0.5-2.5,1.5-3.5l8.9-9c0.7-0.7,0.7-1.9,0-2.6
	l-0.2-0.2C30,1.4,29.5,1.2,29,1.2s-1,0.2-1.3,0.5L13.8,15.6z"/>
</svg>
