<svg id="ДИЗАЙН" xmlns="http://www.w3.org/2000/svg" viewBox="0 0 66.67 12.47"><defs><style>.cls-1{fill:#5a93cc;}.cls-2{fill:#848584;}.cls-3{fill:#858685;}.cls-4{fill:#c8c7c8;}</style></defs><title>артеріум_лого</title><path class="cls-1" d="M.07,7.22a6,6,0,0,1,0-1.84A6,6,0,0,1,3.94.51,2.67,2.67,0,0,1,7.5,2.32,2.78,2.78,0,0,1,5.43,5.81a15.48,15.48,0,0,0-3.18,1A2.32,2.32,0,0,0,.86,8.64c0,.25.07.49,0,.83A5.86,5.86,0,0,1,.07,7.22Z"/><path class="cls-2" d="M11.57,2.94a6.31,6.31,0,0,1-2,8.69,3.06,3.06,0,0,1-3,.39A2.73,2.73,0,0,1,5,9.2,2.79,2.79,0,0,1,7,6.84c.9-.26,1.82-.43,2.7-.78a5.29,5.29,0,0,0,1.06-.54A2.17,2.17,0,0,0,11.57,2.94Z"/><path class="cls-3" d="M62.06,8.45c.79-1.71,1.58-3.39,2.33-5.09.2-.44.43-.68,1-.61a8.14,8.14,0,0,0,1,0c.1,0,.21,0,.19.15s-.1.11-.18.13c-.77.17-.86.27-.84,1,0,1.62.09,3.23.14,4.84,0,.6.1.69.7.8.12,0,.34,0,.33.16s-.23.14-.36.14H64c-.11,0-.28.07-.29-.12s.16-.16.27-.18c.59-.12.64-.17.64-.75,0-1.61,0-3.23,0-4.84A.18.18,0,0,0,64.57,4l-.9,1.92C63.11,7.11,62.56,8.33,62,9.56c-.05.12-.05.31-.27.3s-.23-.17-.29-.3L59.12,4.32c0-.05,0-.14-.13-.14s0,.06,0,.1c0,1.5-.08,3-.1,4.5,0,.71.09.8.77.93.11,0,.29,0,.29.16s-.2.14-.32.14h-2c-.1,0-.25.05-.27-.12s.13-.15.23-.18c.64-.17.67-.21.75-.84.2-1.58.19-3.17.29-4.75,0-.67-.09-1.06-.85-1.07-.1,0-.21,0-.2-.15s.12-.13.21-.13h1.41c.22,0,.26.14.33.29L62,8.35A.84.84,0,0,0,62.06,8.45Z"/><path class="cls-3" d="M7,.07a5.4,5.4,0,0,1,2.14.7,2.57,2.57,0,0,1,0,4.55,27.77,27.77,0,0,1-2.95,1.3A4.57,4.57,0,0,0,3.94,8.41a2.69,2.69,0,0,0,1.44,4,.15.15,0,0,1,.1.08A3.59,3.59,0,0,1,3.9,12.1a3,3,0,0,1-1.67-1.57A2.51,2.51,0,0,1,3.38,7.31,22.31,22.31,0,0,1,6.21,6.06a5.75,5.75,0,0,0,2-1.32A2.72,2.72,0,0,0,7,.16C6.93.08,7,.05,7,.07Z"/><path class="cls-3" d="M50.24,5.7c0-.63,0-1.25,0-1.87s-.18-.71-.7-.78c-.12,0-.29.05-.29-.14s.17-.14.28-.14h2.36c.11,0,.25,0,.26.13s-.12.15-.23.16c-.58.09-.67.19-.7.76a32.29,32.29,0,0,0,0,3.81,2,2,0,0,0,3.59,1.26,2.81,2.81,0,0,0,.51-1.59,20.1,20.1,0,0,0,0-3.47c-.06-.57-.23-.7-.79-.77-.12,0-.33.07-.31-.16s.21-.12.33-.12c.68,0,1.36,0,2,0,.11,0,.28,0,.28.14s-.14.13-.25.14a.69.69,0,0,0-.7.71c-.09.9-.05,1.79-.07,2.69a6.13,6.13,0,0,1-.27,2,2.7,2.7,0,0,1-3,1.75C50.72,10,50.34,8.8,50.26,7.52c0-.61,0-1.22,0-1.82Z"/><path class="cls-3" d="M36.14,10H33.87c-.12,0-.32.08-.35-.11s.19-.17.31-.19c.6-.11.74-.25.75-.87q0-2.46,0-4.92c0-.62-.15-.77-.75-.87-.11,0-.24,0-.22-.17s.13-.12.23-.12h4.38c.15,0,.27,0,.28.22,0,.4,0,.8.07,1.2,0,.09,0,.2-.12.21s-.14-.09-.17-.18c-.38-1-.47-1.06-1.53-1.07-1.23,0-1.23,0-1.23,1.22,0,.47,0,.94,0,1.41,0,.24.08.31.31.3a8.37,8.37,0,0,1,1.12,0c.44,0,.71-.14.77-.6,0-.11,0-.29.19-.25s.11.16.11.27C38,6,38,6.56,38,7.1c0,.09,0,.21-.11.23s-.16-.1-.19-.2c-.19-.64-.23-.67-.89-.68H35.76c-.14,0-.25,0-.24.2,0,.8-.05,1.6,0,2.39a.59.59,0,0,0,.64.57c.38,0,.77,0,1.16,0a1.21,1.21,0,0,0,1.3-.86c.05-.15.11-.29.17-.43s.11-.11.2-.08a.12.12,0,0,1,.09.16l-.33,1.45c0,.19-.2.15-.33.15Z"/><path class="cls-3" d="M30.56,6.17V8.78c0,.69.15.84.82.93l.21,0c.08,0,.17,0,.15.15s-.1.12-.19.12H28.78c-.11,0-.28.06-.29-.13s.15-.14.25-.16c.83-.17.88-.21.88-1.08,0-1.71,0-3.42,0-5.13,0-.27-.06-.41-.36-.37s-.39,0-.58,0c-.86,0-1.11.22-1.36,1,0,.14-.06.3-.25.25S27,4.24,27,4.13a4.93,4.93,0,0,1,.05-.54c.07-.83.07-.83.93-.83,1.57,0,3.14,0,4.71,0,.32,0,.44.08.43.42s.05.68.07,1c0,.1,0,.19-.12.22s-.16-.07-.19-.16,0-.14-.05-.2a1,1,0,0,0-1.14-.91c-1.13-.06-1.13-.06-1.13,1.08V6.17Z"/><path class="cls-3" d="M23.47,2.76l.91,0a1.79,1.79,0,0,1,1.81,1.36,1.89,1.89,0,0,1-1,2.12c-.44.23-.37.39-.16.73a21.7,21.7,0,0,0,1.56,2.23,1.85,1.85,0,0,0,.73.6c.08,0,.21,0,.17.18s-.13.08-.21.08a2.18,2.18,0,0,1-1.92-.85,19.06,19.06,0,0,1-1.12-1.83,1,1,0,0,0-1.07-.61,8.17,8.17,0,0,1-1,0c-.14,0-.33.07-.32-.19s.18-.16.3-.16h1.49A1.54,1.54,0,0,0,25.24,4.8a1.5,1.5,0,0,0-1.48-1.65c-.52,0-1.05,0-1.57,0-.13,0-.3,0-.32-.17s.18-.2.32-.21Z"/><path class="cls-3" d="M41.28,2.76c.2,0,.56,0,.92.05A1.78,1.78,0,0,1,44,4.1a1.94,1.94,0,0,1-.91,2.16c-.49.3-.49.31-.2.77a17.45,17.45,0,0,0,1.61,2.29,2.09,2.09,0,0,0,.64.51c.09,0,.21.05.17.18s-.15.09-.24.09a2.13,2.13,0,0,1-1.92-.93C42.74,8.58,42.37,8,42,7.38a1,1,0,0,0-1-.57c-.35,0-.71,0-1.07,0-.13,0-.3.06-.31-.16s.19-.19.32-.19h1.45A1.54,1.54,0,0,0,43,4.81a1.5,1.5,0,0,0-1.5-1.66c-.51,0-1,0-1.53,0-.13,0-.33.06-.32-.19s.2-.18.34-.18Z"/><path class="cls-3" d="M47,10H45.88c-.1,0-.24.06-.27-.11s.13-.15.23-.18c.68-.17.75-.24.75-.94,0-1.59,0-3.17,0-4.76,0-.75-.06-.8-.81-1-.08,0-.17,0-.17-.13s.09-.16.2-.16h2.52c.08,0,.17,0,.18.12s-.08.14-.18.16c-.68.14-.8.26-.8,1,0,1.59,0,3.19,0,4.79,0,.65.12.76.75.92.1,0,.25,0,.23.18s-.17.11-.27.11Z"/><path class="cls-4" d="M7,.07,7,.16C6.81.2,6.69.1,6.55,0,6.72,0,6.88-.06,7,.07Z"/><path class="cls-3" d="M22.21,9.74c-.72-.05-.88-.62-1.07-1.15L19.08,3c0-.12,0-.33-.25-.33s-.21.21-.26.34l-2.18,5.6c-.21.53-.35,1.11-1.08,1.15a.13.13,0,0,0-.14.16c0,.11.11.11.19.11h2c.1,0,.21,0,.21-.13s-.11-.15-.2-.16a1.52,1.52,0,0,0-.21,0c-.35,0-.49-.21-.37-.56.18-.54.36-1.07.53-1.61a.33.33,0,0,1,.36-.26c.58,0,1.16,0,1.73,0,.14,0,.27,0,.34.17.21.61.43,1.21.65,1.82.1.27,0,.39-.28.43a2,2,0,0,0-.24,0c-.1,0-.21,0-.2.16s.13.13.22.13h2.28c.08,0,.17,0,.19-.1S22.3,9.75,22.21,9.74Zm-3-2.92H17.55c.33-.92.63-1.79,1-2.76l.9,2.52C19.49,6.78,19.4,6.82,19.23,6.82Z"/></svg>