<?xml version="1.0" encoding="utf-8"?>
<!-- Generator: Adobe Illustrator 19.1.0, SVG Export Plug-In . SVG Version: 6.00 Build 0)  -->
<svg version="1.1" id="Outline" xmlns="http://www.w3.org/2000/svg" xmlns:xlink="http://www.w3.org/1999/xlink" x="0px" y="0px"
	 viewBox="0 0 42.1 42" style="enable-background:new 0 0 42.1 42;" xml:space="preserve">
<style type="text/css">
	.st0{fill:#28a1de;}
</style>
<g>
	<path class="st0" d="M14.2,19.6c3,0,5.4-2,5.4-4.5c0-0.4-0.3-0.7-0.7-0.7s-0.7,0.3-0.7,0.7c0,1.6-1.5,2.9-3.4,3.1v-2.2
		c0.1,0,0.1-0.1,0.2-0.1l1.1-0.8l0,0c0.4-0.3,0.7-0.8,0.7-1.4c0-0.9-0.7-1.7-1.6-1.7h-2.3c-0.9,0-1.6,0.8-1.6,1.7
		c0,0.5,0.2,1.1,0.7,1.4l1.1,0.8c0.1,0,0.1,0.1,0.2,0.1v2.2c-1.9-0.3-3.4-1.5-3.4-3.1c0-0.4-0.3-0.7-0.7-0.7c-0.4,0-0.7,0.3-0.7,0.7
		C8.8,17.6,11.2,19.6,14.2,19.6z M13,13.8c-0.1-0.1-0.1-0.1-0.1-0.2c0-0.1,0.1-0.3,0.2-0.3h2.3c0.1,0,0.2,0.1,0.2,0.3
		c0,0.1,0,0.2-0.1,0.2l-1.1,0.8c-0.1,0-0.1,0-0.2,0L13,13.8z"/>
	<ellipse class="st0" cx="18.3" cy="11.2" rx="0.7" ry="0.7"/>
	<ellipse class="st0" cx="10.2" cy="11.2" rx="0.7" ry="0.7"/>
	<path class="st0" d="M31.8,25.9c1.5,0,2.7-1.3,2.7-2.8s-1.2-2.8-2.7-2.8s-2.7,1.3-2.7,2.8C29.1,24.6,30.3,25.9,31.8,25.9z
		 M31.8,21.7c0.7,0,1.4,0.6,1.4,1.4s-0.6,1.4-1.4,1.4s-1.4-0.6-1.4-1.4C30.5,22.3,31.1,21.7,31.8,21.7z"/>
	<path class="st0" d="M41.3,27.3h-4.1v-9.1c0-0.1,0-0.3-0.1-0.4l0,0l-4.7-7c-0.2-0.3-0.6-0.4-0.9-0.2c-0.1,0-0.1,0.1-0.2,0.2l-4.7,7
		l0,0c-0.1,0.1-0.1,0.3-0.1,0.4v4.4c-0.9-1.3-2.2-2.4-3.7-3.2c1.5-1.8,2.3-4.2,2.3-6.8c0-1.1-0.2-2.3-0.5-3.4c2.3-1.3,3.2-4.2,2-6.6
		c-1.2-2.4-4.1-3.3-6.4-2c-0.9,0.5-1.6,1.2-2,2.1c-1.3-0.4-2.6-0.6-3.9-0.6c-1.3,0-2.6,0.2-3.9,0.6C9.1,0.3,6.3-0.7,4,0.5
		S0.7,4.7,1.9,7.1C2.3,8,3,8.8,3.9,9.2c-0.3,1.1-0.5,2.2-0.5,3.4c0,2.6,0.8,5,2.3,6.8c-3.3,1.8-5.2,4.7-5.6,8.5c0,0,0,0,0,0l-0.1,1
		c0,0,0,0.1,0,0.1c0.1,1.7,1.2,3.1,2.7,3.7c-0.4,0.9-0.7,2-0.7,3C2,39.2,4.5,42,7.5,42c1.6,0,3.1-0.8,4-2.1c1.7,1,3.8,1,5.5,0
		c1,1.3,2.4,2.1,4,2.1c2.1,0,4-1.4,4.9-3.5h15.5c0.4,0,0.7-0.3,0.7-0.7V28C42,27.6,41.7,27.3,41.3,27.3z M31.8,12.4l3.4,5.1h-6.9
		L31.8,12.4z M27.8,18.9h8.1v8.4h-7.6c-0.1-0.7-0.3-1.4-0.5-2.1V18.9z M25.7,32.7c0.6-0.2,1.2-0.6,1.7-1.2h1v2.8h-2.2
		C26.2,33.7,26,33.2,25.7,32.7z M27,28l0.1,0.9c-0.1,1.2-0.9,2.2-2.1,2.5c-0.8-1.1-2-1.8-3.3-2c-0.1-2.8-1.1-5.5-2.6-7.3
		c1-0.4,1.8-1,2.6-1.7C24.8,22,26.7,24.6,27,28L27,28z M22.3,1.4c1.9,0,3.4,1.6,3.4,3.5c0,1.2-0.6,2.4-1.7,3c-0.5-1-1.1-2-1.9-2.8
		c-0.8-0.8-1.7-1.5-2.8-2C20,2.1,21.1,1.4,22.3,1.4z M2.7,4.9c0-1.9,1.5-3.5,3.4-3.5c1.2,0,2.4,0.7,3,1.8c-1,0.5-2,1.2-2.8,2
		C5.5,6,4.9,6.9,4.4,7.9C3.3,7.3,2.7,6.1,2.7,4.9z M7.2,6.2c1.7-1.7,4.1-2.7,7-2.7s5.3,0.9,7,2.7c1.6,1.6,2.5,3.9,2.5,6.4
		s-0.9,4.8-2.5,6.4c-1.7,1.7-4.1,2.7-7,2.7s-5.3-0.9-7-2.7c-1.6-1.6-2.5-3.9-2.5-6.4S5.6,7.8,7.2,6.2z M1.4,28.9L1.4,28
		c0.4-3.4,2.2-6.1,5.3-7.6c0.8,0.7,1.7,1.3,2.6,1.7c-1.5,1.8-2.4,4.5-2.6,7.3c-1.3,0.2-2.5,0.9-3.3,2C2.3,31.2,1.5,30.2,1.4,28.9z
		 M7.5,40.6c-2.2,0-4.1-2.2-4.1-4.9s1.8-4.9,4.1-4.9s4.1,2.2,4.1,4.9S9.7,40.6,7.5,40.6z M14.2,39.2c-0.7,0-1.4-0.2-2-0.5
		c0.4-0.9,0.7-2,0.7-3c0-3.2-2.1-5.8-4.7-6.2c0.1-2.7,1.1-5.2,2.6-6.8c1.1,0.3,2.3,0.5,3.5,0.5c1.2,0,2.3-0.1,3.5-0.5
		c1.5,1.6,2.5,4.1,2.6,6.8c-2.7,0.4-4.7,3-4.7,6.2c0,1,0.2,2.1,0.7,3C15.6,39,14.9,39.2,14.2,39.2z M21,40.6c-2.2,0-4.1-2.2-4.1-4.9
		s1.8-4.9,4.1-4.9s4.1,2.2,4.1,4.9S23.2,40.6,21,40.6z M26.4,35.7h2.7c0.4,0,0.7-0.3,0.7-0.7v-4.2c0-0.4-0.3-0.7-0.7-0.7h-0.9
		c0.1-0.4,0.2-0.7,0.2-1.1c0,0,0-0.1,0-0.1l0-0.2h2.7v8.4h-4.9C26.4,36.6,26.4,36.2,26.4,35.7z M40.6,37.1h-8.1v-8.4h8.1V37.1z"/>
	<path class="st0" d="M34.5,35.7h4.1c0.4,0,0.7-0.3,0.7-0.7c0-0.1,0-0.2-0.1-0.3l-2-4.2c-0.2-0.3-0.6-0.5-0.9-0.3
		c-0.1,0.1-0.2,0.2-0.3,0.3l-2,4.2c-0.2,0.3,0,0.8,0.3,0.9C34.3,35.7,34.4,35.7,34.5,35.7z M36.6,32.4l0.9,1.9h-1.9L36.6,32.4z"/>
</g>
<g>
	<g>
		<path class="st0" d="M337.3,0.2c-2.8-1.3-4.8,7.5-5.4,11.5c-0.6,4-1.4,13.1,1.6,13.5c3.8,1.4,9-3,10.1-10.1
			C344.7,7.9,341.2,0.9,337.3,0.2z M333.7,22.7c-0.4-0.5-1-4.2,0-10.5c1-6.4,2.6-9.4,3.1-9.6c0.5,0.5,0.6,3.3,0.6,4.9
			C337.2,15.3,334.7,22.3,333.7,22.7z M339,3.8c2,2,3.5,6.4,2.9,10.8c-0.7,4.4-3.3,7.5-5.8,8.3C338.2,18.5,339.7,9.1,339,3.8z"/>
	</g>
	<g>
		<path class="st0" d="M324.8-6.4c0.6-0.1,1.2-0.1,1.7-0.1c0.5,0,0.9-0.6,0.9-1.3S327-9,326.5-9C315-9,302.3,3.7,297.9,17.7
			c-0.2,0.6,0,1.4,0.5,1.6c0.5,0.3,1,0,1.2-0.6c0.2-0.7,0.5-1.4,0.7-2.1c5.1,8.5,18.6,13.5,26.3,12.3c0.5-0.1,0.8-0.7,0.8-1.4
			c-0.1-0.7-0.5-1.2-1-1.1c-0.3,0.1-0.7,0.1-1,0.1c1.5-5.4,2-10.9,2-12.4c0-4.1,0.4-11-2.7-20.4C324.7-6.4,324.8-6.4,324.8-6.4z
			 M316-3.1c2.2-1.4,4.5-2.4,6.8-3c0.1,0.2,0.1,0.4,0.2,0.5c-5,3.3-7.1,14.1-5,22.7c0.2,0.7,0.7,1,1.1,0.8c0.5-0.2,0.7-0.9,0.6-1.6
			c-1.9-7.6,0.1-16.9,4-19.6c0.8,2.9,1.4,5.9,1.7,9c-0.1,0-0.2-0.1-0.3-0.1c-1.2,0-2.2,2-2.2,4.5c0,2.5,1,4.5,2.2,4.5
			c0.2,0,0.3,0,0.5-0.1c-0.2,3.1-0.6,6.3-1.4,9.3c-1.2-0.6-2.3-1.9-3.2-3.6c-0.3-0.6-0.8-0.7-1.3-0.3c-0.4,0.4-0.5,1.2-0.2,1.7
			c1.1,2.2,2.5,3.7,4,4.5c0,0.1-0.1,0.2-0.1,0.3c-7.6-0.3-18.3-5.1-22.1-12.2C303.8,8.2,309.5,1.1,316-3.1C316-3.1,316-3.1,316-3.1z
			"/>
	</g>
</g>
</svg>
