<?xml version="1.0" encoding="utf-8"?>
<!-- Generator: Adobe Illustrator 19.1.0, SVG Export Plug-In . SVG Version: 6.00 Build 0)  -->
<svg version="1.1" id="Layer_1" xmlns="http://www.w3.org/2000/svg" xmlns:xlink="http://www.w3.org/1999/xlink" x="0px" y="0px"
	 viewBox="0 0 45 45" style="enable-background:new 0 0 45 45;" xml:space="preserve">
<style type="text/css">
	.st0{clip-path:url(#SVGID_2_);fill:#28a1de;}
	.st1{clip-path:url(#SVGID_4_);fill:#28a1de;}
	.st2{clip-path:url(#SVGID_6_);fill:#28a1de;}
	.st3{clip-path:url(#SVGID_8_);fill:#28a1de;}
	.st4{clip-path:url(#SVGID_10_);fill:#28a1de;}
	.st5{clip-path:url(#SVGID_12_);fill:#28a1de;}
	.st6{clip-path:url(#SVGID_14_);fill:#28a1de;}
	.st7{clip-path:url(#SVGID_16_);fill:#28a1de;}
	.st8{clip-path:url(#SVGID_18_);fill:#28a1de;}
	.st9{clip-path:url(#SVGID_20_);fill:#28a1de;}
	.st10{clip-path:url(#SVGID_22_);fill:#28a1de;}
	.st11{clip-path:url(#SVGID_24_);fill:#28a1de;}
	.st12{clip-path:url(#SVGID_26_);fill:#28a1de;}
	.st13{clip-path:url(#SVGID_28_);fill:#28a1de;}
</style>
<g>
	<g>
		<defs>
			<path id="SVGID_1_" d="M21.8,22.5c0-0.4,0.3-0.7,0.7-0.7c0.4,0,0.7,0.3,0.7,0.7c0,0.4-0.3,0.7-0.7,0.7
				C22.1,23.2,21.8,22.9,21.8,22.5 M15.2,9.9c-0.3,0.2-0.4,0.6-0.2,0.9l6,10.5c-0.3,0.3-0.5,0.8-0.5,1.3c0,0.9,0.6,1.6,1.3,1.9v14.7
				c0,0.4,0.3,0.7,0.7,0.7c0.4,0,0.7-0.3,0.7-0.7V24.4c0.8-0.3,1.3-1,1.3-1.9c0-1.1-0.9-2-2-2c-0.1,0-0.2,0-0.4,0l-6-10.4
				c-0.1-0.2-0.3-0.3-0.6-0.3C15.4,9.8,15.3,9.8,15.2,9.9"/>
		</defs>
		<use xlink:href="#SVGID_1_"  style="overflow:visible;fill:#28a1de;"/>
		<clipPath id="SVGID_2_">
			<use xlink:href="#SVGID_1_"  style="overflow:visible;"/>
		</clipPath>
		<rect x="6.6" y="10" transform="matrix(-0.7862 0.618 -0.618 -0.7862 50.3588 32.0784)" class="st0" width="26.1" height="29.5"/>
	</g>
	<g>
		<defs>
			<path id="SVGID_3_" d="M1.3,22.5c0-11.7,9.5-21.2,21.2-21.2c11.7,0,21.2,9.5,21.2,21.2s-9.5,21.2-21.2,21.2
				C10.8,43.7,1.3,34.2,1.3,22.5 M22.5,0c-6,0-11.7,2.3-15.9,6.6S0,16.5,0,22.5s2.3,11.7,6.6,15.9S16.5,45,22.5,45
				s11.7-2.3,15.9-6.6c4.2-4.2,6.6-9.9,6.6-15.9s-2.3-11.7-6.6-15.9C34.2,2.3,28.5,0,22.5,0z"/>
		</defs>
		<use xlink:href="#SVGID_3_"  style="overflow:visible;fill:#28a1de;"/>
		<clipPath id="SVGID_4_">
			<use xlink:href="#SVGID_3_"  style="overflow:visible;"/>
		</clipPath>
		
			<rect x="-9.1" y="-9.1" transform="matrix(-0.7862 0.618 -0.618 -0.7862 54.0941 26.2829)" class="st1" width="63.2" height="63.2"/>
	</g>
	<g>
		<defs>
			<path id="SVGID_5_" d="M21.8,5.9c0,0.4,0.3,0.7,0.7,0.7s0.7-0.3,0.7-0.7c0-0.4-0.3-0.7-0.7-0.7S21.8,5.6,21.8,5.9"/>
		</defs>
		<use xlink:href="#SVGID_5_"  style="overflow:visible;fill:#28a1de;"/>
		<clipPath id="SVGID_6_">
			<use xlink:href="#SVGID_5_"  style="overflow:visible;"/>
		</clipPath>
		<rect x="21.6" y="5" transform="matrix(-0.7862 0.618 -0.618 -0.7862 43.855 -3.3091)" class="st2" width="1.9" height="1.9"/>
	</g>
	<g>
		<defs>
			<path id="SVGID_7_" d="M13.6,8.2c0,0.4,0.3,0.7,0.7,0.7c0.4,0,0.7-0.3,0.7-0.7c0-0.4-0.3-0.7-0.7-0.7C13.9,7.5,13.6,7.8,13.6,8.2
				"/>
		</defs>
		<use xlink:href="#SVGID_7_"  style="overflow:visible;fill:#28a1de;"/>
		<clipPath id="SVGID_8_">
			<use xlink:href="#SVGID_7_"  style="overflow:visible;"/>
		</clipPath>
		<rect x="13.3" y="7.2" transform="matrix(-0.7862 0.618 -0.618 -0.7862 30.4306 5.7744)" class="st3" width="1.9" height="1.9"/>
	</g>
	<g>
		<defs>
			<path id="SVGID_9_" d="M7.5,14.2c0,0.4,0.3,0.7,0.7,0.7c0.4,0,0.7-0.3,0.7-0.7s-0.3-0.7-0.7-0.7C7.8,13.6,7.5,13.9,7.5,14.2"/>
		</defs>
		<use xlink:href="#SVGID_9_"  style="overflow:visible;fill:#28a1de;"/>
		<clipPath id="SVGID_10_">
			<use xlink:href="#SVGID_9_"  style="overflow:visible;"/>
		</clipPath>
		<rect x="7.2" y="13.3" transform="matrix(-0.7862 0.618 -0.618 -0.7862 23.3465 20.3544)" class="st4" width="1.9" height="1.9"/>
	</g>
	<g>
		<defs>
			<path id="SVGID_11_" d="M5.3,22.5c0,0.4,0.3,0.7,0.7,0.7s0.7-0.3,0.7-0.7s-0.3-0.7-0.7-0.7S5.3,22.1,5.3,22.5"/>
		</defs>
		<use xlink:href="#SVGID_11_"  style="overflow:visible;fill:#28a1de;"/>
		<clipPath id="SVGID_12_">
			<use xlink:href="#SVGID_11_"  style="overflow:visible;"/>
		</clipPath>
		<rect x="5" y="21.6" transform="matrix(-0.7862 0.618 -0.618 -0.7862 24.5022 36.522)" class="st5" width="1.9" height="1.9"/>
	</g>
	<g>
		<defs>
			<path id="SVGID_13_" d="M7.5,30.8c0,0.4,0.3,0.7,0.7,0.7c0.4,0,0.7-0.3,0.7-0.7s-0.3-0.7-0.7-0.7C7.8,30.1,7.5,30.4,7.5,30.8"/>
		</defs>
		<use xlink:href="#SVGID_13_"  style="overflow:visible;fill:#28a1de;"/>
		<clipPath id="SVGID_14_">
			<use xlink:href="#SVGID_13_"  style="overflow:visible;"/>
		</clipPath>
		<rect x="7.2" y="29.9" transform="matrix(-0.7862 0.618 -0.618 -0.7862 33.5857 49.9464)" class="st6" width="1.9" height="1.9"/>
	</g>
	<g>
		<defs>
			<path id="SVGID_15_" d="M13.6,36.8c0,0.4,0.3,0.7,0.7,0.7c0.4,0,0.7-0.3,0.7-0.7s-0.3-0.7-0.7-0.7C13.9,36.2,13.6,36.5,13.6,36.8
				"/>
		</defs>
		<use xlink:href="#SVGID_15_"  style="overflow:visible;fill:#28a1de;"/>
		<clipPath id="SVGID_16_">
			<use xlink:href="#SVGID_15_"  style="overflow:visible;"/>
		</clipPath>
		
			<rect x="13.3" y="35.9" transform="matrix(-0.7862 0.618 -0.618 -0.7862 48.1657 57.0305)" class="st7" width="1.9" height="1.9"/>
	</g>
	<g>
		<defs>
			<path id="SVGID_17_" d="M30.1,36.8c0,0.4,0.3,0.7,0.7,0.7c0.4,0,0.7-0.3,0.7-0.7s-0.3-0.7-0.7-0.7C30.4,36.2,30.1,36.5,30.1,36.8
				"/>
		</defs>
		<use xlink:href="#SVGID_17_"  style="overflow:visible;fill:#28a1de;"/>
		<clipPath id="SVGID_18_">
			<use xlink:href="#SVGID_17_"  style="overflow:visible;"/>
		</clipPath>
		
			<rect x="29.9" y="35.9" transform="matrix(-0.7862 0.618 -0.618 -0.7862 77.7577 46.7914)" class="st8" width="1.9" height="1.9"/>
	</g>
	<g>
		<defs>
			<path id="SVGID_19_" d="M36.2,30.8c0,0.4,0.3,0.7,0.7,0.7c0.4,0,0.7-0.3,0.7-0.7s-0.3-0.7-0.7-0.7C36.5,30.1,36.2,30.4,36.2,30.8
				"/>
		</defs>
		<use xlink:href="#SVGID_19_"  style="overflow:visible;fill:#28a1de;"/>
		<clipPath id="SVGID_20_">
			<use xlink:href="#SVGID_19_"  style="overflow:visible;"/>
		</clipPath>
		
			<rect x="35.9" y="29.9" transform="matrix(-0.7862 0.618 -0.618 -0.7862 84.8417 32.2113)" class="st9" width="1.9" height="1.9"/>
	</g>
	<g>
		<defs>
			<path id="SVGID_21_" d="M38.4,22.5c0,0.4,0.3,0.7,0.7,0.7s0.7-0.3,0.7-0.7s-0.3-0.7-0.7-0.7S38.4,22.1,38.4,22.5"/>
		</defs>
		<use xlink:href="#SVGID_21_"  style="overflow:visible;fill:#28a1de;"/>
		<clipPath id="SVGID_22_">
			<use xlink:href="#SVGID_21_"  style="overflow:visible;"/>
		</clipPath>
		
			<rect x="38.1" y="21.6" transform="matrix(-0.7862 0.618 -0.618 -0.7862 83.6861 16.0438)" class="st10" width="1.9" height="1.9"/>
	</g>
	<g>
		<defs>
			<path id="SVGID_23_" d="M36.2,14.2c0,0.4,0.3,0.7,0.7,0.7c0.4,0,0.7-0.3,0.7-0.7s-0.3-0.7-0.7-0.7C36.5,13.6,36.2,13.9,36.2,14.2
				"/>
		</defs>
		<use xlink:href="#SVGID_23_"  style="overflow:visible;fill:#28a1de;"/>
		<clipPath id="SVGID_24_">
			<use xlink:href="#SVGID_23_"  style="overflow:visible;"/>
		</clipPath>
		
			<rect x="35.9" y="13.3" transform="matrix(-0.7862 0.618 -0.618 -0.7862 74.6026 2.6193)" class="st11" width="1.9" height="1.9"/>
	</g>
	<g>
		<defs>
			<path id="SVGID_25_" d="M30.1,8.2c0,0.4,0.3,0.7,0.7,0.7c0.4,0,0.7-0.3,0.7-0.7c0-0.4-0.3-0.7-0.7-0.7
				C30.4,7.5,30.1,7.8,30.1,8.2"/>
		</defs>
		<use xlink:href="#SVGID_25_"  style="overflow:visible;fill:#28a1de;"/>
		<clipPath id="SVGID_26_">
			<use xlink:href="#SVGID_25_"  style="overflow:visible;"/>
		</clipPath>
		
			<rect x="29.9" y="7.2" transform="matrix(-0.7862 0.618 -0.618 -0.7862 60.0225 -4.4647)" class="st12" width="1.9" height="1.9"/>
	</g>
	<g>
		<defs>
			<path id="SVGID_27_" d="M9.5,7.5C9.2,7.8,9.1,8.2,9.4,8.5c0.2,0.3,0.7,0.3,0.9,0.1C13.7,5.6,18,4,22.5,4C32.7,4,41,12.3,41,22.5
				S32.7,41,22.5,41C12.3,41,4,32.7,4,22.5c0-4.5,1.6-8.8,4.6-12.2C8.8,10,8.7,9.6,8.5,9.4C8.2,9.1,7.8,9.2,7.5,9.5
				c-3.2,3.6-4.9,8.2-4.9,13c0,5.3,2.1,10.3,5.8,14c3.8,3.8,8.7,5.8,14,5.8s10.3-2.1,14-5.8c3.8-3.8,5.8-8.7,5.8-14
				s-2.1-10.3-5.8-14c-3.8-3.8-8.7-5.8-14-5.8C17.7,2.6,13.1,4.4,9.5,7.5"/>
		</defs>
		<use xlink:href="#SVGID_27_"  style="overflow:visible;fill:#28a1de;"/>
		<clipPath id="SVGID_28_">
			<use xlink:href="#SVGID_27_"  style="overflow:visible;"/>
		</clipPath>
		
			<rect x="-5.4" y="-5.4" transform="matrix(-0.7862 0.618 -0.618 -0.7862 54.0941 26.2828)" class="st13" width="55.8" height="55.8"/>
	</g>
</g>
</svg>
