<?xml version="1.0" encoding="utf-8"?>
<!-- Generator: Adobe Illustrator 22.1.0, SVG Export Plug-In . SVG Version: 6.00 Build 0)  -->
<svg version="1.1" id="Layer_1" xmlns="http://www.w3.org/2000/svg" xmlns:xlink="http://www.w3.org/1999/xlink" x="0px" y="0px"
	 viewBox="0 0 45 45" style="enable-background:new 0 0 45 45;" xml:space="preserve">
<style type="text/css">
	.st0{fill:#28A1DE;}
	.st1{clip-path:url(#SVGID_8_);fill:#28A1DE;}
	.st2{clip-path:url(#SVGID_12_);fill:#28A1DE;}
	.st3{clip-path:url(#SVGID_16_);fill:#28A1DE;}
	.st4{clip-path:url(#SVGID_20_);fill:#28A1DE;}
	.st5{clip-path:url(#SVGID_24_);fill:#28A1DE;}
	.st6{clip-path:url(#SVGID_28_);fill:#28A1DE;}
	.st7{clip-path:url(#SVGID_30_);fill:#28A1DE;}
	.st8{clip-path:url(#SVGID_32_);fill:#28A1DE;}
	.st9{clip-path:url(#SVGID_34_);fill:#28A1DE;}
	.st10{clip-path:url(#SVGID_36_);fill:#28A1DE;}
	.st11{clip-path:url(#SVGID_38_);fill:#28A1DE;}
	.st12{clip-path:url(#SVGID_40_);fill:#28A1DE;}
	.st13{clip-path:url(#SVGID_42_);fill:#28A1DE;}
</style>
<g>
	<g>
		<g>
			<path id="SVGID_1_" class="st0" d="M23.2,22.5c0,0.4-0.3,0.7-0.7,0.7c-0.4,0-0.7-0.3-0.7-0.7c0-0.4,0.3-0.7,0.7-0.7
				C22.9,21.8,23.2,22.1,23.2,22.5 M29.6,35.2c0.3-0.2,0.4-0.6,0.2-0.9L24,23.7c0.3-0.3,0.5-0.8,0.5-1.3c0-0.9-0.6-1.6-1.3-1.9
				l0.2-14.7c0-0.4-0.3-0.7-0.7-0.7c-0.4,0-0.7,0.3-0.7,0.7l-0.2,14.8c-0.8,0.3-1.3,1-1.3,1.9c0,1.1,0.9,2,2,2c0.1,0,0.2,0,0.4,0
				L28.7,35c0.1,0.2,0.3,0.3,0.6,0.3C29.4,35.3,29.5,35.3,29.6,35.2"/>
		</g>
		<g>
			<defs>
				<path id="SVGID_2_" d="M25.8,17.2"/>
			</defs>
			<clipPath id="SVGID_4_">
				<use xlink:href="#SVGID_2_"  style="overflow:visible;"/>
			</clipPath>
		</g>
	</g>
	<g>
		<g>
			<path id="SVGID_3_" class="st0" d="M43.7,22.8c-0.2,11.7-9.8,21.1-21.5,20.9C10.5,43.5,1.1,33.9,1.3,22.2S11.1,1.1,22.8,1.3
				S43.9,11.1,43.7,22.8 M22.2,45c6,0.1,11.7-2.1,16-6.4s6.7-9.8,6.8-15.8c0.1-6-2.1-11.7-6.4-16S28.8,0.1,22.8,0s-11.7,2.1-16,6.4
				C2.6,10.5,0.1,16.2,0,22.2s2.1,11.7,6.4,16C10.5,42.5,16.2,44.9,22.2,45z"/>
		</g>
		<g>
			<defs>
				<path id="SVGID_6_" d="M5.6,35.4c-7.1-9.3-5.3-22.6,4-29.7s22.6-5.3,29.7,4s5.3,22.6-4,29.7S12.7,44.7,5.6,35.4 M8.9,4.6
					c-4.8,3.6-7.9,8.9-8.6,14.9S1,31.4,4.6,36.2s8.9,7.9,14.9,8.6s11.9-0.8,16.6-4.4s7.9-8.9,8.6-14.9c0.8-5.9-0.8-11.9-4.4-16.6
					C36.8,4.1,31.5,1,25.5,0.2C19.6-0.6,13.6,1,8.9,4.6z"/>
			</defs>
			<clipPath id="SVGID_8_">
				<use xlink:href="#SVGID_6_"  style="overflow:visible;"/>
			</clipPath>
			
				<rect x="-9.1" y="-9.1" transform="matrix(0.7951 -0.6064 0.6064 0.7951 -9.0436 18.2579)" class="st1" width="63.2" height="63.2"/>
		</g>
	</g>
	<g>
		<g>
			<path id="SVGID_5_" class="st0" d="M23,39.1c0-0.4-0.3-0.7-0.7-0.7c-0.4,0-0.7,0.3-0.7,0.7c0,0.4,0.3,0.7,0.7,0.7
				C22.6,39.8,23,39.4,23,39.1"/>
		</g>
		<g>
			<defs>
				<path id="SVGID_10_" d="M21.7,39.5c0.2,0.3,0.7,0.4,1,0.1s0.4-0.7,0.1-1c-0.2-0.3-0.7-0.4-1-0.1C21.5,38.7,21.5,39.2,21.7,39.5"
					/>
			</defs>
			<clipPath id="SVGID_12_">
				<use xlink:href="#SVGID_10_"  style="overflow:visible;"/>
			</clipPath>
			
				<rect x="21.4" y="38.1" transform="matrix(0.7951 -0.6064 0.6064 0.7951 -19.1186 21.5324)" class="st2" width="1.9" height="1.9"/>
		</g>
	</g>
	<g>
		<g>
			<path id="SVGID_7_" class="st0" d="M31.2,36.9c0-0.4-0.3-0.7-0.7-0.7c-0.4,0-0.7,0.3-0.7,0.7c0,0.4,0.3,0.7,0.7,0.7
				S31.2,37.3,31.2,36.9"/>
		</g>
		<g>
			<defs>
				<path id="SVGID_14_" d="M30.1,37.4c0.2,0.3,0.7,0.4,1,0.1c0.3-0.2,0.4-0.7,0.1-1s-0.7-0.4-1-0.1S29.9,37.1,30.1,37.4"/>
			</defs>
			<clipPath id="SVGID_16_">
				<use xlink:href="#SVGID_14_"  style="overflow:visible;"/>
			</clipPath>
			<rect x="29.6" y="36" transform="matrix(0.7951 -0.6064 0.6064 0.7951 -16.1443 26.129)" class="st3" width="1.9" height="1.9"/>
		</g>
	</g>
	<g>
		<g>
			<path id="SVGID_9_" class="st0" d="M37.4,31c0-0.4-0.3-0.7-0.7-0.7S36,30.6,36,31c0,0.4,0.3,0.7,0.7,0.7
				C37.1,31.6,37.4,31.3,37.4,31"/>
		</g>
		<g>
			<defs>
				<path id="SVGID_18_" d="M36.2,31.4c0.2,0.3,0.7,0.4,1,0.1c0.3-0.2,0.4-0.7,0.1-1c-0.2-0.3-0.7-0.4-1-0.1
					C36.1,30.7,36,31.1,36.2,31.4"/>
			</defs>
			<clipPath id="SVGID_20_">
				<use xlink:href="#SVGID_18_"  style="overflow:visible;"/>
			</clipPath>
			
				<rect x="35.8" y="30.1" transform="matrix(0.7951 -0.6064 0.6064 0.7951 -11.2919 28.6418)" class="st4" width="1.9" height="1.9"/>
		</g>
	</g>
	<g>
		<g>
			<path id="SVGID_11_" class="st0" d="M39.7,22.8c0-0.4-0.3-0.7-0.7-0.7c-0.4,0-0.7,0.3-0.7,0.7s0.3,0.7,0.7,0.7
				S39.7,23.2,39.7,22.8"/>
		</g>
		<g>
			<defs>
				<path id="SVGID_22_" d="M38.6,23.1c0.2,0.3,0.7,0.4,1,0.1c0.3-0.2,0.4-0.7,0.1-1c-0.2-0.3-0.7-0.4-1-0.1S38.3,22.8,38.6,23.1"/>
			</defs>
			<clipPath id="SVGID_24_">
				<use xlink:href="#SVGID_22_"  style="overflow:visible;"/>
			</clipPath>
			
				<rect x="38.2" y="21.8" transform="matrix(0.7951 -0.6064 0.6064 0.7951 -5.8049 28.3858)" class="st5" width="1.9" height="1.9"/>
		</g>
	</g>
	<g>
		<g>
			<path id="SVGID_13_" class="st0" d="M37.6,14.4c0-0.4-0.3-0.7-0.7-0.7c-0.4,0-0.7,0.3-0.7,0.7c0,0.4,0.3,0.7,0.7,0.7
				C37.3,15.1,37.6,14.8,37.6,14.4"/>
		</g>
		<g>
			<defs>
				<path id="SVGID_26_" d="M36.5,14.8c0.2,0.3,0.7,0.4,1,0.1c0.3-0.2,0.4-0.7,0.1-1c-0.2-0.3-0.7-0.4-1-0.1
					C36.3,14.1,36.2,14.5,36.5,14.8"/>
			</defs>
			<clipPath id="SVGID_28_">
				<use xlink:href="#SVGID_26_"  style="overflow:visible;"/>
			</clipPath>
			
				<rect x="36.1" y="13.5" transform="matrix(0.7951 -0.6064 0.6064 0.7951 -1.2083 25.4116)" class="st6" width="1.9" height="1.9"/>
		</g>
	</g>
	<g>
		<g>
			<path id="SVGID_15_" class="st0" d="M31.6,8.3c0-0.4-0.3-0.7-0.7-0.7c-0.4,0-0.7,0.3-0.7,0.7c0,0.4,0.3,0.7,0.7,0.7
				C31.3,8.9,31.6,8.6,31.6,8.3"/>
		</g>
		<g>
			<defs>
				<path id="SVGID_29_" d="M30.5,8.6c0.2,0.3,0.7,0.4,1,0.1s0.4-0.7,0.1-1c-0.2-0.3-0.7-0.4-1-0.1C30.3,8,30.3,8.4,30.5,8.6"/>
			</defs>
			<clipPath id="SVGID_30_">
				<use xlink:href="#SVGID_29_"  style="overflow:visible;"/>
			</clipPath>
			<rect x="30.1" y="7.3" transform="matrix(0.7951 -0.6064 0.6064 0.7951 1.3403 20.5061)" class="st7" width="1.9" height="1.9"/>
		</g>
	</g>
	<g>
		<g>
			<path id="SVGID_17_" class="st0" d="M15.1,8.1c0-0.4-0.3-0.7-0.7-0.7c-0.4,0-0.7,0.3-0.7,0.7c0,0.4,0.3,0.7,0.7,0.7
				C14.8,8.7,15.1,8.4,15.1,8.1"/>
		</g>
		<g>
			<defs>
				<path id="SVGID_31_" d="M13.9,8.4c0.2,0.3,0.7,0.4,1,0.1c0.3-0.2,0.4-0.7,0.1-1s-0.7-0.4-1-0.1C13.7,7.8,13.7,8.2,13.9,8.4"/>
			</defs>
			<clipPath id="SVGID_32_">
				<use xlink:href="#SVGID_31_"  style="overflow:visible;"/>
			</clipPath>
			
				<rect x="13.5" y="7.1" transform="matrix(0.7951 -0.6064 0.6064 0.7951 -1.8899 10.4225)" class="st8" width="1.9" height="1.9"/>
		</g>
	</g>
	<g>
		<g>
			<path id="SVGID_19_" class="st0" d="M8.9,14c0-0.4-0.3-0.7-0.7-0.7c-0.4,0-0.7,0.3-0.7,0.7c0,0.4,0.3,0.7,0.7,0.7
				C8.6,14.7,8.9,14.4,8.9,14"/>
		</g>
		<g>
			<defs>
				<path id="SVGID_33_" d="M7.8,14.4c0.2,0.3,0.7,0.4,1,0.1c0.3-0.2,0.4-0.7,0.1-1c-0.2-0.3-0.7-0.4-1-0.1
					C7.6,13.7,7.5,14.1,7.8,14.4"/>
			</defs>
			<clipPath id="SVGID_34_">
				<use xlink:href="#SVGID_33_"  style="overflow:visible;"/>
			</clipPath>
			<rect x="7.4" y="13.1" transform="matrix(0.7951 -0.6064 0.6064 0.7951 -6.8312 7.927)" class="st9" width="1.9" height="1.9"/>
		</g>
	</g>
	<g>
		<g>
			<path id="SVGID_21_" class="st0" d="M6.6,22.3c0-0.4-0.3-0.7-0.7-0.7c-0.4,0-0.7,0.3-0.7,0.7c0,0.4,0.3,0.7,0.7,0.7
				C6.3,23,6.6,22.7,6.6,22.3"/>
		</g>
		<g>
			<defs>
				<path id="SVGID_35_" d="M5.4,22.7c0.2,0.3,0.7,0.4,1,0.1s0.4-0.7,0.1-1c-0.2-0.3-0.7-0.4-1-0.1C5.2,21.9,5.2,22.4,5.4,22.7"/>
			</defs>
			<clipPath id="SVGID_36_">
				<use xlink:href="#SVGID_35_"  style="overflow:visible;"/>
			</clipPath>
			<rect x="5" y="21.4" transform="matrix(0.7951 -0.6064 0.6064 0.7951 -12.3182 8.1829)" class="st10" width="1.9" height="1.9"/>
		</g>
	</g>
	<g>
		<g>
			<path id="SVGID_23_" class="st0" d="M8.7,30.6c0-0.4-0.3-0.7-0.7-0.7c-0.4,0-0.7,0.3-0.7,0.7c0,0.4,0.3,0.7,0.7,0.7
				C8.4,31.2,8.7,30.9,8.7,30.6"/>
		</g>
		<g>
			<defs>
				<path id="SVGID_37_" d="M7.5,31c0.2,0.3,0.7,0.4,1,0.1c0.3-0.2,0.4-0.7,0.1-1c-0.2-0.3-0.7-0.4-1-0.1C7.4,30.3,7.3,30.7,7.5,31"
					/>
			</defs>
			<clipPath id="SVGID_38_">
				<use xlink:href="#SVGID_37_"  style="overflow:visible;"/>
			</clipPath>
			
				<rect x="7.1" y="29.7" transform="matrix(0.7951 -0.6064 0.6064 0.7951 -16.9148 11.1572)" class="st11" width="1.9" height="1.9"/>
		</g>
	</g>
	<g>
		<g>
			<path id="SVGID_25_" class="st0" d="M14.7,36.7c0-0.4-0.3-0.7-0.7-0.7c-0.4,0-0.7,0.3-0.7,0.7c0,0.4,0.3,0.7,0.7,0.7
				C14.4,37.4,14.7,37.1,14.7,36.7"/>
		</g>
		<g>
			<defs>
				<path id="SVGID_39_" d="M13.5,37.2c0.2,0.3,0.7,0.4,1,0.1c0.3-0.2,0.4-0.7,0.1-1s-0.7-0.4-1-0.1S13.3,36.9,13.5,37.2"/>
			</defs>
			<clipPath id="SVGID_40_">
				<use xlink:href="#SVGID_39_"  style="overflow:visible;"/>
			</clipPath>
			
				<rect x="13.1" y="35.7" transform="matrix(0.7951 -0.6064 0.6064 0.7951 -19.3744 16.0454)" class="st12" width="1.9" height="1.9"/>
		</g>
	</g>
	<g>
		<g>
			<path id="SVGID_27_" class="st0" d="M35.3,37.7c0.3-0.3,0.4-0.7,0.1-1c-0.2-0.3-0.7-0.3-0.9-0.1c-3.4,3-7.8,4.5-12.3,4.4
				C12,40.9,3.9,32.4,4,22.2C4.2,12,12.6,3.9,22.8,4S41.1,12.6,41,22.8c-0.1,4.5-1.7,8.8-4.8,12.1c-0.2,0.3-0.1,0.7,0.1,0.9
				c0.3,0.3,0.7,0.2,1-0.1c3.3-3.6,5-8.1,5.1-12.9c0.1-5.3-1.9-10.3-5.6-14.1c-3.7-3.9-8.6-5.9-13.9-6C17.6,2.6,12.6,4.7,8.8,8.3
				c-3.9,3.7-5.9,8.6-6,13.9c-0.1,5.3,1.9,10.3,5.6,14.1c3.7,3.9,8.6,5.9,13.9,6C27,42.5,31.6,40.7,35.3,37.7"/>
		</g>
		<g>
			<defs>
				<path id="SVGID_41_" d="M3.1,18.5c-0.1,0.4,0.1,0.8,0.5,0.9c0.3,0.1,0.7-0.2,0.8-0.5c0.9-4.4,3.3-8.3,6.9-11.1
					c8.1-6.2,19.7-4.6,25.9,3.5s4.6,19.7-3.5,25.9S14,41.8,7.8,33.7c-2.7-3.6-4.1-8-3.7-12.5c0-0.4-0.3-0.6-0.6-0.7
					c-0.4-0.1-0.7,0.3-0.7,0.7c-0.4,4.8,1.1,9.5,4,13.3c3.2,4.2,7.9,6.9,13.1,7.6c5.3,0.7,10.4-0.7,14.6-3.9
					c4.2-3.2,6.9-7.9,7.6-13.1c0.7-5.3-0.7-10.4-3.9-14.6S30.2,3.7,25.1,3c-5.3-0.7-10.4,0.7-14.6,3.9C6.6,9.6,4,13.8,3.1,18.5"/>
			</defs>
			<clipPath id="SVGID_42_">
				<use xlink:href="#SVGID_41_"  style="overflow:visible;"/>
			</clipPath>
			
				<rect x="-5.4" y="-5.4" transform="matrix(0.7951 -0.6064 0.6064 0.7951 -9.0437 18.2579)" class="st13" width="55.8" height="55.8"/>
		</g>
	</g>
</g>
</svg>
