<?xml version="1.0" encoding="utf-8"?>
<!-- Generator: Adobe Illustrator 22.0.1, SVG Export Plug-In . SVG Version: 6.00 Build 0)  -->
<svg version="1.1" id="Слой_1" xmlns="http://www.w3.org/2000/svg" xmlns:xlink="http://www.w3.org/1999/xlink" x="0px" y="0px"
	 viewBox="0 0 593 651" style="enable-background:new 0 0 593 651;" xml:space="preserve">
<style type="text/css">
	.st0{fill:url(#SVGID_1_);}
	.st1{fill:url(#SVGID_2_);}
	.st2{fill:url(#SVGID_3_);}
	.st3{fill:url(#SVGID_4_);}
	.st4{fill:url(#SVGID_5_);}
	.st5{fill:url(#SVGID_6_);}
	.st6{fill:url(#SVGID_7_);}
	.st7{fill:url(#SVGID_8_);}
</style>
<g>
	<g>
		<linearGradient id="SVGID_1_" gradientUnits="userSpaceOnUse" x1="570.7405" y1="324.0521" x2="-23.2594" y2="322.0521">
			<stop  offset="0" style="stop-color:#939598"/>
			<stop  offset="0.1429" style="stop-color:#ECEEEF"/>
			<stop  offset="0.1597" style="stop-color:#DFE0E1"/>
			<stop  offset="0.2195" style="stop-color:#B4B5B6"/>
			<stop  offset="0.2773" style="stop-color:#939394"/>
			<stop  offset="0.3318" style="stop-color:#7B7A7C"/>
			<stop  offset="0.3819" style="stop-color:#6C6B6D"/>
			<stop  offset="0.4231" style="stop-color:#676668"/>
			<stop  offset="0.5028" style="stop-color:#878789"/>
			<stop  offset="0.6773" style="stop-color:#D8DADC"/>
			<stop  offset="0.7363" style="stop-color:#F5F8F9"/>
			<stop  offset="0.838" style="stop-color:#D7DADC"/>
			<stop  offset="1" style="stop-color:#ABADB2"/>
		</linearGradient>
		<path class="st0" d="M378.6,235.5c-4-89.1-77.6-160.4-167.6-160.4c-92.6,0-168,75.4-168,168c0,90.1,71.3,163.6,160.4,167.6
			c4,89.1,77.6,160.4,167.6,160.4c92.6,0,168-75.4,168-168C539,313,467.7,239.5,378.6,235.5z M59,243.1c0-83.8,68.2-152,152-152
			s152,68.2,152,152s-68.2,152-152,152S59,326.9,59,243.1z M371,555.1c-81.3,0-147.6-64.1-151.6-144.4
			c85.9-4.3,154.9-73.3,159.2-159.2c80.3,4,144.4,70.4,144.4,151.6C523,486.9,454.8,555.1,371,555.1z"/>
	</g>
</g>
<g>
	<g>
		<linearGradient id="SVGID_2_" gradientUnits="userSpaceOnUse" x1="571.0087" y1="244.4303" x2="-22.9913" y2="242.4303">
			<stop  offset="0" style="stop-color:#939598"/>
			<stop  offset="0.1429" style="stop-color:#ECEEEF"/>
			<stop  offset="0.1597" style="stop-color:#DFE0E1"/>
			<stop  offset="0.2195" style="stop-color:#B4B5B6"/>
			<stop  offset="0.2773" style="stop-color:#939394"/>
			<stop  offset="0.3318" style="stop-color:#7B7A7C"/>
			<stop  offset="0.3819" style="stop-color:#6C6B6D"/>
			<stop  offset="0.4231" style="stop-color:#676668"/>
			<stop  offset="0.5028" style="stop-color:#878789"/>
			<stop  offset="0.6773" style="stop-color:#D8DADC"/>
			<stop  offset="0.7363" style="stop-color:#F5F8F9"/>
			<stop  offset="0.838" style="stop-color:#D7DADC"/>
			<stop  offset="1" style="stop-color:#ABADB2"/>
		</linearGradient>
		<path class="st1" d="M266.5,187.1h-1.1c-7.3,0-13.8,4.9-15.9,12l-13,44l-1.6-0.5v-47c0-9.1-7.4-16.5-16.5-16.5
			c-8.3,0-15.3,6.2-16.4,14.5L188,306.7l-1-0.1v-127c0-9.1-7.4-16.5-16.6-16.5c-8.2,0-15.2,6.1-16.3,14.2l-12,84.1
			c-1.1,7.8-7.9,13.7-15.8,13.7H123v16h3.2c15.8,0,29.4-11.8,31.7-27.5l12.5-84.5l0.6,0.5v127c0,9.1,7.4,16.5,16.5,16.5
			c8.3,0,15.3-6.2,16.4-14.5L218,195.5l1,0.1v47c0,9.1,7.4,16.5,16.5,16.5h1.1c7.3,0,13.8-4.9,15.9-12l13-44l1.6,0.5v55.5h16v-55.5
			C283,194.5,275.6,187.1,266.5,187.1z"/>
	</g>
</g>
<g>
	<g>
		<linearGradient id="SVGID_3_" gradientUnits="userSpaceOnUse" x1="570.8751" y1="284.1064" x2="-23.1115" y2="282.1065">
			<stop  offset="0" style="stop-color:#939598"/>
			<stop  offset="0.1429" style="stop-color:#ECEEEF"/>
			<stop  offset="0.1597" style="stop-color:#DFE0E1"/>
			<stop  offset="0.2195" style="stop-color:#B4B5B6"/>
			<stop  offset="0.2773" style="stop-color:#939394"/>
			<stop  offset="0.3318" style="stop-color:#7B7A7C"/>
			<stop  offset="0.3819" style="stop-color:#6C6B6D"/>
			<stop  offset="0.4231" style="stop-color:#676668"/>
			<stop  offset="0.5028" style="stop-color:#878789"/>
			<stop  offset="0.6773" style="stop-color:#D8DADC"/>
			<stop  offset="0.7363" style="stop-color:#F5F8F9"/>
			<stop  offset="0.838" style="stop-color:#D7DADC"/>
			<stop  offset="1" style="stop-color:#ABADB2"/>
		</linearGradient>
		<rect x="267" y="275.1" class="st2" width="16" height="16"/>
	</g>
</g>
<g>
	<g>
		<linearGradient id="SVGID_4_" gradientUnits="userSpaceOnUse" x1="121.128" y1="220.0502" x2="347" y2="220.0502">
			<stop  offset="0" style="stop-color:#00F9FF"/>
			<stop  offset="1" style="stop-color:#0078FF"/>
		</linearGradient>
		<path class="st3" d="M211,107.1c-33,0-65,12.1-89.9,34.1l10.6,12c22-19.4,50.2-30.1,79.3-30.1c66.2,0,120,53.8,120,120
			c0,29.1-10.7,57.3-30.1,79.3l12,10.6c22-24.9,34.1-56.8,34.1-89.9C347,168.1,286,107.1,211,107.1z"/>
	</g>
</g>
<g>
	<g>
		<linearGradient id="SVGID_5_" gradientUnits="userSpaceOnUse" x1="75" y1="266.1702" x2="300.872" y2="266.1702">
			<stop  offset="0" style="stop-color:#00F9FF"/>
			<stop  offset="1" style="stop-color:#0078FF"/>
		</linearGradient>
		<path class="st4" d="M290.3,333c-22,19.4-50.2,30.1-79.3,30.1c-66.2,0-120-53.8-120-120c0-29.1,10.7-57.3,30.1-79.3l-12-10.6
			c-22,24.9-34.1,56.8-34.1,89.9c0,75,61,136,136,136c33,0,65-12.1,89.9-34.1L290.3,333z"/>
	</g>
</g>
<g>
	<g>
		<linearGradient id="SVGID_6_" gradientUnits="userSpaceOnUse" x1="236.944" y1="404.0862" x2="507" y2="404.0862">
			<stop  offset="0" style="stop-color:#00F9FF"/>
			<stop  offset="1" style="stop-color:#0078FF"/>
		</linearGradient>
		<path class="st5" d="M393.1,269.1l-2.6,15.8c58.2,9.6,100.5,59.3,100.5,118.3c0,66.2-53.8,120-120,120
			c-59,0-108.7-42.2-118.3-100.5l-15.8,2.6c10.8,66,67.2,113.9,134.1,113.9c75,0,136-61,136-136C507,336.3,459.1,279.9,393.1,269.1z
			"/>
	</g>
</g>
<g>
	<g>
		<linearGradient id="SVGID_7_" gradientUnits="userSpaceOnUse" x1="293.48" y1="472.3102" x2="314.504" y2="472.3102">
			<stop  offset="0" style="stop-color:#00F9FF"/>
			<stop  offset="1" style="stop-color:#0078FF"/>
		</linearGradient>
		<path class="st6" d="M305.4,461.8l-11.9,10.7c3.3,3.7,6.9,7.2,10.7,10.4l10.3-12.3C311.3,467.9,308.2,464.9,305.4,461.8z"/>
	</g>
</g>
<g>
	<g>
		<linearGradient id="SVGID_8_" gradientUnits="userSpaceOnUse" x1="316.368" y1="479.4382" x2="457.664" y2="479.4382">
			<stop  offset="0" style="stop-color:#00F9FF"/>
			<stop  offset="1" style="stop-color:#0078FF"/>
		</linearGradient>
		<path class="st7" d="M444.3,451.8c-16.4,24.6-43.8,39.3-73.3,39.3c-16.4,0-32.4-4.5-46.2-13.1l-8.4,13.6
			c16.4,10.1,35.3,15.5,54.6,15.5c34.9,0,67.3-17.4,86.7-46.5L444.3,451.8z"/>
	</g>
</g>
</svg>
