<?xml version="1.0" encoding="utf-8"?>
<!-- Generator: Adobe Illustrator 19.1.0, SVG Export Plug-In . SVG Version: 6.00 Build 0)  -->
<svg version="1.1" id="Layer_1" xmlns="http://www.w3.org/2000/svg" xmlns:xlink="http://www.w3.org/1999/xlink" x="0px" y="0px"
	 preserveAspectRatio="none" viewBox="0 0 1867 180" style="enable-background:new 0 0 1867 180;" xml:space="preserve">
<style type="text/css">
	.st0{fill:#CCCCCC;}
</style>
<g>
	<path class="st0" d="M31.9,64.6v10.7h-4.6V64.1c0-13.8-3.1-24.3-11.2-24.3c-8.1,0-11.2,10.5-11.2,24.3v67.1
		c0,13.8,3.1,24.1,11.2,24.1c8.1,0,11.2-10.3,11.2-24.1v-15.3h4.6v14.7c0,18.6-4.6,32.6-16,32.6s-16-14-16-32.6v-66
		C0,46,4.6,32,16,32S31.9,46,31.9,64.6z"/>
	<path class="st0" d="M42.7,133.6L39,162.1h-4.4L50.7,32.9h7.1l16.5,129.2h-4.9l-3.7-28.6H42.7z M43.4,126.2H65L54.1,42.7
		L43.4,126.2z"/>
	<path class="st0" d="M102.3,161.9h-4.9L81.8,47.9v114.3h-4.3v-129h7l15.5,114.1l15.4-114.1h7v129h-4.6V47.5L102.3,161.9z"/>
	<path class="st0" d="M126.2,64.6c0-18.8,5-32.6,16.2-32.6c11.4,0,16.4,13.8,16.4,32.6v66c0,18.8-5,32.6-16.4,32.6
		c-11.2,0-16.2-13.8-16.2-32.6V64.6z M131.1,131.2c0,14,3.2,24.3,11.3,24.3c8.2,0,11.5-10.3,11.5-24.3V64.1c0-14-3.3-24.3-11.5-24.3
		c-8.1,0-11.3,10.3-11.3,24.3V131.2z"/>
	<path class="st0" d="M177.3,40.8l-1.9,89.8c-0.4,17.5-2.1,31.3-13,31.7h-1v-7.7c8.3,0,8.9-10.9,9.1-23.8l2.2-97.7h27.6v129h-5V40.8
		H177.3z"/>
	<path class="st0" d="M209.5,33.1v129h-4.9v-129H209.5z"/>
	<path class="st0" d="M223.6,101.5l-5.1,14v46.6h-4.9v-129h4.9v68.2l24.1-68.2h5.1l-21.1,60.1l22.5,68.9H244L223.6,101.5z"/>
	<path class="st0" d="M270.9,138.2c-2.4,15.5-5.5,24.7-16.3,24v-7.6c6.8,0.2,9.2-5,11-15.1l3.1-15.7l-17.7-90.7h5l8.7,45.5l6.4,34.5
		l5.9-34.7l8-45.3h5.1L270.9,138.2z"/>
	<path class="st0" d="M308.5,33.1c11.1,0,15.1,9.6,15.1,27.5v7.4c0,14-2.2,22.7-9.7,25.4c8,2.8,11.1,13.1,11.1,27.6v11.2
		c0,18.6-4.9,29.9-16.2,29.9h-15.8v-129H308.5z M306,90.1c8.7,0,12.7-4.1,12.7-20.5v-8.3c0-13.5-2.4-20.5-10.4-20.5h-10.6v49.2H306z
		 M308.8,154.4c8.1,0,11.3-7.9,11.3-22.3v-11.6c0-16.8-4.3-22.7-13.1-22.7h-9.2v56.6H308.8z"/>
	<path class="st0" d="M335.7,133.6l-3.7,28.6h-4.4l16.2-129.2h7.1l16.5,129.2h-4.9l-3.7-28.6H335.7z M336.5,126.2H358l-10.9-83.5
		L336.5,126.2z"/>
	<path class="st0" d="M375.3,101.5v60.6h-4.9v-129h4.9v60.6h23V33.1h5v129h-5v-60.6H375.3z"/>
	<path class="st0" d="M412.4,101.5v60.6h-4.9v-129h4.9v60.6h23V33.1h5v129h-5v-60.6H412.4z"/>
	<path class="st0" d="M464.4,104.4c-8.5,0-13.8,4.8-13.8,21.9v20.3c0,7-0.3,11.6-1.6,15.5h-5.1c1.6-4.2,1.8-10.1,1.8-15.5v-20.1
		c0-14,3.1-23.4,10.7-26.4c-7.3-2.9-10.7-11.6-10.7-26.7V62.2c0-18.2,4.5-29.1,15.8-29.1H477v129h-4.9v-57.7H464.4z M461.7,40.8
		c-8,0-11.1,8.3-11.1,22.1v12.2c0,17.3,5.1,21.6,13.7,21.6h7.8V40.8H461.7z"/>
	<path class="st0" d="M518.2,161.9h-4.9L497.7,47.9v114.3h-4.3v-129h7l15.5,114.1l15.4-114.1h7v129h-4.6V47.5L518.2,161.9z"/>
	<path class="st0" d="M542.1,64.6c0-18.8,5-32.6,16.2-32.6c11.4,0,16.4,13.8,16.4,32.6v66c0,18.8-5,32.6-16.4,32.6
		c-11.2,0-16.2-13.8-16.2-32.6V64.6z M547,131.2c0,14,3.2,24.3,11.3,24.3c8.2,0,11.5-10.3,11.5-24.3V64.1c0-14-3.3-24.3-11.5-24.3
		c-8.1,0-11.3,10.3-11.3,24.3V131.2z"/>
	<path class="st0" d="M614.5,97.6l-5,14.7v49.8h-4.9v-49.9l-4.9-14.6l-17.5,64.5h-5.1l19.3-72.4l-18.5-56.6h5l21.7,66.4V33.1h4.9
		v66.4l21.7-66.4h5.1l-18.4,56.4l19.1,72.6h-5L614.5,97.6z"/>
	<path class="st0" d="M665.1,92.8v7.7h-20.2v53.8h24.3v7.7h-29.2v-129h29.2v7.7h-24.3v52H665.1z"/>
	<path class="st0" d="M700.5,88c11.4,0,17.2,8.1,17.2,28.8v14.6c0,19.5-4.9,30.8-16.4,30.8h-16.3v-129H715v7.7h-25V88H700.5z
		 M701.4,154.4c8.2,0,11.5-7.9,11.5-22.5v-15.7c0-15.9-4.1-20.3-12.4-20.3h-10.6v58.4H701.4z"/>
	<path class="st0" d="M740.4,138.2c-2.4,15.5-5.5,24.7-16.3,24v-7.6c6.8,0.2,9.2-5,11-15.1l3.1-15.7l-17.7-90.7h5l8.7,45.5l6.4,34.5
		l5.9-34.7l8-45.3h5.1L740.4,138.2z"/>
	<path class="st0" d="M776.4,162.1V40.8h-15.1v-7.7h35.1v7.7h-15.1v121.3H776.4z"/>
	<path class="st0" d="M816.7,101.5l-12.2,60.6h-5.3v-129h4.4v110.4l10.8-52.7l11.9-57.7h5.8v129h-4.4V48L816.7,101.5z"/>
	<path class="st0" d="M853.4,33.1v121.3h18.3V33.1h4.9v121.3h18.3V33.1h4.9v129h-51.1v-129H853.4z"/>
	<path class="st0" d="M913.8,101.5l-5.1,14v46.6h-4.9v-129h4.9v68.2l24.1-68.2h5.1l-21.1,60.1l22.5,68.9h-5.1L913.8,101.5z"/>
	<path class="st0" d="M947.2,33.1v129h-4.9v-129H947.2z"/>
	<path class="st0" d="M990.5,180v-17.9h-35.3V180h-4.8v-25.6h5.1c3-5.3,3.5-12.4,3.7-20.6l3-100.6h27v121.3h6.1V180H990.5z
		 M964,133.7c-0.3,8.8-0.7,15.5-3.5,20.6h23.8V40.8h-17.5L964,133.7z"/>
	<path class="st0" d="M1013.5,40.8l-1.9,89.8c-0.4,17.5-2.1,31.3-13,31.7h-1v-7.7c8.3,0,8.9-10.9,9.1-23.8l2.2-97.7h27.6v129h-5
		V40.8H1013.5z"/>
	<path class="st0" d="M1058.3,101.5l-12.1,60.6h-5.3v-129h4.4v110.4l10.8-52.7l11.9-57.7h5.8v129h-4.4V48L1058.3,101.5z"/>
	<path class="st0" d="M1093.5,33.1c11.1,0,15.1,9.6,15.1,27.5v7.4c0,14-2.2,22.7-9.7,25.4c8,2.8,11.1,13.1,11.1,27.6v11.2
		c0,18.6-4.9,29.9-16.2,29.9H1078v-129H1093.5z M1091.1,90.1c8.7,0,12.7-4.1,12.7-20.5v-8.3c0-13.5-2.4-20.5-10.4-20.5h-10.6v49.2
		H1091.1z M1093.8,154.4c8.1,0,11.3-7.9,11.3-22.3v-11.6c0-16.8-4.3-22.7-13.1-22.7h-9.2v56.6H1093.8z"/>
	<path class="st0" d="M1131.1,101.5l-12.1,60.6h-5.3v-129h4.4v110.4l10.8-52.7l11.9-57.7h5.8v129h-4.4V48L1131.1,101.5z"/>
	<path class="st0" d="M1175.6,161.9h-4.9l-15.6-114.1v114.3h-4.3v-129h7l15.5,114.1l15.4-114.1h7v129h-4.6V47.5L1175.6,161.9z"/>
	<path class="st0" d="M1251.1,180v-17.9h-35.3V180h-4.8v-25.6h5.1c3-5.3,3.5-12.4,3.7-20.6l3-100.6h27v121.3h6.1V180H1251.1z
		 M1224.6,133.7c-0.3,8.8-0.7,15.5-3.5,20.6h23.8V40.8h-17.5L1224.6,133.7z"/>
	<path class="st0" d="M1274.1,40.8l-1.9,89.8c-0.4,17.5-2.1,31.3-13,31.7h-1v-7.7c8.3,0,8.9-10.9,9.1-23.8l2.2-97.7h27.6v129h-5
		V40.8H1274.1z"/>
	<path class="st0" d="M1321.3,104.4c-8.5,0-13.8,4.8-13.8,21.9v20.3c0,7-0.3,11.6-1.6,15.5h-5.1c1.6-4.2,1.8-10.1,1.8-15.5v-20.1
		c0-14,3.1-23.4,10.7-26.4c-7.3-2.9-10.7-11.6-10.7-26.7V62.2c0-18.2,4.5-29.1,15.8-29.1h15.4v129h-4.9v-57.7H1321.3z M1318.5,40.8
		c-8,0-11.1,8.3-11.1,22.1v12.2c0,17.3,5.1,21.6,13.7,21.6h7.8V40.8H1318.5z"/>
	<path class="st0" d="M1365.7,33.1c11.1,0,15.1,9.6,15.1,27.5v7.4c0,14-2.2,22.7-9.7,25.4c8,2.8,11.1,13.1,11.1,27.6v11.2
		c0,18.6-4.9,29.9-16.2,29.9h-15.8v-129H1365.7z M1363.3,90.1c8.7,0,12.7-4.1,12.7-20.5v-8.3c0-13.5-2.4-20.5-10.4-20.5h-10.6v49.2
		H1363.3z M1366,154.4c8.1,0,11.3-7.9,11.3-22.3v-11.6c0-16.8-4.3-22.7-13.1-22.7h-9.2v56.6H1366z"/>
	<path class="st0" d="M1393,133.6l-3.7,28.6h-4.4L1401,32.9h7.1l16.5,129.2h-4.9l-3.7-28.6H1393z M1393.7,126.2h21.6l-10.9-83.5
		L1393.7,126.2z"/>
	<path class="st0" d="M1432.6,33.1v121.3h18.3V33.1h4.9v121.3h18.3V33.1h4.9v129h-51.1v-129H1432.6z"/>
	<path class="st0" d="M1482.8,64.6c0-18.8,5-32.6,16.2-32.6c11.4,0,16.4,13.8,16.4,32.6v66c0,18.8-5,32.6-16.4,32.6
		c-11.2,0-16.2-13.8-16.2-32.6V64.6z M1487.6,131.2c0,14,3.2,24.3,11.3,24.3c8.2,0,11.5-10.3,11.5-24.3V64.1
		c0-14-3.3-24.3-11.5-24.3c-8.1,0-11.3,10.3-11.3,24.3V131.2z"/>
	<path class="st0" d="M1524,40.8v121.3h-4.9v-129h28.4v7.7H1524z"/>
	<path class="st0" d="M1551.1,64.6c0-18.8,5-32.6,16.2-32.6c11.4,0,16.4,13.8,16.4,32.6v66c0,18.8-5,32.6-16.4,32.6
		c-11.2,0-16.2-13.8-16.2-32.6V64.6z M1556,131.2c0,14,3.2,24.3,11.3,24.3c8.2,0,11.5-10.3,11.5-24.3V64.1c0-14-3.3-24.3-11.5-24.3
		c-8.1,0-11.3,10.3-11.3,24.3V131.2z"/>
	<path class="st0" d="M1631.3,64.6v3.3c0,12.7-3.6,22.9-10,26.5c6.8,3.3,10,13.6,10,26.2v10c0,18.8-4.6,32.6-16,32.6
		c-11.3,0-16-13.8-16-32.6v-10.7h4.6v11.2c0,13.8,3.1,24.3,11.2,24.3c8.1,0,11.2-10.3,11.2-25.1v-10c0-13.1-4.2-21.7-11.4-21.7h-4.1
		V91h4.4c6.6,0,11.1-9.4,11.1-21.4v-4.8c0-14.7-3.1-25.1-11.2-25.1c-8.1,0-11.3,10.3-11.3,24.3v7h-4.4v-6.6
		c0-18.6,4.5-32.4,15.8-32.4C1626.7,32,1631.3,45.8,1631.3,64.6z"/>
	<path class="st0" d="M1674.4,180v-17.9h-35.3V180h-4.8v-25.6h5.1c3-5.3,3.5-12.4,3.7-20.6l3-100.6h27v121.3h6.1V180H1674.4z
		 M1647.9,133.7c-0.3,8.8-0.7,15.5-3.5,20.6h23.8V40.8h-17.5L1647.9,133.7z"/>
	<path class="st0" d="M1682.4,64.6c0-18.8,5-32.6,16.2-32.6c11.4,0,16.4,13.8,16.4,32.6v66c0,18.8-5,32.6-16.4,32.6
		c-11.2,0-16.2-13.8-16.2-32.6V64.6z M1687.3,131.2c0,14,3.2,24.3,11.3,24.3c8.2,0,11.5-10.3,11.5-24.3V64.1
		c0-14-3.3-24.3-11.5-24.3c-8.1,0-11.3,10.3-11.3,24.3V131.2z"/>
	<path class="st0" d="M1734.1,33.1c11.4,0,15.8,12.5,15.8,31.3v14c0,20.5-5.4,30.6-17.1,30.6h-9.2v53.1h-4.9v-129H1734.1z
		 M1732.8,101.3c8.6,0,12.3-6.6,12.3-22.3V63.9c0-14-2.7-23-11-23h-10.5v60.5H1732.8z"/>
	<path class="st0" d="M1752.7,64.6c0-18.8,5-32.6,16.2-32.6c11.4,0,16.4,13.8,16.4,32.6v66c0,18.8-5,32.6-16.4,32.6
		c-11.2,0-16.2-13.8-16.2-32.6V64.6z M1757.6,131.2c0,14,3.2,24.3,11.3,24.3c8.2,0,11.5-10.3,11.5-24.3V64.1
		c0-14-3.3-24.3-11.5-24.3c-8.1,0-11.3,10.3-11.3,24.3V131.2z"/>
	<path class="st0" d="M1804.6,33.1c11.1,0,15.1,9.6,15.1,27.5v7.4c0,14-2.2,22.7-9.7,25.4c8,2.8,11.1,13.1,11.1,27.6v11.2
		c0,18.6-4.9,29.9-16.2,29.9H1789v-129H1804.6z M1802.1,90.1c8.7,0,12.7-4.1,12.7-20.5v-8.3c0-13.5-2.4-20.5-10.4-20.5h-10.6v49.2
		H1802.1z M1804.9,154.4c8.1,0,11.3-7.9,11.3-22.3v-11.6c0-16.8-4.3-22.7-13.1-22.7h-9.2v56.6H1804.9z"/>
	<path class="st0" d="M1827.4,63.3h-2.1l2.1-14h-1.6V33.1h4.6v15.5L1827.4,63.3z"/>
	<path class="st0" d="M1854.4,104.4c-8.5,0-13.8,4.8-13.8,21.9v20.3c0,7-0.3,11.6-1.6,15.5h-5.1c1.6-4.2,1.8-10.1,1.8-15.5v-20.1
		c0-14,3.1-23.4,10.7-26.4c-7.3-2.9-10.7-11.6-10.7-26.7V62.2c0-18.2,4.5-29.1,15.8-29.1h15.4v129h-4.9v-57.7H1854.4z M1851.7,40.8
		c-8,0-11.1,8.3-11.1,22.1v12.2c0,17.3,5.1,21.6,13.7,21.6h7.8V40.8H1851.7z"/>
</g>
<g>
	<path class="st0" d="M0,21.4V6h7.4c0.8,0,1.5,0.1,2.1,0.4c0.6,0.3,1.2,0.7,1.7,1.1c0.5,0.5,0.8,1,1.1,1.6c0.3,0.6,0.4,1.2,0.4,1.8
		c0,0.6-0.1,1.3-0.4,1.8c-0.3,0.6-0.6,1.1-1.1,1.6c-0.5,0.5-1,0.8-1.6,1.1c-0.6,0.3-1.3,0.4-2.1,0.4H1.8v5.7H0z M1.8,14.4h5.7
		c0.5,0,1-0.1,1.4-0.3s0.8-0.5,1.1-0.8c0.3-0.3,0.5-0.7,0.7-1.1c0.2-0.4,0.3-0.9,0.3-1.3c0-0.5-0.1-0.9-0.3-1.4s-0.5-0.8-0.8-1.1
		C9.5,8,9.2,7.8,8.7,7.6C8.3,7.4,7.8,7.3,7.3,7.3H1.8V14.4z"/>
	<path class="st0" d="M26.7,20.1v1.4h-12V6h11.8v1.4h-10v5.6h8.7v1.3h-8.7v5.9H26.7z"/>
	<path class="st0" d="M30.8,12.8h2.7L39.4,6h2l-6.3,7.4l6.9,8h-2l-6.3-7.3h-2.9v7.3h-1.7V6h1.7V12.8z"/>
	<path class="st0" d="M47.3,10c-0.2,2-0.5,3.8-0.8,5.2c-0.3,1.5-0.7,2.6-1.2,3.6c-0.5,0.9-1,1.6-1.7,2c-0.6,0.4-1.4,0.6-2.3,0.6
		l-0.3-1.5c0.3,0,0.7-0.1,1-0.2c0.3-0.1,0.6-0.3,0.9-0.6c0.3-0.3,0.6-0.6,0.8-1.1c0.3-0.5,0.5-1.1,0.7-1.8c0.2-0.7,0.4-1.7,0.6-2.7
		c0.2-1.1,0.3-2.3,0.5-3.8L46,6H55v15.5h-1.7V7.3h-5.7L47.3,10z"/>
	<path class="st0" d="M64.2,6h1.5l7.4,15.5h-1.9l-2.3-4.8h-8l-2.3,4.8h-1.9L64.2,6z M68.5,15.4l-3.6-7.6l-3.6,7.6H68.5z"/>
	<path class="st0" d="M90.5,21.4V8.7L84,18.5h-1l-6.5-9.8v12.7h-1.8V6h1.8l7,10.6l7-10.6h1.8v15.5H90.5z"/>
	<path class="st0" d="M101.4,6h1.5l7.4,15.5h-1.9l-2.3-4.8h-8l-2.3,4.8h-1.9L101.4,6z M105.7,15.4l-3.6-7.6l-3.6,7.6H105.7z"/>
	<path class="st0" d="M133.2,21.4V8.7l-6.5,9.8h-1l-6.5-9.8v12.7h-1.8V6h1.8l7,10.6l7-10.6h1.8v15.5H133.2z"/>
	<path class="st0" d="M150.5,20.1v1.4h-12V6h11.8v1.4h-10v5.6h8.7v1.3h-8.7v5.9H150.5z"/>
	<path class="st0" d="M151,20.1h0.4c0.3,0,0.6-0.1,0.9-0.2c0.3-0.1,0.6-0.3,0.8-0.6c0.3-0.3,0.5-0.6,0.7-1.1
		c0.2-0.5,0.4-1.1,0.6-1.8c0.2-0.7,0.4-1.6,0.5-2.7c0.2-1.1,0.3-2.3,0.5-3.8l0.4-4h9.4v14.1h2.5v5.4h-1.6v-4.1h-13.6v4.1H151V20.1z
		 M163.6,20.1V7.3h-6l-0.3,2.7c-0.1,1.5-0.3,2.8-0.5,3.9c-0.2,1.1-0.4,2.1-0.6,2.9c-0.2,0.8-0.5,1.5-0.8,2c-0.3,0.5-0.7,0.9-1.1,1.2
		H163.6z"/>
	<path class="st0" d="M171.4,19.1L182.5,6h1.5v15.5h-1.8v-13l-10.9,13h-1.6V6h1.7V19.1z"/>
	<path class="st0" d="M196.6,6h1.8v15.5h-1.8v-6.7c-0.6,0.2-1.3,0.4-2,0.5c-0.7,0.1-1.6,0.2-2.5,0.2c-1,0-1.9-0.1-2.6-0.4
		c-0.7-0.3-1.3-0.6-1.7-1.1c-0.4-0.5-0.8-1-1-1.7s-0.3-1.4-0.3-2.2V6h1.8v3.8c0,0.8,0.1,1.4,0.2,2c0.1,0.5,0.4,1,0.7,1.3
		c0.3,0.3,0.7,0.6,1.3,0.7c0.5,0.2,1.2,0.2,1.9,0.2c1,0,1.8-0.1,2.6-0.3c0.8-0.2,1.3-0.4,1.7-0.6V6z"/>
	<path class="st0" d="M216,6v15.5h-1.7v-7.2h-10.6v7.2h-1.8V6h1.8v6.9h10.6V6H216z"/>
	<path class="st0" d="M226.8,21.5c-1.2,0-2.4-0.2-3.4-0.7c-1-0.4-1.9-1-2.7-1.8c-0.7-0.7-1.3-1.6-1.7-2.5c-0.4-0.9-0.6-1.9-0.6-2.9
		c0-1,0.2-2,0.6-3c0.4-0.9,1-1.8,1.8-2.5c0.8-0.7,1.6-1.3,2.7-1.7c1-0.4,2.1-0.6,3.3-0.6c1.2,0,2.4,0.2,3.4,0.7
		c1,0.5,1.9,1.1,2.6,1.8c0.7,0.7,1.3,1.6,1.7,2.5c0.4,0.9,0.6,1.9,0.6,2.9c0,1-0.2,2-0.6,3c-0.4,0.9-1,1.8-1.8,2.5
		c-0.7,0.7-1.6,1.3-2.7,1.7C229.1,21.3,228,21.5,226.8,21.5z M220.2,13.7c0,0.8,0.2,1.7,0.5,2.4c0.3,0.8,0.8,1.5,1.4,2.1
		c0.6,0.6,1.3,1.1,2.1,1.4c0.8,0.4,1.7,0.5,2.7,0.5c1,0,1.9-0.2,2.7-0.6c0.8-0.4,1.5-0.9,2.1-1.5s1-1.3,1.3-2.1
		c0.3-0.8,0.5-1.6,0.5-2.4c0-0.8-0.2-1.7-0.5-2.4c-0.3-0.8-0.8-1.5-1.4-2.1c-0.6-0.6-1.3-1.1-2.1-1.4c-0.8-0.4-1.7-0.5-2.7-0.5
		c-1,0-1.9,0.2-2.7,0.6c-0.8,0.4-1.5,0.9-2.1,1.5s-1,1.3-1.3,2.1C220.3,12.1,220.2,12.9,220.2,13.7z"/>
	<path class="st0" d="M247.8,7.3h-8.5v14.1h-1.7V6h10.3V7.3z"/>
	<path class="st0" d="M255.6,21.5c-1.2,0-2.4-0.2-3.4-0.7c-1-0.4-1.9-1-2.7-1.8c-0.7-0.7-1.3-1.6-1.7-2.5c-0.4-0.9-0.6-1.9-0.6-2.9
		c0-1,0.2-2,0.6-3c0.4-0.9,1-1.8,1.8-2.5c0.8-0.7,1.6-1.3,2.7-1.7c1-0.4,2.1-0.6,3.3-0.6c1.2,0,2.4,0.2,3.4,0.7
		c1,0.5,1.9,1.1,2.6,1.8c0.7,0.7,1.3,1.6,1.7,2.5c0.4,0.9,0.6,1.9,0.6,2.9c0,1-0.2,2-0.6,3c-0.4,0.9-1,1.8-1.8,2.5
		c-0.7,0.7-1.6,1.3-2.7,1.7C257.9,21.3,256.8,21.5,255.6,21.5z M249,13.7c0,0.8,0.2,1.7,0.5,2.4c0.3,0.8,0.8,1.5,1.4,2.1
		c0.6,0.6,1.3,1.1,2.1,1.4c0.8,0.4,1.7,0.5,2.7,0.5c1,0,1.9-0.2,2.7-0.6c0.8-0.4,1.5-0.9,2.1-1.5s1-1.3,1.3-2.1
		c0.3-0.8,0.5-1.6,0.5-2.4c0-0.8-0.2-1.7-0.5-2.4c-0.3-0.8-0.8-1.5-1.4-2.1c-0.6-0.6-1.3-1.1-2.1-1.4c-0.8-0.4-1.7-0.5-2.7-0.5
		c-1,0-1.9,0.2-2.7,0.6c-0.8,0.4-1.5,0.9-2.1,1.5c-0.6,0.6-1,1.3-1.3,2.1C249.1,12.1,249,12.9,249,13.7z"/>
	<path class="st0" d="M284.8,17.4c0,0.6-0.1,1.1-0.4,1.6c-0.3,0.5-0.6,0.9-1.1,1.3c-0.5,0.4-1,0.6-1.6,0.8c-0.6,0.2-1.2,0.3-1.9,0.3
		h-8.4V6h8.6c0.6,0,1.2,0.1,1.7,0.3s0.9,0.5,1.3,0.9c0.4,0.4,0.6,0.8,0.8,1.3c0.2,0.5,0.3,0.9,0.3,1.4c0,0.8-0.2,1.5-0.7,2.1
		c-0.5,0.6-1.1,1.1-1.9,1.4c1,0.3,1.8,0.7,2.4,1.5S284.8,16.5,284.8,17.4z M273.2,7.3V13h6.1c0.4,0,0.8-0.1,1.2-0.2
		c0.4-0.2,0.7-0.4,1-0.6c0.3-0.3,0.5-0.6,0.6-0.9c0.2-0.3,0.2-0.7,0.2-1.1c0-0.4-0.1-0.8-0.2-1.1c-0.1-0.3-0.3-0.6-0.6-0.9
		c-0.3-0.3-0.6-0.5-0.9-0.6c-0.4-0.2-0.7-0.2-1.2-0.2H273.2z M283.1,17.2c0-0.4-0.1-0.7-0.2-1.1c-0.2-0.4-0.4-0.7-0.6-0.9
		c-0.3-0.3-0.6-0.5-1-0.7c-0.4-0.2-0.8-0.3-1.2-0.3h-6.8v5.9h6.7c0.5,0,0.9-0.1,1.3-0.2c0.4-0.2,0.7-0.4,1-0.6
		c0.3-0.3,0.5-0.6,0.7-0.9C283,17.9,283.1,17.5,283.1,17.2z"/>
	<path class="st0" d="M289.4,19.1L300.4,6h1.5v15.5h-1.8v-13l-10.9,13h-1.6V6h1.7V19.1z"/>
	<path class="st0" d="M305.4,21.4V6h7.4c0.8,0,1.5,0.1,2.1,0.4c0.6,0.3,1.2,0.7,1.7,1.1c0.5,0.5,0.8,1,1.1,1.6
		c0.3,0.6,0.4,1.2,0.4,1.8c0,0.6-0.1,1.3-0.4,1.8c-0.3,0.6-0.6,1.1-1.1,1.6c-0.5,0.5-1,0.8-1.6,1.1c-0.6,0.3-1.3,0.4-2.1,0.4h-5.8
		v5.7H305.4z M307.2,14.4h5.7c0.5,0,1-0.1,1.4-0.3c0.4-0.2,0.8-0.5,1.1-0.8c0.3-0.3,0.5-0.7,0.7-1.1c0.2-0.4,0.3-0.9,0.3-1.3
		c0-0.5-0.1-0.9-0.3-1.4c-0.2-0.4-0.5-0.8-0.8-1.1c-0.3-0.3-0.7-0.6-1.2-0.8c-0.4-0.2-0.9-0.3-1.4-0.3h-5.6V14.4z"/>
	<path class="st0" d="M327.3,21.5c-1.2,0-2.4-0.2-3.4-0.7s-1.9-1-2.7-1.8c-0.7-0.7-1.3-1.6-1.7-2.5c-0.4-0.9-0.6-1.9-0.6-2.9
		c0-1,0.2-2,0.6-3c0.4-0.9,1-1.8,1.8-2.5c0.8-0.7,1.6-1.3,2.7-1.7c1-0.4,2.1-0.6,3.3-0.6c1.2,0,2.4,0.2,3.4,0.7
		c1,0.5,1.9,1.1,2.6,1.8c0.7,0.7,1.3,1.6,1.7,2.5c0.4,0.9,0.6,1.9,0.6,2.9c0,1-0.2,2-0.6,3c-0.4,0.9-1,1.8-1.8,2.5
		c-0.7,0.7-1.6,1.3-2.7,1.7C329.6,21.3,328.5,21.5,327.3,21.5z M320.7,13.7c0,0.8,0.2,1.7,0.5,2.4c0.3,0.8,0.8,1.5,1.4,2.1
		c0.6,0.6,1.3,1.1,2.1,1.4c0.8,0.4,1.7,0.5,2.7,0.5c1,0,1.9-0.2,2.7-0.6c0.8-0.4,1.5-0.9,2.1-1.5s1-1.3,1.3-2.1
		c0.3-0.8,0.5-1.6,0.5-2.4c0-0.8-0.2-1.7-0.5-2.4s-0.8-1.5-1.4-2.1c-0.6-0.6-1.3-1.1-2.1-1.4c-0.8-0.4-1.7-0.5-2.7-0.5
		c-1,0-1.9,0.2-2.7,0.6c-0.8,0.4-1.5,0.9-2.1,1.5s-1,1.3-1.3,2.1C320.9,12.1,320.7,12.9,320.7,13.7z"/>
	<path class="st0" d="M338.1,6h12.2v1.4h-10.4v5.2h6.2c0.8,0,1.5,0.1,2.2,0.3c0.7,0.2,1.2,0.5,1.7,0.9c0.5,0.4,0.8,0.8,1.1,1.4
		c0.3,0.6,0.4,1.2,0.4,1.9c0,0.7-0.1,1.3-0.4,1.9c-0.3,0.6-0.6,1-1.1,1.4c-0.5,0.4-1,0.7-1.7,0.9c-0.7,0.2-1.4,0.3-2.2,0.3h-7.9V6z
		 M346,20.1c0.6,0,1.1-0.1,1.6-0.2c0.4-0.2,0.8-0.4,1.1-0.7c0.3-0.3,0.5-0.6,0.7-1c0.1-0.4,0.2-0.8,0.2-1.3c0-0.5-0.1-0.9-0.2-1.2
		c-0.1-0.4-0.3-0.7-0.6-1c-0.3-0.3-0.7-0.5-1.1-0.6c-0.5-0.2-1-0.2-1.6-0.2h-6.2v6.2H346z"/>
	<path class="st0" d="M355.3,21.6c-0.3,0-0.7,0-1-0.1c-0.4-0.1-0.7-0.1-0.9-0.3v-1.3c0.3,0.1,0.6,0.2,0.9,0.3
		c0.3,0.1,0.6,0.1,0.9,0.1c0.3,0,0.6,0,0.8-0.1c0.3-0.1,0.5-0.2,0.7-0.4c0.2-0.2,0.5-0.4,0.7-0.8c0.2-0.3,0.5-0.7,0.7-1.3L351.7,6
		h1.9l5.6,10.1L364.5,6h1.9l-6.5,11.8c-0.4,0.7-0.8,1.3-1.1,1.8c-0.4,0.5-0.7,0.9-1.1,1.2c-0.4,0.3-0.7,0.5-1.1,0.6
		C356.2,21.5,355.8,21.6,355.3,21.6z"/>
	<path class="st0" d="M365.5,21.4v-2.1h1.5v2.1H365.5z"/>
	<path class="st0" d="M375.4,6h13.8v15.5h-1.8V7.3h-10.3v14.1h-1.7V6z"/>
	<path class="st0" d="M404.7,20.1v1.4h-12V6h11.8v1.4h-10v5.6h8.7v1.3h-8.7v5.9H404.7z"/>
	<path class="st0" d="M407.1,21.4V6h7.4c0.8,0,1.5,0.1,2.1,0.4c0.6,0.3,1.2,0.7,1.7,1.1c0.5,0.5,0.8,1,1.1,1.6
		c0.3,0.6,0.4,1.2,0.4,1.8c0,0.6-0.1,1.3-0.4,1.8c-0.3,0.6-0.6,1.1-1.1,1.6c-0.5,0.5-1,0.8-1.6,1.1c-0.6,0.3-1.3,0.4-2.1,0.4h-5.8
		v5.7H407.1z M408.8,14.4h5.7c0.5,0,1-0.1,1.4-0.3c0.4-0.2,0.8-0.5,1.1-0.8c0.3-0.3,0.5-0.7,0.7-1.1c0.2-0.4,0.3-0.9,0.3-1.3
		c0-0.5-0.1-0.9-0.3-1.4s-0.5-0.8-0.8-1.1c-0.3-0.3-0.7-0.6-1.2-0.8c-0.4-0.2-0.9-0.3-1.4-0.3h-5.6V14.4z"/>
	<path class="st0" d="M433.8,20.1v1.4h-12V6h11.8v1.4h-10v5.6h8.7v1.3h-8.7v5.9H433.8z"/>
	<path class="st0" d="M434.3,20.1h0.4c0.3,0,0.6-0.1,0.9-0.2c0.3-0.1,0.6-0.3,0.8-0.6s0.5-0.6,0.7-1.1c0.2-0.5,0.4-1.1,0.6-1.8
		c0.2-0.7,0.4-1.6,0.5-2.7c0.2-1.1,0.3-2.3,0.5-3.8l0.4-4h9.4v14.1h2.5v5.4h-1.6v-4.1h-13.6v4.1h-1.6V20.1z M446.8,20.1V7.3h-6
		l-0.3,2.7c-0.1,1.5-0.3,2.8-0.5,3.9c-0.2,1.1-0.4,2.1-0.6,2.9c-0.2,0.8-0.5,1.5-0.8,2c-0.3,0.5-0.7,0.9-1.1,1.2H446.8z"/>
	<path class="st0" d="M457.3,7.8c0.5-0.6,1.2-1.1,2-1.4c0.8-0.3,1.8-0.5,2.9-0.5c1.6,0,2.9,0.3,3.8,0.9c0.9,0.6,1.3,1.5,1.3,2.7
		c0,0.9-0.3,1.6-0.8,2.3c-0.5,0.6-1.3,1-2.2,1.2c1.2,0.1,2.1,0.6,2.8,1.3c0.7,0.7,1,1.6,1,2.6c0,0.7-0.2,1.3-0.5,1.9
		c-0.3,0.6-0.7,1.1-1.2,1.5c-0.5,0.4-1.2,0.7-1.9,1c-0.7,0.2-1.6,0.3-2.4,0.3c-1.2,0-2.3-0.2-3.2-0.7s-1.7-1-2.2-1.8l1.4-0.9
		c0.4,0.6,0.9,1.1,1.6,1.4s1.5,0.5,2.5,0.5c0.6,0,1.2-0.1,1.7-0.2c0.5-0.2,1-0.4,1.3-0.6c0.4-0.3,0.7-0.6,0.9-1
		c0.2-0.4,0.3-0.8,0.3-1.3c0-1-0.5-1.8-1.4-2.4c-0.9-0.6-2.2-0.9-3.8-0.9h-1.2v-1.4h1.2c1.4,0,2.5-0.2,3.2-0.7
		c0.8-0.5,1.1-1.1,1.1-2c0-0.8-0.3-1.4-0.9-1.8c-0.6-0.4-1.4-0.6-2.5-0.6c-0.8,0-1.6,0.1-2.2,0.4c-0.7,0.3-1.2,0.7-1.5,1.1
		L457.3,7.8z"/>
	<path class="st0" d="M475.7,6h1.5l7.4,15.5h-1.9l-2.3-4.8h-8l-2.3,4.8h-1.9L475.7,6z M480,15.4l-3.6-7.6l-3.6,7.6H480z"/>
	<path class="st0" d="M484.4,13.6c0-0.9,0.2-1.9,0.6-2.8c0.4-0.9,0.9-1.7,1.6-2.5c0.7-0.7,1.6-1.3,2.7-1.8c1.1-0.5,2.3-0.7,3.6-0.7
		c1.6,0,3,0.3,4.1,0.9c1.1,0.6,2,1.4,2.5,2.4L498,10c-0.3-0.5-0.6-0.9-1-1.3s-0.9-0.6-1.3-0.8c-0.5-0.2-1-0.4-1.5-0.5
		c-0.5-0.1-1-0.1-1.5-0.1c-1.1,0-2,0.2-2.8,0.6c-0.8,0.4-1.5,0.9-2.1,1.5c-0.6,0.6-1,1.3-1.3,2.1c-0.3,0.8-0.4,1.5-0.4,2.3
		c0,0.9,0.2,1.7,0.5,2.5c0.3,0.8,0.8,1.5,1.4,2.1c0.6,0.6,1.3,1.1,2.1,1.4c0.8,0.4,1.7,0.5,2.7,0.5c0.5,0,1-0.1,1.5-0.2
		c0.5-0.1,1-0.3,1.5-0.5c0.5-0.2,1-0.5,1.4-0.9c0.4-0.4,0.8-0.8,1.1-1.3l1.5,0.7c-0.3,0.6-0.7,1.1-1.2,1.5c-0.5,0.4-1.1,0.8-1.7,1.1
		c-0.6,0.3-1.3,0.5-2,0.7c-0.7,0.2-1.4,0.2-2.1,0.2c-1.2,0-2.3-0.2-3.4-0.7c-1-0.5-1.9-1.1-2.6-1.8c-0.7-0.7-1.3-1.6-1.7-2.5
		C484.6,15.5,484.4,14.6,484.4,13.6z"/>
	<path class="st0" d="M514.3,7.3H508v14.1h-1.8V7.3h-6.4V6h14.5V7.3z"/>
	<path class="st0" d="M522.4,21.5c-1.2,0-2.4-0.2-3.4-0.7c-1-0.4-1.9-1-2.7-1.8c-0.7-0.7-1.3-1.6-1.7-2.5c-0.4-0.9-0.6-1.9-0.6-2.9
		c0-1,0.2-2,0.6-3c0.4-0.9,1-1.8,1.8-2.5c0.8-0.7,1.6-1.3,2.7-1.7c1-0.4,2.1-0.6,3.3-0.6c1.2,0,2.4,0.2,3.4,0.7
		c1,0.5,1.9,1.1,2.6,1.8c0.7,0.7,1.3,1.6,1.7,2.5c0.4,0.9,0.6,1.9,0.6,2.9c0,1-0.2,2-0.6,3c-0.4,0.9-1,1.8-1.8,2.5
		c-0.7,0.7-1.6,1.3-2.7,1.7C524.7,21.3,523.6,21.5,522.4,21.5z M515.8,13.7c0,0.8,0.2,1.7,0.5,2.4c0.3,0.8,0.8,1.5,1.4,2.1
		c0.6,0.6,1.3,1.1,2.1,1.4c0.8,0.4,1.7,0.5,2.7,0.5c1,0,1.9-0.2,2.7-0.6c0.8-0.4,1.5-0.9,2.1-1.5c0.6-0.6,1-1.3,1.3-2.1
		c0.3-0.8,0.5-1.6,0.5-2.4c0-0.8-0.2-1.7-0.5-2.4c-0.3-0.8-0.8-1.5-1.4-2.1c-0.6-0.6-1.3-1.1-2.1-1.4c-0.8-0.4-1.7-0.5-2.7-0.5
		c-1,0-1.9,0.2-2.7,0.6c-0.8,0.4-1.5,0.9-2.1,1.5c-0.6,0.6-1,1.3-1.3,2.1C515.9,12.1,515.8,12.9,515.8,13.7z"/>
	<path class="st0" d="M531.9,13.6c0-0.9,0.2-1.9,0.6-2.8c0.4-0.9,0.9-1.7,1.6-2.5c0.7-0.7,1.6-1.3,2.7-1.8c1.1-0.5,2.3-0.7,3.6-0.7
		c1.6,0,3,0.3,4.1,0.9c1.1,0.6,2,1.4,2.5,2.4l-1.4,0.7c-0.3-0.5-0.6-0.9-1-1.3s-0.9-0.6-1.3-0.8c-0.5-0.2-1-0.4-1.5-0.5
		c-0.5-0.1-1-0.1-1.5-0.1c-1.1,0-2,0.2-2.8,0.6c-0.8,0.4-1.5,0.9-2.1,1.5s-1,1.3-1.3,2.1s-0.4,1.5-0.4,2.3c0,0.9,0.2,1.7,0.5,2.5
		c0.3,0.8,0.8,1.5,1.4,2.1c0.6,0.6,1.3,1.1,2.1,1.4c0.8,0.4,1.7,0.5,2.7,0.5c0.5,0,1-0.1,1.5-0.2c0.5-0.1,1-0.3,1.5-0.5
		c0.5-0.2,1-0.5,1.4-0.9c0.4-0.4,0.8-0.8,1.1-1.3l1.5,0.7c-0.3,0.6-0.7,1.1-1.2,1.5c-0.5,0.4-1.1,0.8-1.7,1.1
		c-0.6,0.3-1.3,0.5-2,0.7c-0.7,0.2-1.4,0.2-2.1,0.2c-1.2,0-2.3-0.2-3.4-0.7c-1-0.5-1.9-1.1-2.6-1.8c-0.7-0.7-1.3-1.6-1.7-2.5
		C532.1,15.5,531.9,14.6,531.9,13.6z"/>
	<path class="st0" d="M551.3,21.6c-0.3,0-0.7,0-1-0.1c-0.4-0.1-0.7-0.1-0.9-0.3v-1.3c0.3,0.1,0.6,0.2,0.9,0.3
		c0.3,0.1,0.6,0.1,0.9,0.1c0.3,0,0.6,0,0.8-0.1c0.3-0.1,0.5-0.2,0.7-0.4c0.2-0.2,0.5-0.4,0.7-0.8c0.2-0.3,0.5-0.7,0.7-1.3L547.7,6
		h1.9l5.6,10.1L560.5,6h1.9l-6.5,11.8c-0.4,0.7-0.8,1.3-1.1,1.8c-0.4,0.5-0.7,0.9-1.1,1.2c-0.4,0.3-0.7,0.5-1.1,0.6
		C552.2,21.5,551.8,21.6,551.3,21.6z"/>
	<path class="st0" d="M577.2,17.4c0,0.6-0.1,1.1-0.4,1.6c-0.3,0.5-0.6,0.9-1.1,1.3c-0.5,0.4-1,0.6-1.6,0.8c-0.6,0.2-1.2,0.3-1.9,0.3
		h-8.4V6h8.6c0.6,0,1.2,0.1,1.7,0.3s0.9,0.5,1.3,0.9c0.4,0.4,0.6,0.8,0.8,1.3c0.2,0.5,0.3,0.9,0.3,1.4c0,0.8-0.2,1.5-0.7,2.1
		c-0.5,0.6-1.1,1.1-1.9,1.4c1,0.3,1.8,0.7,2.4,1.5S577.2,16.5,577.2,17.4z M565.5,7.3V13h6.1c0.4,0,0.8-0.1,1.2-0.2
		c0.4-0.2,0.7-0.4,1-0.6c0.3-0.3,0.5-0.6,0.6-0.9c0.2-0.3,0.2-0.7,0.2-1.1c0-0.4-0.1-0.8-0.2-1.1s-0.3-0.6-0.6-0.9
		c-0.3-0.3-0.6-0.5-0.9-0.6c-0.4-0.2-0.7-0.2-1.2-0.2H565.5z M575.4,17.2c0-0.4-0.1-0.7-0.2-1.1c-0.2-0.4-0.4-0.7-0.6-0.9
		c-0.3-0.3-0.6-0.5-1-0.7c-0.4-0.2-0.8-0.3-1.2-0.3h-6.8v5.9h6.7c0.5,0,0.9-0.1,1.3-0.2c0.4-0.2,0.7-0.4,1-0.6
		c0.3-0.3,0.5-0.6,0.7-0.9C575.3,17.9,575.4,17.5,575.4,17.2z"/>
	<path class="st0" d="M585.1,6h1.5l7.4,15.5h-1.9l-2.3-4.8h-8l-2.3,4.8h-1.9L585.1,6z M589.4,15.4l-3.6-7.6l-3.6,7.6H589.4z"/>
	<path class="st0" d="M609.7,6v15.5h-1.7v-7.2h-10.6v7.2h-1.8V6h1.8v6.9h10.6V6H609.7z"/>
	<path class="st0" d="M627.3,6v15.5h-1.7v-7.2H615v7.2h-1.8V6h1.8v6.9h10.6V6H627.3z"/>
	<path class="st0" d="M640.5,21.4v-6.2h-4.7l-4.3,6.2h-2.1L634,15c-0.6-0.2-1.1-0.4-1.5-0.7c-0.4-0.3-0.8-0.6-1.1-1
		c-0.3-0.4-0.6-0.8-0.7-1.3c-0.2-0.5-0.3-1-0.3-1.5c0-0.6,0.1-1.1,0.4-1.7c0.3-0.6,0.6-1,1.1-1.5c0.5-0.4,1.1-0.8,1.7-1
		s1.4-0.4,2.2-0.4h6.4v15.5H640.5z M640.5,7.3H636c-0.5,0-1,0.1-1.5,0.3c-0.5,0.2-0.9,0.4-1.2,0.7c-0.3,0.3-0.6,0.6-0.8,1
		c-0.2,0.4-0.3,0.8-0.3,1.3c0,0.4,0.1,0.9,0.3,1.3s0.4,0.8,0.7,1.1c0.3,0.3,0.7,0.5,1.1,0.7c0.5,0.2,1,0.3,1.6,0.3h4.7V7.3z"/>
	<path class="st0" d="M661.7,21.4V8.7l-6.5,9.8h-1l-6.5-9.8v12.7h-1.8V6h1.8l7,10.6l7-10.6h1.8v15.5H661.7z"/>
	<path class="st0" d="M679.7,21.5c-1.2,0-2.4-0.2-3.4-0.7c-1-0.4-1.9-1-2.7-1.8c-0.7-0.7-1.3-1.6-1.7-2.5c-0.4-0.9-0.6-1.9-0.6-2.9
		c0-1,0.2-2,0.6-3c0.4-0.9,1-1.8,1.8-2.5c0.8-0.7,1.6-1.3,2.7-1.7c1-0.4,2.1-0.6,3.3-0.6c1.2,0,2.4,0.2,3.4,0.7
		c1,0.5,1.9,1.1,2.6,1.8c0.7,0.7,1.3,1.6,1.7,2.5c0.4,0.9,0.6,1.9,0.6,2.9c0,1-0.2,2-0.6,3c-0.4,0.9-1,1.8-1.8,2.5
		c-0.7,0.7-1.6,1.3-2.7,1.7C682,21.3,680.9,21.5,679.7,21.5z M673.1,13.7c0,0.8,0.2,1.7,0.5,2.4c0.3,0.8,0.8,1.5,1.4,2.1
		c0.6,0.6,1.3,1.1,2.1,1.4c0.8,0.4,1.7,0.5,2.7,0.5c1,0,1.9-0.2,2.7-0.6c0.8-0.4,1.5-0.9,2.1-1.5c0.6-0.6,1-1.3,1.3-2.1
		c0.3-0.8,0.5-1.6,0.5-2.4c0-0.8-0.2-1.7-0.5-2.4c-0.3-0.8-0.8-1.5-1.4-2.1c-0.6-0.6-1.3-1.1-2.1-1.4c-0.8-0.4-1.7-0.5-2.7-0.5
		c-1,0-1.9,0.2-2.7,0.6c-0.8,0.4-1.5,0.9-2.1,1.5c-0.6,0.6-1,1.3-1.3,2.1C673.2,12.1,673.1,12.9,673.1,13.7z"/>
	<path class="st0" d="M690.4,6h12.2v1.4h-10.4v5.2h6.2c0.8,0,1.5,0.1,2.2,0.3s1.2,0.5,1.7,0.9c0.5,0.4,0.8,0.8,1.1,1.4
		c0.3,0.6,0.4,1.2,0.4,1.9c0,0.7-0.1,1.3-0.4,1.9c-0.3,0.6-0.6,1-1.1,1.4c-0.5,0.4-1,0.7-1.7,0.9c-0.7,0.2-1.4,0.3-2.2,0.3h-7.9V6z
		 M698.3,20.1c0.6,0,1.1-0.1,1.6-0.2c0.4-0.2,0.8-0.4,1.1-0.7c0.3-0.3,0.5-0.6,0.7-1c0.1-0.4,0.2-0.8,0.2-1.3c0-0.5-0.1-0.9-0.2-1.2
		c-0.1-0.4-0.3-0.7-0.6-1c-0.3-0.3-0.7-0.5-1.1-0.6c-0.5-0.2-1-0.2-1.6-0.2h-6.2v6.2H698.3z"/>
	<path class="st0" d="M713,21.5c-1.2,0-2.4-0.2-3.4-0.7c-1-0.4-1.9-1-2.7-1.8c-0.7-0.7-1.3-1.6-1.7-2.5c-0.4-0.9-0.6-1.9-0.6-2.9
		c0-1,0.2-2,0.6-3c0.4-0.9,1-1.8,1.8-2.5c0.8-0.7,1.6-1.3,2.7-1.7c1-0.4,2.1-0.6,3.3-0.6c1.2,0,2.4,0.2,3.4,0.7
		c1,0.5,1.9,1.1,2.6,1.8c0.7,0.7,1.3,1.6,1.7,2.5c0.4,0.9,0.6,1.9,0.6,2.9c0,1-0.2,2-0.6,3c-0.4,0.9-1,1.8-1.8,2.5
		c-0.7,0.7-1.6,1.3-2.7,1.7C715.3,21.3,714.2,21.5,713,21.5z M706.4,13.7c0,0.8,0.2,1.7,0.5,2.4c0.3,0.8,0.8,1.5,1.4,2.1
		c0.6,0.6,1.3,1.1,2.1,1.4c0.8,0.4,1.7,0.5,2.7,0.5c1,0,1.9-0.2,2.7-0.6c0.8-0.4,1.5-0.9,2.1-1.5c0.6-0.6,1-1.3,1.3-2.1
		c0.3-0.8,0.5-1.6,0.5-2.4c0-0.8-0.2-1.7-0.5-2.4s-0.8-1.5-1.4-2.1c-0.6-0.6-1.3-1.1-2.1-1.4c-0.8-0.4-1.7-0.5-2.7-0.5
		c-1,0-1.9,0.2-2.7,0.6c-0.8,0.4-1.5,0.9-2.1,1.5c-0.6,0.6-1,1.3-1.3,2.1C706.6,12.1,706.4,12.9,706.4,13.7z"/>
	<path class="st0" d="M736.8,17.4c0,0.6-0.1,1.1-0.4,1.6c-0.3,0.5-0.6,0.9-1.1,1.3c-0.5,0.4-1,0.6-1.6,0.8c-0.6,0.2-1.2,0.3-1.9,0.3
		h-8.4V6h8.6c0.6,0,1.2,0.1,1.7,0.3s0.9,0.5,1.3,0.9c0.4,0.4,0.6,0.8,0.8,1.3c0.2,0.5,0.3,0.9,0.3,1.4c0,0.8-0.2,1.5-0.7,2.1
		c-0.5,0.6-1.1,1.1-1.9,1.4c1,0.3,1.8,0.7,2.4,1.5S736.8,16.5,736.8,17.4z M725.2,7.3V13h6.1c0.4,0,0.8-0.1,1.2-0.2
		c0.4-0.2,0.7-0.4,1-0.6c0.3-0.3,0.5-0.6,0.6-0.9c0.2-0.3,0.2-0.7,0.2-1.1c0-0.4-0.1-0.8-0.2-1.1s-0.3-0.6-0.6-0.9
		c-0.3-0.3-0.6-0.5-0.9-0.6c-0.4-0.2-0.7-0.2-1.2-0.2H725.2z M735.1,17.2c0-0.4-0.1-0.7-0.2-1.1c-0.2-0.4-0.4-0.7-0.6-0.9
		c-0.3-0.3-0.6-0.5-1-0.7c-0.4-0.2-0.8-0.3-1.2-0.3h-6.8v5.9h6.7c0.5,0,0.9-0.1,1.3-0.2c0.4-0.2,0.7-0.4,1-0.6
		c0.3-0.3,0.5-0.6,0.7-0.9C735,17.9,735.1,17.5,735.1,17.2z"/>
	<path class="st0" d="M739.1,10.1l0.4-2.3H739V5.5h1.7v2.2l-0.6,2.3H739.1z"/>
	<path class="st0" d="M753,21.4v-6.2h-4.7l-4.3,6.2h-2.1l4.6-6.4c-0.6-0.2-1.1-0.4-1.5-0.7c-0.4-0.3-0.8-0.6-1.1-1
		c-0.3-0.4-0.6-0.8-0.7-1.3c-0.2-0.5-0.3-1-0.3-1.5c0-0.6,0.1-1.1,0.4-1.7c0.3-0.6,0.6-1,1.1-1.5c0.5-0.4,1.1-0.8,1.7-1
		s1.4-0.4,2.2-0.4h6.4v15.5H753z M753,7.3h-4.6c-0.5,0-1,0.1-1.5,0.3c-0.5,0.2-0.9,0.4-1.2,0.7c-0.3,0.3-0.6,0.6-0.8,1
		c-0.2,0.4-0.3,0.8-0.3,1.3c0,0.4,0.1,0.9,0.3,1.3s0.4,0.8,0.7,1.1c0.3,0.3,0.7,0.5,1.1,0.7c0.5,0.2,1,0.3,1.6,0.3h4.7V7.3z"/>
	<path class="st0" d="M757.3,7.8c0.5-0.6,1.2-1.1,2-1.4c0.8-0.3,1.8-0.5,2.9-0.5c1.6,0,2.9,0.3,3.8,0.9c0.9,0.6,1.3,1.5,1.3,2.7
		c0,0.9-0.3,1.6-0.8,2.3c-0.5,0.6-1.3,1-2.2,1.2c1.2,0.1,2.1,0.6,2.8,1.3c0.7,0.7,1,1.6,1,2.6c0,0.7-0.2,1.3-0.5,1.9
		c-0.3,0.6-0.7,1.1-1.2,1.5c-0.5,0.4-1.2,0.7-1.9,1c-0.7,0.2-1.6,0.3-2.4,0.3c-1.2,0-2.3-0.2-3.2-0.7s-1.7-1-2.2-1.8l1.4-0.9
		c0.4,0.6,0.9,1.1,1.6,1.4c0.7,0.4,1.5,0.5,2.5,0.5c0.6,0,1.2-0.1,1.7-0.2c0.5-0.2,1-0.4,1.3-0.6c0.4-0.3,0.7-0.6,0.9-1
		c0.2-0.4,0.3-0.8,0.3-1.3c0-1-0.5-1.8-1.4-2.4s-2.2-0.9-3.8-0.9H760v-1.4h1.2c1.4,0,2.5-0.2,3.2-0.7c0.8-0.5,1.1-1.1,1.1-2
		c0-0.8-0.3-1.4-0.9-1.8s-1.4-0.6-2.5-0.6c-0.8,0-1.6,0.1-2.2,0.4c-0.7,0.3-1.2,0.7-1.5,1.1L757.3,7.8z"/>
	<path class="st0" d="M772.3,12.8h2.7l5.8-6.9h2l-6.3,7.4l6.9,8h-2l-6.3-7.3h-2.9v7.3h-1.7V6h1.7V12.8z"/>
	<path class="st0" d="M791.2,21.5c-1.2,0-2.4-0.2-3.4-0.7c-1-0.4-1.9-1-2.7-1.8c-0.7-0.7-1.3-1.6-1.7-2.5c-0.4-0.9-0.6-1.9-0.6-2.9
		c0-1,0.2-2,0.6-3c0.4-0.9,1-1.8,1.8-2.5c0.8-0.7,1.6-1.3,2.7-1.7c1-0.4,2.1-0.6,3.3-0.6c1.2,0,2.4,0.2,3.4,0.7
		c1,0.5,1.9,1.1,2.6,1.8c0.7,0.7,1.3,1.6,1.7,2.5c0.4,0.9,0.6,1.9,0.6,2.9c0,1-0.2,2-0.6,3c-0.4,0.9-1,1.8-1.8,2.5
		c-0.7,0.7-1.6,1.3-2.7,1.7C793.5,21.3,792.4,21.5,791.2,21.5z M784.6,13.7c0,0.8,0.2,1.7,0.5,2.4c0.3,0.8,0.8,1.5,1.4,2.1
		c0.6,0.6,1.3,1.1,2.1,1.4c0.8,0.4,1.7,0.5,2.7,0.5c1,0,1.9-0.2,2.7-0.6c0.8-0.4,1.5-0.9,2.1-1.5c0.6-0.6,1-1.3,1.3-2.1
		c0.3-0.8,0.5-1.6,0.5-2.4c0-0.8-0.2-1.7-0.5-2.4s-0.8-1.5-1.4-2.1c-0.6-0.6-1.3-1.1-2.1-1.4c-0.8-0.4-1.7-0.5-2.7-0.5
		c-1,0-1.9,0.2-2.7,0.6c-0.8,0.4-1.5,0.9-2.1,1.5c-0.6,0.6-1,1.3-1.3,2.1C784.8,12.1,784.6,12.9,784.6,13.7z"/>
	<path class="st0" d="M815,17.4c0,0.6-0.1,1.1-0.4,1.6c-0.3,0.5-0.6,0.9-1.1,1.3c-0.5,0.4-1,0.6-1.6,0.8c-0.6,0.2-1.2,0.3-1.9,0.3
		h-8.4V6h8.6c0.6,0,1.2,0.1,1.7,0.3s0.9,0.5,1.3,0.9c0.4,0.4,0.6,0.8,0.8,1.3c0.2,0.5,0.3,0.9,0.3,1.4c0,0.8-0.2,1.5-0.7,2.1
		c-0.5,0.6-1.1,1.1-1.9,1.4c1,0.3,1.8,0.7,2.4,1.5S815,16.5,815,17.4z M803.4,7.3V13h6.1c0.4,0,0.8-0.1,1.2-0.2
		c0.4-0.2,0.7-0.4,1-0.6c0.3-0.3,0.5-0.6,0.6-0.9c0.2-0.3,0.2-0.7,0.2-1.1c0-0.4-0.1-0.8-0.2-1.1s-0.3-0.6-0.6-0.9
		c-0.3-0.3-0.6-0.5-0.9-0.6c-0.4-0.2-0.7-0.2-1.2-0.2H803.4z M813.3,17.2c0-0.4-0.1-0.7-0.2-1.1c-0.2-0.4-0.4-0.7-0.6-0.9
		c-0.3-0.3-0.6-0.5-1-0.7c-0.4-0.2-0.8-0.3-1.2-0.3h-6.8v5.9h6.7c0.5,0,0.9-0.1,1.3-0.2c0.4-0.2,0.7-0.4,1-0.6
		c0.3-0.3,0.5-0.6,0.7-0.9C813.2,17.9,813.3,17.5,813.3,17.2z"/>
	<path class="st0" d="M825,21.5c-1.2,0-2.4-0.2-3.4-0.7s-1.9-1-2.7-1.8c-0.7-0.7-1.3-1.6-1.7-2.5c-0.4-0.9-0.6-1.9-0.6-2.9
		c0-1,0.2-2,0.6-3c0.4-0.9,1-1.8,1.8-2.5c0.8-0.7,1.6-1.3,2.7-1.7c1-0.4,2.1-0.6,3.3-0.6c1.2,0,2.4,0.2,3.4,0.7
		c1,0.5,1.9,1.1,2.6,1.8c0.7,0.7,1.3,1.6,1.7,2.5c0.4,0.9,0.6,1.9,0.6,2.9c0,1-0.2,2-0.6,3c-0.4,0.9-1,1.8-1.8,2.5
		c-0.7,0.7-1.6,1.3-2.7,1.7C827.3,21.3,826.2,21.5,825,21.5z M818.4,13.7c0,0.8,0.2,1.7,0.5,2.4c0.3,0.8,0.8,1.5,1.4,2.1
		c0.6,0.6,1.3,1.1,2.1,1.4c0.8,0.4,1.7,0.5,2.7,0.5c1,0,1.9-0.2,2.7-0.6c0.8-0.4,1.5-0.9,2.1-1.5c0.6-0.6,1-1.3,1.3-2.1
		c0.3-0.8,0.5-1.6,0.5-2.4c0-0.8-0.2-1.7-0.5-2.4s-0.8-1.5-1.4-2.1c-0.6-0.6-1.3-1.1-2.1-1.4c-0.8-0.4-1.7-0.5-2.7-0.5
		c-1,0-1.9,0.2-2.7,0.6c-0.8,0.4-1.5,0.9-2.1,1.5c-0.6,0.6-1,1.3-1.3,2.1C818.5,12.1,818.4,12.9,818.4,13.7z"/>
	<path class="st0" d="M848.4,21.5c-1.2,0-2.4-0.2-3.4-0.7s-1.9-1-2.7-1.8c-0.7-0.7-1.3-1.6-1.7-2.5c-0.4-0.9-0.6-1.9-0.6-2.9
		c0-1,0.2-2,0.6-3c0.4-0.9,1-1.8,1.8-2.5c0.8-0.7,1.6-1.3,2.7-1.7c1-0.4,2.1-0.6,3.3-0.6c1.2,0,2.4,0.2,3.4,0.7
		c1,0.5,1.9,1.1,2.6,1.8c0.7,0.7,1.3,1.6,1.7,2.5c0.4,0.9,0.6,1.9,0.6,2.9c0,1-0.2,2-0.6,3c-0.4,0.9-1,1.8-1.8,2.5
		c-0.7,0.7-1.6,1.3-2.7,1.7C850.7,21.3,849.6,21.5,848.4,21.5z M841.8,13.7c0,0.8,0.2,1.7,0.5,2.4c0.3,0.8,0.8,1.5,1.4,2.1
		c0.6,0.6,1.3,1.1,2.1,1.4c0.8,0.4,1.7,0.5,2.7,0.5c1,0,1.9-0.2,2.7-0.6c0.8-0.4,1.5-0.9,2.1-1.5c0.6-0.6,1-1.3,1.3-2.1
		c0.3-0.8,0.5-1.6,0.5-2.4c0-0.8-0.2-1.7-0.5-2.4s-0.8-1.5-1.4-2.1c-0.6-0.6-1.3-1.1-2.1-1.4c-0.8-0.4-1.7-0.5-2.7-0.5
		c-1,0-1.9,0.2-2.7,0.6c-0.8,0.4-1.5,0.9-2.1,1.5c-0.6,0.6-1,1.3-1.3,2.1C841.9,12.1,841.8,12.9,841.8,13.7z"/>
	<path class="st0" d="M857.7,7.8c0.5-0.6,1.2-1.1,2-1.4c0.8-0.3,1.8-0.5,2.9-0.5c1.6,0,2.9,0.3,3.8,0.9s1.3,1.5,1.3,2.7
		c0,0.9-0.3,1.6-0.8,2.3c-0.5,0.6-1.3,1-2.2,1.2c1.2,0.1,2.1,0.6,2.8,1.3c0.7,0.7,1,1.6,1,2.6c0,0.7-0.2,1.3-0.5,1.9
		c-0.3,0.6-0.7,1.1-1.2,1.5c-0.5,0.4-1.2,0.7-1.9,1c-0.7,0.2-1.6,0.3-2.4,0.3c-1.2,0-2.3-0.2-3.2-0.7s-1.7-1-2.2-1.8l1.4-0.9
		c0.4,0.6,0.9,1.1,1.6,1.4c0.7,0.4,1.5,0.5,2.5,0.5c0.6,0,1.2-0.1,1.7-0.2c0.5-0.2,1-0.4,1.3-0.6c0.4-0.3,0.7-0.6,0.9-1
		c0.2-0.4,0.3-0.8,0.3-1.3c0-1-0.5-1.8-1.4-2.4s-2.2-0.9-3.8-0.9h-1.2v-1.4h1.2c1.4,0,2.5-0.2,3.2-0.7c0.8-0.5,1.1-1.1,1.1-2
		c0-0.8-0.3-1.4-0.9-1.8s-1.4-0.6-2.5-0.6c-0.8,0-1.6,0.1-2.2,0.4c-0.7,0.3-1.2,0.7-1.5,1.1L857.7,7.8z"/>
	<path class="st0" d="M885,6v15.5h-1.7v-7.2h-10.6v7.2h-1.8V6h1.8v6.9h10.6V6H885z"/>
	<path class="st0" d="M894.1,6h1.5l7.4,15.5h-1.9l-2.3-4.8h-8l-2.3,4.8h-1.9L894.1,6z M898.4,15.4l-3.6-7.6l-3.6,7.6H898.4z"/>
	<path class="st0" d="M906.4,19.1L917.4,6h1.5v15.5h-1.8v-13l-10.9,13h-1.6V6h1.7V19.1z M915.7,1.5c0,0.7-0.4,1.3-1,1.7
		c-0.6,0.4-1.5,0.6-2.7,0.6s-2-0.2-2.7-0.6s-1-1-1-1.7h1.1c0,0.2,0.1,0.4,0.2,0.5c0.1,0.2,0.3,0.3,0.6,0.5c0.2,0.1,0.5,0.2,0.8,0.3
		c0.3,0.1,0.7,0.1,1.1,0.1c0.7,0,1.3-0.1,1.8-0.4c0.5-0.3,0.8-0.6,0.8-1H915.7z"/>
	<path class="st0" d="M929.7,21.5c-1.2,0-2.4-0.2-3.4-0.7c-1-0.4-1.9-1-2.7-1.8c-0.7-0.7-1.3-1.6-1.7-2.5c-0.4-0.9-0.6-1.9-0.6-2.9
		c0-1,0.2-2,0.6-3c0.4-0.9,1-1.8,1.8-2.5c0.8-0.7,1.6-1.3,2.7-1.7c1-0.4,2.1-0.6,3.3-0.6c1.2,0,2.4,0.2,3.4,0.7
		c1,0.5,1.9,1.1,2.6,1.8s1.3,1.6,1.7,2.5c0.4,0.9,0.6,1.9,0.6,2.9c0,1-0.2,2-0.6,3c-0.4,0.9-1,1.8-1.8,2.5c-0.7,0.7-1.6,1.3-2.7,1.7
		C932,21.3,930.8,21.5,929.7,21.5z M923,13.7c0,0.8,0.2,1.7,0.5,2.4c0.3,0.8,0.8,1.5,1.4,2.1c0.6,0.6,1.3,1.1,2.1,1.4
		c0.8,0.4,1.7,0.5,2.7,0.5c1,0,1.9-0.2,2.7-0.6c0.8-0.4,1.5-0.9,2.1-1.5c0.6-0.6,1-1.3,1.3-2.1c0.3-0.8,0.5-1.6,0.5-2.4
		c0-0.8-0.2-1.7-0.5-2.4c-0.3-0.8-0.8-1.5-1.4-2.1c-0.6-0.6-1.3-1.1-2.1-1.4c-0.8-0.4-1.7-0.5-2.7-0.5c-1,0-1.9,0.2-2.7,0.6
		c-0.8,0.4-1.5,0.9-2.1,1.5c-0.6,0.6-1,1.3-1.3,2.1C923.2,12.1,923,12.9,923,13.7z"/>
	<path class="st0" d="M956.2,21.4V8.7l-6.5,9.8h-1l-6.5-9.8v12.7h-1.8V6h1.8l7,10.6l7-10.6h1.8v15.5H956.2z"/>
	<path class="st0" d="M974.2,7.3h-6.4v14.1h-1.8V7.3h-6.4V6h14.5V7.3z"/>
	<path class="st0" d="M987.9,20.1v1.4h-12V6h11.8v1.4h-10v5.6h8.7v1.3h-8.7v5.9H987.9z"/>
	<path class="st0" d="M988.7,13.6c0-0.9,0.2-1.9,0.6-2.8c0.4-0.9,0.9-1.7,1.6-2.5c0.7-0.7,1.6-1.3,2.7-1.8c1.1-0.5,2.3-0.7,3.6-0.7
		c1.6,0,3,0.3,4.1,0.9c1.1,0.6,2,1.4,2.5,2.4l-1.4,0.7c-0.3-0.5-0.6-0.9-1-1.3c-0.4-0.3-0.9-0.6-1.3-0.8c-0.5-0.2-1-0.4-1.5-0.5
		c-0.5-0.1-1-0.1-1.5-0.1c-1.1,0-2,0.2-2.8,0.6c-0.8,0.4-1.5,0.9-2.1,1.5s-1,1.3-1.3,2.1s-0.4,1.5-0.4,2.3c0,0.9,0.2,1.7,0.5,2.5
		c0.3,0.8,0.8,1.5,1.4,2.1s1.3,1.1,2.1,1.4c0.8,0.4,1.7,0.5,2.7,0.5c0.5,0,1-0.1,1.5-0.2c0.5-0.1,1-0.3,1.5-0.5
		c0.5-0.2,1-0.5,1.4-0.9c0.4-0.4,0.8-0.8,1.1-1.3l1.5,0.7c-0.3,0.6-0.7,1.1-1.2,1.5c-0.5,0.4-1.1,0.8-1.7,1.1
		c-0.6,0.3-1.3,0.5-2,0.7c-0.7,0.2-1.4,0.2-2.1,0.2c-1.2,0-2.3-0.2-3.4-0.7c-1-0.5-1.9-1.1-2.6-1.8c-0.7-0.7-1.3-1.6-1.7-2.5
		C988.9,15.5,988.7,14.6,988.7,13.6z"/>
	<path class="st0" d="M1006.2,6h1.7v5.9h4.2c0.9,0,1.7,0.1,2.4,0.3c0.7,0.2,1.3,0.5,1.8,0.9c0.5,0.4,0.9,0.9,1.2,1.5
		c0.3,0.6,0.4,1.3,0.4,2c0,0.7-0.1,1.4-0.4,2c-0.3,0.6-0.7,1.1-1.2,1.5c-0.5,0.4-1.1,0.7-1.8,0.9c-0.7,0.2-1.5,0.3-2.3,0.3h-6V6z
		 M1007.9,20.1h4.2c0.7,0,1.3-0.1,1.8-0.3c0.5-0.2,0.9-0.4,1.3-0.7c0.3-0.3,0.6-0.7,0.7-1.1c0.2-0.4,0.2-0.9,0.2-1.4
		c0-0.5-0.1-1-0.2-1.4c-0.2-0.4-0.4-0.8-0.7-1.1s-0.8-0.5-1.3-0.7c-0.5-0.2-1.1-0.3-1.8-0.3h-4.2V20.1z"/>
	<path class="st0" d="M1024.4,7.8c0.5-0.6,1.2-1.1,2-1.4c0.8-0.3,1.8-0.5,2.9-0.5c1.6,0,2.9,0.3,3.8,0.9c0.9,0.6,1.3,1.5,1.3,2.7
		c0,0.9-0.3,1.6-0.8,2.3c-0.5,0.6-1.3,1-2.2,1.2c1.2,0.1,2.1,0.6,2.8,1.3c0.7,0.7,1,1.6,1,2.6c0,0.7-0.2,1.3-0.5,1.9
		c-0.3,0.6-0.7,1.1-1.2,1.5c-0.5,0.4-1.2,0.7-1.9,1c-0.7,0.2-1.6,0.3-2.4,0.3c-1.2,0-2.3-0.2-3.2-0.7c-1-0.4-1.7-1-2.2-1.8l1.4-0.9
		c0.4,0.6,0.9,1.1,1.6,1.4c0.7,0.4,1.5,0.5,2.5,0.5c0.6,0,1.2-0.1,1.7-0.2c0.5-0.2,1-0.4,1.3-0.6c0.4-0.3,0.7-0.6,0.9-1
		c0.2-0.4,0.3-0.8,0.3-1.3c0-1-0.5-1.8-1.4-2.4c-0.9-0.6-2.2-0.9-3.8-0.9h-1.2v-1.4h1.2c1.4,0,2.5-0.2,3.2-0.7
		c0.8-0.5,1.1-1.1,1.1-2c0-0.8-0.3-1.4-0.9-1.8s-1.4-0.6-2.5-0.6c-0.8,0-1.6,0.1-2.2,0.4c-0.7,0.3-1.2,0.7-1.5,1.1L1024.4,7.8z"/>
	<path class="st0" d="M1043.1,21.4V6h1.8v15.5H1043.1z"/>
	<path class="st0" d="M1062.5,6v15.5h-1.7v-7.2h-10.6v7.2h-1.8V6h1.8v6.9h10.6V6H1062.5z"/>
	<path class="st0" d="M1064.9,13.6c0-0.9,0.2-1.9,0.6-2.8c0.4-0.9,0.9-1.7,1.6-2.5c0.7-0.7,1.6-1.3,2.7-1.8c1.1-0.5,2.3-0.7,3.6-0.7
		c1.6,0,3,0.3,4.1,0.9c1.1,0.6,2,1.4,2.5,2.4l-1.4,0.7c-0.3-0.5-0.6-0.9-1-1.3c-0.4-0.3-0.9-0.6-1.3-0.8c-0.5-0.2-1-0.4-1.5-0.5
		c-0.5-0.1-1-0.1-1.5-0.1c-1.1,0-2,0.2-2.8,0.6c-0.8,0.4-1.5,0.9-2.1,1.5s-1,1.3-1.3,2.1s-0.4,1.5-0.4,2.3c0,0.9,0.2,1.7,0.5,2.5
		c0.3,0.8,0.8,1.5,1.4,2.1c0.6,0.6,1.3,1.1,2.1,1.4c0.8,0.4,1.7,0.5,2.7,0.5c0.5,0,1-0.1,1.5-0.2c0.5-0.1,1-0.3,1.5-0.5
		c0.5-0.2,1-0.5,1.4-0.9c0.4-0.4,0.8-0.8,1.1-1.3l1.5,0.7c-0.3,0.6-0.7,1.1-1.2,1.5c-0.5,0.4-1.1,0.8-1.7,1.1
		c-0.6,0.3-1.3,0.5-2,0.7c-0.7,0.2-1.4,0.2-2.1,0.2c-1.2,0-2.3-0.2-3.4-0.7c-1-0.5-1.9-1.1-2.6-1.8c-0.7-0.7-1.3-1.6-1.7-2.5
		C1065.1,15.5,1064.9,14.6,1064.9,13.6z"/>
	<path class="st0" d="M1094.8,7.3h-6.4v14.1h-1.8V7.3h-6.4V6h14.5V7.3z"/>
	<path class="st0" d="M1096.5,21.4V6h7.4c0.8,0,1.5,0.1,2.1,0.4c0.6,0.3,1.2,0.7,1.7,1.1c0.5,0.5,0.8,1,1.1,1.6
		c0.3,0.6,0.4,1.2,0.4,1.8c0,0.6-0.1,1.3-0.4,1.8c-0.3,0.6-0.6,1.1-1.1,1.6c-0.5,0.5-1,0.8-1.6,1.1c-0.6,0.3-1.3,0.4-2.1,0.4h-5.8
		v5.7H1096.5z M1098.3,14.4h5.7c0.5,0,1-0.1,1.4-0.3c0.4-0.2,0.8-0.5,1.1-0.8c0.3-0.3,0.5-0.7,0.7-1.1c0.2-0.4,0.3-0.9,0.3-1.3
		c0-0.5-0.1-0.9-0.3-1.4c-0.2-0.4-0.5-0.8-0.8-1.1c-0.3-0.3-0.7-0.6-1.2-0.8c-0.4-0.2-0.9-0.3-1.4-0.3h-5.6V14.4z"/>
	<path class="st0" d="M1113.2,21.6c-0.3,0-0.7,0-1-0.1c-0.4-0.1-0.7-0.1-0.9-0.3v-1.3c0.3,0.1,0.6,0.2,0.9,0.3
		c0.3,0.1,0.6,0.1,0.9,0.1c0.3,0,0.6,0,0.8-0.1s0.5-0.2,0.7-0.4c0.2-0.2,0.5-0.4,0.7-0.8c0.2-0.3,0.5-0.7,0.7-1.3L1109.5,6h1.9
		l5.6,10.1l5.4-10.1h1.9l-6.5,11.8c-0.4,0.7-0.8,1.3-1.1,1.8c-0.4,0.5-0.7,0.9-1.1,1.2c-0.4,0.3-0.7,0.5-1.1,0.6
		C1114.1,21.5,1113.6,21.6,1113.2,21.6z"/>
	<path class="st0" d="M1127.7,12.8h2.7l5.8-6.9h2l-6.3,7.4l6.9,8h-2l-6.3-7.3h-2.9v7.3h-1.7V6h1.7V12.8z"/>
	<path class="st0" d="M1154,21.4h-13.9V6h1.8v14.1h9.4V6h1.8v14.1h2.5v5.4h-1.6V21.4z"/>
	<path class="st0" d="M1157.4,21.4V6h1.8v15.5H1157.4z"/>
	<path class="st0" d="M1177.2,17.9c-0.3,0.6-0.7,1.1-1.2,1.5c-0.5,0.4-1.1,0.8-1.7,1.1s-1.3,0.5-2.1,0.7c-0.7,0.2-1.5,0.2-2.3,0.2
		c-1.3,0-2.5-0.2-3.5-0.7c-1.1-0.5-2-1.1-2.7-1.8c-0.7-0.7-1.3-1.6-1.7-2.5c-0.4-1-0.6-1.9-0.6-2.9c0-0.9,0.2-1.9,0.6-2.8
		c0.4-0.9,0.9-1.7,1.7-2.5c0.7-0.7,1.6-1.3,2.7-1.8s2.3-0.7,3.7-0.7c1.7,0,3.1,0.3,4.2,0.9c1.1,0.6,2,1.4,2.5,2.4l-1.4,0.7
		c-0.3-0.5-0.7-0.9-1.1-1.3c-0.4-0.3-0.9-0.6-1.3-0.8c-0.5-0.2-1-0.4-1.5-0.5c-0.5-0.1-1-0.1-1.5-0.1c-1.1,0-2,0.2-2.8,0.5
		c-0.8,0.3-1.5,0.7-2,1.3c-0.6,0.5-1,1.1-1.3,1.8c-0.3,0.7-0.5,1.4-0.6,2.1h9.1v1.3h-9.1c0.1,0.8,0.3,1.6,0.6,2.3
		c0.4,0.7,0.8,1.4,1.4,1.9c0.6,0.5,1.3,1,2.1,1.3c0.8,0.3,1.7,0.5,2.7,0.5c0.5,0,1.1-0.1,1.6-0.2c0.5-0.1,1.1-0.3,1.6-0.5
		c0.5-0.2,1-0.5,1.4-0.9c0.4-0.4,0.8-0.8,1.1-1.3L1177.2,17.9z"/>
	<path class="st0" d="M1192.4,21.5c-1.1,0-2.1-0.2-3.1-0.5c-0.9-0.3-1.7-0.8-2.4-1.5c-0.7-0.6-1.2-1.4-1.6-2.3
		c-0.4-0.9-0.6-1.9-0.7-2.9h-3.4v7.1h-1.8V6h1.8v7h3.4c0.1-1.1,0.3-2.1,0.8-3c0.4-0.9,1-1.6,1.7-2.2c0.7-0.6,1.5-1.1,2.4-1.4
		s1.9-0.5,3-0.5c1.2,0,2.3,0.2,3.3,0.6c1,0.4,1.8,0.9,2.6,1.6s1.3,1.5,1.6,2.5c0.4,1,0.6,2,0.6,3.1c0,1.2-0.2,2.3-0.6,3.2
		c-0.4,1-1,1.8-1.7,2.5c-0.7,0.7-1.6,1.2-2.6,1.6C1194.6,21.3,1193.5,21.5,1192.4,21.5z M1186.3,13.7c0,1,0.1,1.9,0.4,2.7
		c0.3,0.8,0.7,1.5,1.3,2c0.5,0.6,1.2,1,1.9,1.3c0.8,0.3,1.6,0.4,2.5,0.4c1,0,1.9-0.2,2.6-0.5c0.8-0.3,1.5-0.8,2-1.3
		c0.6-0.6,1-1.3,1.3-2c0.3-0.8,0.4-1.7,0.4-2.6c0-1-0.2-1.9-0.5-2.7c-0.3-0.8-0.7-1.5-1.3-2c-0.6-0.6-1.2-1-2-1.3
		c-0.8-0.3-1.6-0.4-2.6-0.4c-0.9,0-1.8,0.2-2.5,0.5c-0.8,0.3-1.4,0.8-1.9,1.3c-0.5,0.6-0.9,1.2-1.2,2
		C1186.4,11.8,1186.3,12.7,1186.3,13.7z"/>
	<path class="st0" d="M1208.4,6h13.8v15.5h-1.8V7.3h-10.3v14.1h-1.7V6z"/>
	<path class="st0" d="M1232.9,21.5c-1.2,0-2.4-0.2-3.4-0.7c-1-0.4-1.9-1-2.7-1.8c-0.7-0.7-1.3-1.6-1.7-2.5c-0.4-0.9-0.6-1.9-0.6-2.9
		c0-1,0.2-2,0.6-3c0.4-0.9,1-1.8,1.8-2.5c0.8-0.7,1.6-1.3,2.7-1.7c1-0.4,2.1-0.6,3.3-0.6c1.2,0,2.4,0.2,3.4,0.7
		c1,0.5,1.9,1.1,2.6,1.8s1.3,1.6,1.7,2.5c0.4,0.9,0.6,1.9,0.6,2.9c0,1-0.2,2-0.6,3c-0.4,0.9-1,1.8-1.8,2.5c-0.7,0.7-1.6,1.3-2.7,1.7
		C1235.2,21.3,1234.1,21.5,1232.9,21.5z M1226.3,13.7c0,0.8,0.2,1.7,0.5,2.4c0.3,0.8,0.8,1.5,1.4,2.1c0.6,0.6,1.3,1.1,2.1,1.4
		c0.8,0.4,1.7,0.5,2.7,0.5c1,0,1.9-0.2,2.7-0.6c0.8-0.4,1.5-0.9,2.1-1.5c0.6-0.6,1-1.3,1.3-2.1c0.3-0.8,0.5-1.6,0.5-2.4
		c0-0.8-0.2-1.7-0.5-2.4c-0.3-0.8-0.8-1.5-1.4-2.1c-0.6-0.6-1.3-1.1-2.1-1.4c-0.8-0.4-1.7-0.5-2.7-0.5c-1,0-1.9,0.2-2.7,0.6
		c-0.8,0.4-1.5,0.9-2.1,1.5c-0.6,0.6-1,1.3-1.3,2.1C1226.5,12.1,1226.3,12.9,1226.3,13.7z"/>
	<path class="st0" d="M1248.1,7.8c0.5-0.6,1.2-1.1,2-1.4c0.8-0.3,1.8-0.5,2.9-0.5c1.6,0,2.9,0.3,3.8,0.9c0.9,0.6,1.3,1.5,1.3,2.7
		c0,0.9-0.3,1.6-0.8,2.3c-0.5,0.6-1.3,1-2.2,1.2c1.2,0.1,2.1,0.6,2.8,1.3c0.7,0.7,1,1.6,1,2.6c0,0.7-0.2,1.3-0.5,1.9
		c-0.3,0.6-0.7,1.1-1.2,1.5c-0.5,0.4-1.2,0.7-1.9,1c-0.7,0.2-1.6,0.3-2.4,0.3c-1.2,0-2.3-0.2-3.2-0.7c-1-0.4-1.7-1-2.2-1.8l1.4-0.9
		c0.4,0.6,0.9,1.1,1.6,1.4c0.7,0.4,1.5,0.5,2.5,0.5c0.6,0,1.2-0.1,1.7-0.2c0.5-0.2,1-0.4,1.3-0.6c0.4-0.3,0.7-0.6,0.9-1
		c0.2-0.4,0.3-0.8,0.3-1.3c0-1-0.5-1.8-1.4-2.4c-0.9-0.6-2.2-0.9-3.8-0.9h-1.2v-1.4h1.2c1.4,0,2.5-0.2,3.2-0.7
		c0.8-0.5,1.1-1.1,1.1-2c0-0.8-0.3-1.4-0.9-1.8s-1.4-0.6-2.5-0.6c-0.8,0-1.6,0.1-2.2,0.4c-0.7,0.3-1.2,0.7-1.5,1.1L1248.1,7.8z"/>
	<path class="st0" d="M1266.4,6h1.5l7.4,15.5h-1.9l-2.3-4.8h-8l-2.3,4.8h-1.9L1266.4,6z M1270.8,15.4l-3.6-7.6l-3.6,7.6H1270.8z"/>
	<path class="st0" d="M1275.1,13.6c0-0.9,0.2-1.9,0.6-2.8c0.4-0.9,0.9-1.7,1.6-2.5c0.7-0.7,1.6-1.3,2.7-1.8c1.1-0.5,2.3-0.7,3.6-0.7
		c1.6,0,3,0.3,4.1,0.9c1.1,0.6,2,1.4,2.5,2.4l-1.4,0.7c-0.3-0.5-0.6-0.9-1-1.3c-0.4-0.3-0.9-0.6-1.3-0.8c-0.5-0.2-1-0.4-1.5-0.5
		c-0.5-0.1-1-0.1-1.5-0.1c-1.1,0-2,0.2-2.8,0.6c-0.8,0.4-1.5,0.9-2.1,1.5c-0.6,0.6-1,1.3-1.3,2.1s-0.4,1.5-0.4,2.3
		c0,0.9,0.2,1.7,0.5,2.5c0.3,0.8,0.8,1.5,1.4,2.1c0.6,0.6,1.3,1.1,2.1,1.4c0.8,0.4,1.7,0.5,2.7,0.5c0.5,0,1-0.1,1.5-0.2
		c0.5-0.1,1-0.3,1.5-0.5c0.5-0.2,1-0.5,1.4-0.9c0.4-0.4,0.8-0.8,1.1-1.3l1.5,0.7c-0.3,0.6-0.7,1.1-1.2,1.5c-0.5,0.4-1.1,0.8-1.7,1.1
		c-0.6,0.3-1.3,0.5-2,0.7c-0.7,0.2-1.4,0.2-2.1,0.2c-1.2,0-2.3-0.2-3.4-0.7c-1-0.5-1.9-1.1-2.6-1.8c-0.7-0.7-1.3-1.6-1.7-2.5
		C1275.3,15.5,1275.1,14.6,1275.1,13.6z"/>
	<path class="st0" d="M1305.1,7.3h-6.4v14.1h-1.8V7.3h-6.4V6h14.5V7.3z"/>
	<path class="st0" d="M1313.1,21.5c-1.2,0-2.4-0.2-3.4-0.7c-1-0.4-1.9-1-2.7-1.8c-0.7-0.7-1.3-1.6-1.7-2.5c-0.4-0.9-0.6-1.9-0.6-2.9
		c0-1,0.2-2,0.6-3c0.4-0.9,1-1.8,1.8-2.5c0.8-0.7,1.6-1.3,2.7-1.7c1-0.4,2.1-0.6,3.3-0.6c1.2,0,2.4,0.2,3.4,0.7
		c1,0.5,1.9,1.1,2.6,1.8s1.3,1.6,1.7,2.5c0.4,0.9,0.6,1.9,0.6,2.9c0,1-0.2,2-0.6,3c-0.4,0.9-1,1.8-1.8,2.5c-0.7,0.7-1.6,1.3-2.7,1.7
		C1315.4,21.3,1314.3,21.5,1313.1,21.5z M1306.5,13.7c0,0.8,0.2,1.7,0.5,2.4c0.3,0.8,0.8,1.5,1.4,2.1c0.6,0.6,1.3,1.1,2.1,1.4
		c0.8,0.4,1.7,0.5,2.7,0.5c1,0,1.9-0.2,2.7-0.6c0.8-0.4,1.5-0.9,2.1-1.5c0.6-0.6,1-1.3,1.3-2.1c0.3-0.8,0.5-1.6,0.5-2.4
		c0-0.8-0.2-1.7-0.5-2.4c-0.3-0.8-0.8-1.5-1.4-2.1c-0.6-0.6-1.3-1.1-2.1-1.4c-0.8-0.4-1.7-0.5-2.7-0.5c-1,0-1.9,0.2-2.7,0.6
		c-0.8,0.4-1.5,0.9-2.1,1.5c-0.6,0.6-1,1.3-1.3,2.1C1306.7,12.1,1306.5,12.9,1306.5,13.7z"/>
	<path class="st0" d="M1322.7,13.6c0-0.9,0.2-1.9,0.6-2.8c0.4-0.9,0.9-1.7,1.6-2.5c0.7-0.7,1.6-1.3,2.7-1.8c1.1-0.5,2.3-0.7,3.6-0.7
		c1.6,0,3,0.3,4.1,0.9c1.1,0.6,2,1.4,2.5,2.4l-1.4,0.7c-0.3-0.5-0.6-0.9-1-1.3c-0.4-0.3-0.9-0.6-1.3-0.8c-0.5-0.2-1-0.4-1.5-0.5
		c-0.5-0.1-1-0.1-1.5-0.1c-1.1,0-2,0.2-2.8,0.6c-0.8,0.4-1.5,0.9-2.1,1.5c-0.6,0.6-1,1.3-1.3,2.1s-0.4,1.5-0.4,2.3
		c0,0.9,0.2,1.7,0.5,2.5c0.3,0.8,0.8,1.5,1.4,2.1c0.6,0.6,1.3,1.1,2.1,1.4c0.8,0.4,1.7,0.5,2.7,0.5c0.5,0,1-0.1,1.5-0.2
		c0.5-0.1,1-0.3,1.5-0.5c0.5-0.2,1-0.5,1.4-0.9c0.4-0.4,0.8-0.8,1.1-1.3l1.5,0.7c-0.3,0.6-0.7,1.1-1.2,1.5c-0.5,0.4-1.1,0.8-1.7,1.1
		c-0.6,0.3-1.3,0.5-2,0.7c-0.7,0.2-1.4,0.2-2.1,0.2c-1.2,0-2.3-0.2-3.4-0.7c-1-0.5-1.9-1.1-2.6-1.8c-0.7-0.7-1.3-1.6-1.7-2.5
		C1322.9,15.5,1322.7,14.6,1322.7,13.6z"/>
	<path class="st0" d="M1342.1,21.6c-0.3,0-0.7,0-1-0.1c-0.4-0.1-0.7-0.1-0.9-0.3v-1.3c0.3,0.1,0.6,0.2,0.9,0.3
		c0.3,0.1,0.6,0.1,0.9,0.1c0.3,0,0.6,0,0.8-0.1c0.3-0.1,0.5-0.2,0.7-0.4c0.2-0.2,0.5-0.4,0.7-0.8c0.2-0.3,0.5-0.7,0.7-1.3L1338.4,6
		h1.9l5.6,10.1l5.4-10.1h1.9l-6.5,11.8c-0.4,0.7-0.8,1.3-1.1,1.8c-0.4,0.5-0.7,0.9-1.1,1.2c-0.4,0.3-0.7,0.5-1.1,0.6
		C1343,21.5,1342.6,21.6,1342.1,21.6z"/>
	<path class="st0" d="M1367.9,17.4c0,0.6-0.1,1.1-0.4,1.6c-0.3,0.5-0.6,0.9-1.1,1.3c-0.5,0.4-1,0.6-1.6,0.8
		c-0.6,0.2-1.2,0.3-1.9,0.3h-8.4V6h8.6c0.6,0,1.2,0.1,1.7,0.3c0.5,0.2,0.9,0.5,1.3,0.9c0.4,0.4,0.6,0.8,0.8,1.3
		c0.2,0.5,0.3,0.9,0.3,1.4c0,0.8-0.2,1.5-0.7,2.1c-0.5,0.6-1.1,1.1-1.9,1.4c1,0.3,1.8,0.7,2.4,1.5
		C1367.6,15.7,1367.9,16.5,1367.9,17.4z M1356.3,7.3V13h6.1c0.4,0,0.8-0.1,1.2-0.2c0.4-0.2,0.7-0.4,1-0.6c0.3-0.3,0.5-0.6,0.6-0.9
		c0.2-0.3,0.2-0.7,0.2-1.1c0-0.4-0.1-0.8-0.2-1.1c-0.1-0.3-0.3-0.6-0.6-0.9c-0.3-0.3-0.6-0.5-0.9-0.6c-0.4-0.2-0.7-0.2-1.2-0.2
		H1356.3z M1366.2,17.2c0-0.4-0.1-0.7-0.2-1.1c-0.2-0.4-0.4-0.7-0.6-0.9c-0.3-0.3-0.6-0.5-1-0.7c-0.4-0.2-0.8-0.3-1.2-0.3h-6.8v5.9
		h6.7c0.5,0,0.9-0.1,1.3-0.2c0.4-0.2,0.7-0.4,1-0.6c0.3-0.3,0.5-0.6,0.7-0.9C1366.1,17.9,1366.2,17.5,1366.2,17.2z"/>
	<path class="st0" d="M1375.8,6h1.5l7.4,15.5h-1.9l-2.3-4.8h-8l-2.3,4.8h-1.9L1375.8,6z M1380.1,15.4l-3.6-7.6l-3.6,7.6H1380.1z"/>
	<path class="st0" d="M1400.4,6v15.5h-1.7v-7.2h-10.6v7.2h-1.8V6h1.8v6.9h10.6V6H1400.4z"/>
	<path class="st0" d="M1418.1,6v15.5h-1.7v-7.2h-10.6v7.2h-1.8V6h1.8v6.9h10.6V6H1418.1z"/>
	<path class="st0" d="M1434.8,21.5c-1.1,0-2.1-0.2-3.1-0.5c-0.9-0.3-1.7-0.8-2.4-1.5c-0.7-0.6-1.2-1.4-1.6-2.3
		c-0.4-0.9-0.6-1.9-0.7-2.9h-3.4v7.1h-1.8V6h1.8v7h3.4c0.1-1.1,0.3-2.1,0.8-3c0.4-0.9,1-1.6,1.7-2.2c0.7-0.6,1.5-1.1,2.4-1.4
		c0.9-0.3,1.9-0.5,3-0.5c1.2,0,2.3,0.2,3.3,0.6c1,0.4,1.8,0.9,2.6,1.6c0.7,0.7,1.3,1.5,1.6,2.5c0.4,1,0.6,2,0.6,3.1
		c0,1.2-0.2,2.3-0.6,3.2c-0.4,1-1,1.8-1.7,2.5c-0.7,0.7-1.6,1.2-2.6,1.6C1437,21.3,1435.9,21.5,1434.8,21.5z M1428.6,13.7
		c0,1,0.1,1.9,0.4,2.7c0.3,0.8,0.7,1.5,1.3,2c0.5,0.6,1.2,1,1.9,1.3c0.8,0.3,1.6,0.4,2.5,0.4c1,0,1.9-0.2,2.6-0.5
		c0.8-0.3,1.5-0.8,2-1.3c0.6-0.6,1-1.3,1.3-2c0.3-0.8,0.4-1.7,0.4-2.6c0-1-0.2-1.9-0.5-2.7c-0.3-0.8-0.7-1.5-1.3-2
		c-0.6-0.6-1.2-1-2-1.3c-0.8-0.3-1.6-0.4-2.6-0.4c-0.9,0-1.8,0.2-2.5,0.5c-0.8,0.3-1.4,0.8-1.9,1.3c-0.5,0.6-0.9,1.2-1.2,2
		C1428.8,11.8,1428.6,12.7,1428.6,13.7z"/>
	<path class="st0" d="M1463.4,7.3h-6.4v14.1h-1.8V7.3h-6.4V6h14.5V7.3z"/>
	<path class="st0" d="M1468.9,6h1.5l7.4,15.5h-1.9l-2.3-4.8h-8l-2.3,4.8h-1.9L1468.9,6z M1473.2,15.4l-3.6-7.6l-3.6,7.6H1473.2z"/>
	<path class="st0" d="M1484.9,6h13.8v15.5h-1.8V7.3h-10.3v14.1h-1.7V6z"/>
	<path class="st0" d="M1502.2,21.4V6h7.4c0.8,0,1.5,0.1,2.1,0.4c0.6,0.3,1.2,0.7,1.7,1.1c0.5,0.5,0.8,1,1.1,1.6
		c0.3,0.6,0.4,1.2,0.4,1.8c0,0.6-0.1,1.3-0.4,1.8c-0.3,0.6-0.6,1.1-1.1,1.6c-0.5,0.5-1,0.8-1.6,1.1c-0.6,0.3-1.3,0.4-2.1,0.4h-5.8
		v5.7H1502.2z M1504,14.4h5.7c0.5,0,1-0.1,1.4-0.3c0.4-0.2,0.8-0.5,1.1-0.8c0.3-0.3,0.5-0.7,0.7-1.1c0.2-0.4,0.3-0.9,0.3-1.3
		c0-0.5-0.1-0.9-0.3-1.4c-0.2-0.4-0.5-0.8-0.8-1.1c-0.3-0.3-0.7-0.6-1.2-0.8c-0.4-0.2-0.9-0.3-1.4-0.3h-5.6V14.4z"/>
	<path class="st0" d="M1524.1,21.5c-1.2,0-2.4-0.2-3.4-0.7c-1-0.4-1.9-1-2.7-1.8c-0.7-0.7-1.3-1.6-1.7-2.5c-0.4-0.9-0.6-1.9-0.6-2.9
		c0-1,0.2-2,0.6-3c0.4-0.9,1-1.8,1.8-2.5c0.8-0.7,1.6-1.3,2.7-1.7c1-0.4,2.1-0.6,3.3-0.6c1.2,0,2.4,0.2,3.4,0.7
		c1,0.5,1.9,1.1,2.6,1.8s1.3,1.6,1.7,2.5c0.4,0.9,0.6,1.9,0.6,2.9c0,1-0.2,2-0.6,3c-0.4,0.9-1,1.8-1.8,2.5c-0.7,0.7-1.6,1.3-2.7,1.7
		C1526.4,21.3,1525.3,21.5,1524.1,21.5z M1517.5,13.7c0,0.8,0.2,1.7,0.5,2.4c0.3,0.8,0.8,1.5,1.4,2.1c0.6,0.6,1.3,1.1,2.1,1.4
		c0.8,0.4,1.7,0.5,2.7,0.5c1,0,1.9-0.2,2.7-0.6c0.8-0.4,1.5-0.9,2.1-1.5c0.6-0.6,1-1.3,1.3-2.1c0.3-0.8,0.5-1.6,0.5-2.4
		c0-0.8-0.2-1.7-0.5-2.4c-0.3-0.8-0.8-1.5-1.4-2.1c-0.6-0.6-1.3-1.1-2.1-1.4c-0.8-0.4-1.7-0.5-2.7-0.5c-1,0-1.9,0.2-2.7,0.6
		c-0.8,0.4-1.5,0.9-2.1,1.5c-0.6,0.6-1,1.3-1.3,2.1C1517.6,12.1,1517.5,12.9,1517.5,13.7z"/>
	<path class="st0" d="M1536.6,12.8h2.7l5.8-6.9h2l-6.3,7.4l6.9,8h-2l-6.3-7.3h-2.9v7.3h-1.7V6h1.7V12.8z"/>
	<path class="st0" d="M1555.5,21.5c-1.2,0-2.4-0.2-3.4-0.7c-1-0.4-1.9-1-2.7-1.8c-0.7-0.7-1.3-1.6-1.7-2.5c-0.4-0.9-0.6-1.9-0.6-2.9
		c0-1,0.2-2,0.6-3c0.4-0.9,1-1.8,1.8-2.5c0.8-0.7,1.6-1.3,2.7-1.7s2.1-0.6,3.3-0.6c1.2,0,2.4,0.2,3.4,0.7c1,0.5,1.9,1.1,2.6,1.8
		s1.3,1.6,1.7,2.5c0.4,0.9,0.6,1.9,0.6,2.9c0,1-0.2,2-0.6,3c-0.4,0.9-1,1.8-1.8,2.5c-0.7,0.7-1.6,1.3-2.7,1.7
		C1557.8,21.3,1556.7,21.5,1555.5,21.5z M1548.9,13.7c0,0.8,0.2,1.7,0.5,2.4c0.3,0.8,0.8,1.5,1.4,2.1c0.6,0.6,1.3,1.1,2.1,1.4
		c0.8,0.4,1.7,0.5,2.7,0.5c1,0,1.9-0.2,2.7-0.6c0.8-0.4,1.5-0.9,2.1-1.5c0.6-0.6,1-1.3,1.3-2.1c0.3-0.8,0.5-1.6,0.5-2.4
		c0-0.8-0.2-1.7-0.5-2.4c-0.3-0.8-0.8-1.5-1.4-2.1c-0.6-0.6-1.3-1.1-2.1-1.4c-0.8-0.4-1.7-0.5-2.7-0.5c-1,0-1.9,0.2-2.7,0.6
		c-0.8,0.4-1.5,0.9-2.1,1.5c-0.6,0.6-1,1.3-1.3,2.1C1549.1,12.1,1548.9,12.9,1548.9,13.7z"/>
	<path class="st0" d="M1580.3,6v15.5h-1.7v-7.2H1568v7.2h-1.8V6h1.8v6.9h10.6V6H1580.3z"/>
	<path class="st0" d="M1582.7,13.6c0-0.9,0.2-1.9,0.6-2.8c0.4-0.9,0.9-1.7,1.6-2.5c0.7-0.7,1.6-1.3,2.7-1.8c1.1-0.5,2.3-0.7,3.6-0.7
		c1.6,0,3,0.3,4.1,0.9c1.1,0.6,2,1.4,2.5,2.4l-1.4,0.7c-0.3-0.5-0.6-0.9-1-1.3c-0.4-0.3-0.9-0.6-1.3-0.8c-0.5-0.2-1-0.4-1.5-0.5
		c-0.5-0.1-1-0.1-1.5-0.1c-1.1,0-2,0.2-2.8,0.6c-0.8,0.4-1.5,0.9-2.1,1.5s-1,1.3-1.3,2.1c-0.3,0.8-0.4,1.5-0.4,2.3
		c0,0.9,0.2,1.7,0.5,2.5s0.8,1.5,1.4,2.1c0.6,0.6,1.3,1.1,2.1,1.4c0.8,0.4,1.7,0.5,2.7,0.5c0.5,0,1-0.1,1.5-0.2
		c0.5-0.1,1-0.3,1.5-0.5c0.5-0.2,1-0.5,1.4-0.9c0.4-0.4,0.8-0.8,1.1-1.3l1.5,0.7c-0.3,0.6-0.7,1.1-1.2,1.5c-0.5,0.4-1.1,0.8-1.7,1.1
		c-0.6,0.3-1.3,0.5-2,0.7c-0.7,0.2-1.4,0.2-2.1,0.2c-1.2,0-2.3-0.2-3.4-0.7c-1-0.5-1.9-1.1-2.6-1.8c-0.7-0.7-1.3-1.6-1.7-2.5
		C1582.9,15.5,1582.7,14.6,1582.7,13.6z"/>
	<path class="st0" d="M1602.1,21.6c-0.3,0-0.7,0-1-0.1c-0.4-0.1-0.7-0.1-0.9-0.3v-1.3c0.3,0.1,0.6,0.2,0.9,0.3
		c0.3,0.1,0.6,0.1,0.9,0.1c0.3,0,0.6,0,0.8-0.1s0.5-0.2,0.7-0.4c0.2-0.2,0.5-0.4,0.7-0.8c0.2-0.3,0.5-0.7,0.7-1.3L1598.5,6h1.9
		l5.6,10.1l5.4-10.1h1.9l-6.5,11.8c-0.4,0.7-0.8,1.3-1.1,1.8c-0.4,0.5-0.7,0.9-1.1,1.2c-0.4,0.3-0.7,0.5-1.1,0.6
		C1603,21.5,1602.6,21.6,1602.1,21.6z"/>
	<path class="st0" d="M1616.8,10c-0.2,2-0.5,3.8-0.8,5.2c-0.3,1.5-0.7,2.6-1.2,3.6c-0.5,0.9-1,1.6-1.7,2c-0.6,0.4-1.4,0.6-2.3,0.6
		l-0.3-1.5c0.3,0,0.7-0.1,1-0.2c0.3-0.1,0.6-0.3,0.9-0.6c0.3-0.3,0.6-0.6,0.8-1.1c0.3-0.5,0.5-1.1,0.7-1.8c0.2-0.7,0.4-1.7,0.6-2.7
		s0.3-2.3,0.5-3.8l0.4-4h9.1v15.5h-1.7V7.3h-5.7L1616.8,10z"/>
	<path class="st0" d="M1628.2,6h1.7v5.9h4.2c0.9,0,1.7,0.1,2.4,0.3c0.7,0.2,1.3,0.5,1.8,0.9c0.5,0.4,0.9,0.9,1.2,1.5
		c0.3,0.6,0.4,1.3,0.4,2c0,0.7-0.1,1.4-0.4,2c-0.3,0.6-0.7,1.1-1.2,1.5c-0.5,0.4-1.1,0.7-1.8,0.9c-0.7,0.2-1.5,0.3-2.3,0.3h-6V6z
		 M1629.9,20.1h4.2c0.7,0,1.3-0.1,1.8-0.3c0.5-0.2,0.9-0.4,1.3-0.7c0.3-0.3,0.6-0.7,0.7-1.1c0.2-0.4,0.2-0.9,0.2-1.4
		c0-0.5-0.1-1-0.2-1.4c-0.2-0.4-0.4-0.8-0.7-1.1c-0.3-0.3-0.8-0.5-1.3-0.7c-0.5-0.2-1.1-0.3-1.8-0.3h-4.2V20.1z"/>
	<path class="st0" d="M1652.6,7.3h-6.4v14.1h-1.8V7.3h-6.4V6h14.5V7.3z"/>
	<path class="st0" d="M1656.2,21.6c-0.3,0-0.7,0-1-0.1c-0.4-0.1-0.7-0.1-0.9-0.3v-1.3c0.3,0.1,0.6,0.2,0.9,0.3
		c0.3,0.1,0.6,0.1,0.9,0.1c0.3,0,0.6,0,0.8-0.1c0.3-0.1,0.5-0.2,0.7-0.4c0.2-0.2,0.5-0.4,0.7-0.8c0.2-0.3,0.5-0.7,0.7-1.3L1652.5,6
		h1.9L1660,16l5.4-10.1h1.9l-6.5,11.8c-0.4,0.7-0.8,1.3-1.1,1.8c-0.4,0.5-0.7,0.9-1.1,1.2c-0.4,0.3-0.7,0.5-1.1,0.6
		C1657.1,21.5,1656.7,21.6,1656.2,21.6z"/>
	<path class="st0" d="M1670.7,19.1L1681.8,6h1.5v15.5h-1.8v-13l-10.9,13h-1.6V6h1.7V19.1z M1680,1.5c0,0.7-0.4,1.3-1,1.7
		c-0.6,0.4-1.5,0.6-2.7,0.6c-1.1,0-2-0.2-2.7-0.6s-1-1-1-1.7h1.1c0,0.2,0.1,0.4,0.2,0.5c0.1,0.2,0.3,0.3,0.6,0.5
		c0.2,0.1,0.5,0.2,0.8,0.3c0.3,0.1,0.7,0.1,1.1,0.1c0.7,0,1.3-0.1,1.8-0.4c0.5-0.3,0.7-0.6,0.8-1H1680z"/>
	<path class="st0" d="M1699.4,7.3h-6.4v14.1h-1.8V7.3h-6.4V6h14.5V7.3z"/>
	<path class="st0" d="M1713.1,20.1v1.4h-12V6h11.8v1.4h-10v5.6h8.7v1.3h-8.7v5.9H1713.1z"/>
	<path class="st0" d="M1713.9,13.6c0-0.9,0.2-1.9,0.6-2.8c0.4-0.9,0.9-1.7,1.6-2.5c0.7-0.7,1.6-1.3,2.7-1.8c1.1-0.5,2.3-0.7,3.6-0.7
		c1.6,0,3,0.3,4.1,0.9c1.1,0.6,2,1.4,2.5,2.4l-1.4,0.7c-0.3-0.5-0.6-0.9-1-1.3c-0.4-0.3-0.9-0.6-1.3-0.8c-0.5-0.2-1-0.4-1.5-0.5
		c-0.5-0.1-1-0.1-1.5-0.1c-1.1,0-2,0.2-2.8,0.6c-0.8,0.4-1.5,0.9-2.1,1.5c-0.6,0.6-1,1.3-1.3,2.1s-0.4,1.5-0.4,2.3
		c0,0.9,0.2,1.7,0.5,2.5c0.3,0.8,0.8,1.5,1.4,2.1c0.6,0.6,1.3,1.1,2.1,1.4c0.8,0.4,1.7,0.5,2.7,0.5c0.5,0,1-0.1,1.5-0.2
		c0.5-0.1,1-0.3,1.5-0.5c0.5-0.2,1-0.5,1.4-0.9c0.4-0.4,0.8-0.8,1.1-1.3l1.5,0.7c-0.3,0.6-0.7,1.1-1.2,1.5c-0.5,0.4-1.1,0.8-1.7,1.1
		c-0.6,0.3-1.3,0.5-2,0.7c-0.7,0.2-1.4,0.2-2.1,0.2c-1.2,0-2.3-0.2-3.4-0.7c-1-0.5-1.9-1.1-2.6-1.8c-0.7-0.7-1.3-1.6-1.7-2.5
		C1714.1,15.5,1713.9,14.6,1713.9,13.6z"/>
	<path class="st0" d="M1741,21.4v-6.2h-4.7l-4.3,6.2h-2.1l4.6-6.4c-0.6-0.2-1.1-0.4-1.5-0.7c-0.4-0.3-0.8-0.6-1.1-1
		c-0.3-0.4-0.6-0.8-0.7-1.3c-0.2-0.5-0.3-1-0.3-1.5c0-0.6,0.1-1.1,0.4-1.7c0.3-0.6,0.6-1,1.1-1.5c0.5-0.4,1.1-0.8,1.7-1
		c0.7-0.3,1.4-0.4,2.2-0.4h6.4v15.5H1741z M1741,7.3h-4.6c-0.5,0-1,0.1-1.5,0.3c-0.5,0.2-0.9,0.4-1.2,0.7c-0.3,0.3-0.6,0.6-0.8,1
		c-0.2,0.4-0.3,0.8-0.3,1.3c0,0.4,0.1,0.9,0.3,1.3s0.4,0.8,0.7,1.1c0.3,0.3,0.7,0.5,1.1,0.7c0.5,0.2,1,0.3,1.6,0.3h4.7V7.3z"/>
	<path class="st0" d="M1750.8,7.8c0.5-0.6,1.2-1.1,2-1.4c0.8-0.3,1.8-0.5,2.9-0.5c1.6,0,2.9,0.3,3.8,0.9c0.9,0.6,1.3,1.5,1.3,2.7
		c0,0.9-0.3,1.6-0.8,2.3c-0.5,0.6-1.3,1-2.2,1.2c1.2,0.1,2.1,0.6,2.8,1.3c0.7,0.7,1,1.6,1,2.6c0,0.7-0.2,1.3-0.5,1.9
		c-0.3,0.6-0.7,1.1-1.2,1.5c-0.5,0.4-1.2,0.7-1.9,1c-0.7,0.2-1.6,0.3-2.4,0.3c-1.2,0-2.3-0.2-3.2-0.7c-1-0.4-1.7-1-2.2-1.8l1.4-0.9
		c0.4,0.6,0.9,1.1,1.6,1.4c0.7,0.4,1.5,0.5,2.5,0.5c0.6,0,1.2-0.1,1.7-0.2c0.5-0.2,1-0.4,1.3-0.6c0.4-0.3,0.7-0.6,0.9-1
		c0.2-0.4,0.3-0.8,0.3-1.3c0-1-0.5-1.8-1.4-2.4c-0.9-0.6-2.2-0.9-3.8-0.9h-1.2v-1.4h1.2c1.4,0,2.5-0.2,3.2-0.7
		c0.8-0.5,1.1-1.1,1.1-2c0-0.8-0.3-1.4-0.9-1.8s-1.4-0.6-2.5-0.6c-0.8,0-1.6,0.1-2.2,0.4c-0.7,0.3-1.2,0.7-1.5,1.1L1750.8,7.8z"/>
	<path class="st0" d="M1773.5,10c-0.2,2-0.5,3.8-0.8,5.2s-0.7,2.6-1.2,3.6c-0.5,0.9-1,1.6-1.7,2c-0.6,0.4-1.4,0.6-2.3,0.6l-0.3-1.5
		c0.3,0,0.7-0.1,1-0.2c0.3-0.1,0.6-0.3,0.9-0.6c0.3-0.3,0.6-0.6,0.8-1.1c0.3-0.5,0.5-1.1,0.7-1.8c0.2-0.7,0.4-1.7,0.6-2.7
		s0.3-2.3,0.5-3.8l0.4-4h9.1v15.5h-1.7V7.3h-5.7L1773.5,10z"/>
	<path class="st0" d="M1784.8,21.4V6h1.8v15.5H1784.8z"/>
	<path class="st0" d="M1791.9,12.8h2.7l5.8-6.9h2l-6.3,7.4l6.9,8h-2l-6.3-7.3h-2.9v7.3h-1.7V6h1.7V12.8z"/>
	<path class="st0" d="M1809.8,6h1.5l7.4,15.5h-1.9l-2.3-4.8h-8l-2.3,4.8h-1.9L1809.8,6z M1814.2,15.4l-3.6-7.6l-3.6,7.6H1814.2z"/>
	<path class="st0" d="M1820.4,21.4V6h7.4c0.8,0,1.5,0.1,2.1,0.4c0.6,0.3,1.2,0.7,1.7,1.1c0.5,0.5,0.8,1,1.1,1.6
		c0.3,0.6,0.4,1.2,0.4,1.8c0,0.6-0.1,1.3-0.4,1.8c-0.3,0.6-0.6,1.1-1.1,1.6c-0.5,0.5-1,0.8-1.6,1.1c-0.6,0.3-1.3,0.4-2.1,0.4h-5.8
		v5.7H1820.4z M1822.1,14.4h5.7c0.5,0,1-0.1,1.4-0.3c0.4-0.2,0.8-0.5,1.1-0.8c0.3-0.3,0.5-0.7,0.7-1.1c0.2-0.4,0.3-0.9,0.3-1.3
		c0-0.5-0.1-0.9-0.3-1.4c-0.2-0.4-0.5-0.8-0.8-1.1c-0.3-0.3-0.7-0.6-1.2-0.8c-0.4-0.2-0.9-0.3-1.4-0.3h-5.6V14.4z"/>
	<path class="st0" d="M1847.1,20.1v1.4h-12V6h11.8v1.4h-10v5.6h8.7v1.3h-8.7v5.9H1847.1z"/>
	<path class="st0" d="M1865.2,21.4V8.7l-6.5,9.8h-1l-6.5-9.8v12.7h-1.8V6h1.8l7,10.6l7-10.6h1.8v15.5H1865.2z"/>
</g>
</svg>
