<?xml version="1.0" encoding="utf-8"?>
<!-- Generator: Adobe Illustrator 19.1.0, SVG Export Plug-In . SVG Version: 6.00 Build 0)  -->
<svg version="1.1" id="Capa_1" xmlns="http://www.w3.org/2000/svg" xmlns:xlink="http://www.w3.org/1999/xlink" x="0px" y="0px"
	 viewBox="0 0 39 39" style="enable-background:new 0 0 39 39;" xml:space="preserve">
<style type="text/css">
	.st0{fill:#28a1de;}
</style>
<g>
	<path class="st0" d="M19.5,34.4c-0.3,0-0.6,0.3-0.6,0.6c0,0.3,0.3,0.6,0.6,0.6s0.6-0.3,0.6-0.6C20.1,34.7,19.8,34.4,19.5,34.4z
		 M19.5,31c-0.3,0-0.6,0.3-0.6,0.6c0,0.3,0.3,0.6,0.6,0.6s0.6-0.3,0.6-0.6C20.1,31.3,19.8,31,19.5,31z M19.5,37.9
		c-0.3,0-0.6,0.3-0.6,0.6c0,0.3,0.3,0.6,0.6,0.6s0.6-0.3,0.6-0.6C20.1,38.1,19.8,37.9,19.5,37.9z M30.7,26.1l-2.5-0.9
		c1.4-1,2.3-2.6,2.3-4.4c0,0,0-9.9,0-9.9c0-2.9-1.1-5.7-3.2-7.8C25.2,1.1,22.4,0,19.5,0c-1.9,0-3.7,0.5-5.4,1.4
		c-0.3,0.2-0.4,0.5-0.2,0.8c0.2,0.3,0.5,0.4,0.8,0.2c1.5-0.8,3.1-1.3,4.8-1.3c2.6,0,5.1,1,6.9,2.9c1.9,1.9,2.9,4.3,2.9,6.9v0
		c-0.3-0.2-0.7-0.3-1.1-0.3h-0.5c-1.5-0.3-3-0.7-4.5-1.3c-1.1-0.5-2.1-1-3.1-1.6c-0.3-0.2-0.8-0.2-1.1,0.1c-0.8,0.6-1.6,1.1-2.5,1.5
		c-1.6,0.8-3.3,1.2-5,1.3h-0.6c-0.4,0-0.8,0.1-1.1,0.3v0c0-2.7,1-5.1,2.9-7c0.2-0.2,0.2-0.6,0-0.8c-0.2-0.2-0.6-0.2-0.8,0
		C9.7,5.2,8.5,8,8.5,11v9.9c0,1.8,0.9,3.4,2.3,4.4l-2.5,0.9c-2.1,0.7-3.5,2.7-3.5,4.9v7.4C4.8,38.7,5,39,5.3,39
		c0.3,0,0.6-0.3,0.6-0.6V31c0-1.7,1.1-3.2,2.7-3.8l1-0.3c-0.1,0.6-0.2,1.2-0.2,1.8c0,0.6,0.1,1.2,0.3,1.7c-1.1,0.3-1.9,1.4-1.9,2.6
		v2.3c0,0.6,0.5,1,1,1h0.6c0.3,0,0.6-0.3,0.6-0.6c0-0.3-0.3-0.6-0.6-0.6H9V33c0-0.9,0.7-1.6,1.6-1.6c0,0,0,0,0,0s0,0,0,0
		c0.9,0,1.5,0.7,1.5,1.6v2.2h-0.5c-0.3,0-0.6,0.3-0.6,0.6c0,0.3,0.3,0.6,0.6,0.6h0.6c0.6,0,1-0.5,1-1V33c0-1.3-1-2.5-2.3-2.7
		c-0.2-0.5-0.3-1.1-0.3-1.7c0-0.8,0.1-1.5,0.4-2.2l3.9-1.3l4.1,4.1c0.3,0.3,0.9,0.3,1.2,0l1.1-1.1c0.2-0.2,0.2-0.6,0-0.8
		c-0.2-0.2-0.6-0.2-0.8,0l-0.9,0.9L16,24.6c0.5-0.5,0.8-1.2,0.7-1.9c0.9,0.3,1.8,0.5,2.8,0.5c1,0,1.9-0.2,2.8-0.5
		c-0.1,0.7,0.2,1.5,0.8,2l-0.7,0.7c-0.2,0.2-0.2,0.6,0,0.8c0.2,0.2,0.6,0.2,0.8,0l1-1l3.5,1.2c0.3,0.7,0.4,1.4,0.4,2.1
		c0,0.6-0.1,1.3-0.4,1.9c-1.5,0.2-2.6,1.5-2.6,3c0,1.7,1.4,3,3,3c1.7,0,3-1.4,3-3c0-1.4-1-2.6-2.2-2.9c0.2-0.6,0.3-1.3,0.3-2
		c0-0.6-0.1-1.1-0.2-1.7l1.3,0.4c1.6,0.5,2.7,2.1,2.7,3.8v7.4c0,0.3,0.3,0.6,0.6,0.6c0.3,0,0.6-0.3,0.6-0.6V31
		C34.2,28.8,32.8,26.8,30.7,26.1z M28.2,11.8L28.2,11.8c0.6,0,1.2,0.5,1.2,1.1v0c0,0.6-0.5,1.1-1.2,1.1V11.8z M9.7,12.9
		c0-0.6,0.5-1.1,1.2-1.1v2.3C10.2,14.1,9.7,13.6,9.7,12.9L9.7,12.9z M15.5,23c0,0.4-0.3,0.8-0.6,0.9l-2.6,0.9
		c-1.6-0.7-2.6-2.2-2.6-3.9v-6c0.4,0.2,0.8,0.3,1.2,0.3c0.3,3,2.1,5.7,4.7,7V23z M19.5,22c-4.1,0-7.5-3.4-7.5-7.6v-2.7
		c1.7-0.2,3.4-0.7,4.9-1.4c0.9-0.4,1.8-1,2.6-1.6c1,0.6,2.1,1.2,3.2,1.7c1.4,0.6,2.8,1,4.3,1.3v2.8c0,2-0.8,3.9-2.2,5.3
		C23.4,21.3,21.5,22,19.5,22z M26.7,24.8l-2.6-0.9c-0.4-0.1-0.6-0.5-0.6-0.9v-0.8c0.8-0.4,1.5-0.9,2.2-1.6c1.5-1.5,2.4-3.4,2.5-5.4
		c0.4,0,0.8-0.1,1.2-0.3v6C29.3,22.6,28.3,24.1,26.7,24.8L26.7,24.8z M30,33.4c0,1-0.8,1.9-1.9,1.9c-1,0-1.9-0.8-1.9-1.9
		c0-1,0.8-1.9,1.9-1.9c0,0,0,0,0,0c0,0,0,0,0,0C29.2,31.5,30,32.3,30,33.4z M23.2,12.3c-0.3,0-0.6,0.3-0.6,0.6v1.3
		c0,0.3,0.3,0.6,0.6,0.6s0.6-0.3,0.6-0.6v-1.3C23.8,12.5,23.5,12.3,23.2,12.3z M20.3,17.7c-0.1,0.1-0.4,0.2-0.8,0.3
		c-0.4,0-0.7-0.2-0.9-0.3c-0.3-0.2-0.6-0.1-0.8,0.1c-0.2,0.3-0.1,0.6,0.1,0.8c0.3,0.2,0.8,0.5,1.5,0.5c0.6,0,1.2-0.3,1.5-0.5
		c0.3-0.2,0.3-0.5,0.1-0.8C20.9,17.6,20.6,17.5,20.3,17.7z M15.8,12.3c-0.3,0-0.6,0.3-0.6,0.6v1.3c0,0.3,0.3,0.6,0.6,0.6
		s0.6-0.3,0.6-0.6v-1.3C16.4,12.5,16.1,12.3,15.8,12.3z"/>
</g>
</svg>
