<?xml version="1.0" encoding="utf-8"?>
<!-- Generator: Adobe Illustrator 22.0.1, SVG Export Plug-In . SVG Version: 6.00 Build 0)  -->
<svg version="1.1" id="Слой_1" xmlns="http://www.w3.org/2000/svg" xmlns:xlink="http://www.w3.org/1999/xlink" x="0px" y="0px"
	 viewBox="0 0 595.3 841.9" style="enable-background:new 0 0 595.3 841.9;" xml:space="preserve">
<style type="text/css">
	.st0{fill:url(#SVGID_1_);}
	.st1{fill:url(#SVGID_2_);}
	.st2{fill:url(#SVGID_3_);}
	.st3{fill:url(#SVGID_4_);}
	.st4{fill:url(#SVGID_5_);}
	.st5{fill:url(#SVGID_6_);}
	.st6{fill:url(#SVGID_7_);}
	.st7{fill:url(#SVGID_8_);}
	.st8{fill:url(#SVGID_9_);}
	.st9{fill:url(#SVGID_10_);}
	.st10{fill:url(#SVGID_11_);}
	.st11{fill:url(#SVGID_12_);}
	.st12{fill:url(#SVGID_13_);}
	.st13{fill:url(#SVGID_14_);}
	.st14{fill:url(#SVGID_15_);}
	.st15{fill:url(#SVGID_16_);}
	.st16{fill:url(#SVGID_17_);}
	.st17{fill:url(#SVGID_18_);}
	.st18{fill:url(#SVGID_19_);}
	.st19{fill:url(#SVGID_20_);}
</style>
<g>
	<linearGradient id="SVGID_1_" gradientUnits="userSpaceOnUse" x1="549.6378" y1="420.9449" x2="28.5764" y2="420.9449">
		<stop  offset="0" style="stop-color:#939598"/>
		<stop  offset="0.1429" style="stop-color:#ECEEEF"/>
		<stop  offset="0.1597" style="stop-color:#DFE0E1"/>
		<stop  offset="0.2195" style="stop-color:#B4B5B6"/>
		<stop  offset="0.2773" style="stop-color:#939394"/>
		<stop  offset="0.3318" style="stop-color:#7B7A7C"/>
		<stop  offset="0.3819" style="stop-color:#6C6B6D"/>
		<stop  offset="0.4231" style="stop-color:#676668"/>
		<stop  offset="0.5028" style="stop-color:#878789"/>
		<stop  offset="0.6773" style="stop-color:#D8DADC"/>
		<stop  offset="0.7363" style="stop-color:#F5F8F9"/>
		<stop  offset="0.838" style="stop-color:#D7DADC"/>
		<stop  offset="1" style="stop-color:#ABADB2"/>
	</linearGradient>
	<path class="st0" d="M297.6,324.9c-52.9,0-96,43.1-96,96s43.1,96,96,96s96-43.1,96-96S350.6,324.9,297.6,324.9z M297.6,500.9
		c-44.1,0-80-35.9-80-80s35.9-80,80-80s80,35.9,80,80S341.7,500.9,297.6,500.9z"/>
	<linearGradient id="SVGID_2_" gradientUnits="userSpaceOnUse" x1="549.6378" y1="420.9449" x2="28.5764" y2="420.9449">
		<stop  offset="0" style="stop-color:#939598"/>
		<stop  offset="0.1429" style="stop-color:#ECEEEF"/>
		<stop  offset="0.1597" style="stop-color:#DFE0E1"/>
		<stop  offset="0.2195" style="stop-color:#B4B5B6"/>
		<stop  offset="0.2773" style="stop-color:#939394"/>
		<stop  offset="0.3318" style="stop-color:#7B7A7C"/>
		<stop  offset="0.3819" style="stop-color:#6C6B6D"/>
		<stop  offset="0.4231" style="stop-color:#676668"/>
		<stop  offset="0.5028" style="stop-color:#878789"/>
		<stop  offset="0.6773" style="stop-color:#D8DADC"/>
		<stop  offset="0.7363" style="stop-color:#F5F8F9"/>
		<stop  offset="0.838" style="stop-color:#D7DADC"/>
		<stop  offset="1" style="stop-color:#ABADB2"/>
	</linearGradient>
	<path class="st1" d="M355.3,420c-10.4-2.9-17.7-12.3-17.7-23c0-4.7,1.4-9.3,4-13.2l3.8-5.8l-5.2-4.6
		c-11.8-10.6-26.9-16.4-42.7-16.4c-35.3,0-64,28.7-64,64s28.7,64,64,64c32.4,0,59.6-24.2,63.5-56.3l0.8-6.8L355.3,420z M297.6,468.9
		c-26.5,0-48-21.5-48-48s21.5-48,48-48c9.7,0,19.2,3,27.2,8.5c-2.1,4.9-3.2,10.2-3.2,15.5c0,15.4,9,29.2,22.5,35.8
		C338.8,453.8,319.8,468.9,297.6,468.9z"/>
	<linearGradient id="SVGID_3_" gradientUnits="userSpaceOnUse" x1="549.6378" y1="436.9449" x2="28.5764" y2="436.9449">
		<stop  offset="0" style="stop-color:#939598"/>
		<stop  offset="0.1429" style="stop-color:#ECEEEF"/>
		<stop  offset="0.1597" style="stop-color:#DFE0E1"/>
		<stop  offset="0.2195" style="stop-color:#B4B5B6"/>
		<stop  offset="0.2773" style="stop-color:#939394"/>
		<stop  offset="0.3318" style="stop-color:#7B7A7C"/>
		<stop  offset="0.3819" style="stop-color:#6C6B6D"/>
		<stop  offset="0.4231" style="stop-color:#676668"/>
		<stop  offset="0.5028" style="stop-color:#878789"/>
		<stop  offset="0.6773" style="stop-color:#D8DADC"/>
		<stop  offset="0.7363" style="stop-color:#F5F8F9"/>
		<stop  offset="0.838" style="stop-color:#D7DADC"/>
		<stop  offset="1" style="stop-color:#ABADB2"/>
	</linearGradient>
	<path class="st2" d="M281.6,420.9h-16c0,17.6,14.4,32,32,32v-16C288.8,436.9,281.6,429.8,281.6,420.9z"/>
	<linearGradient id="SVGID_4_" gradientUnits="userSpaceOnUse" x1="549.6378" y1="216.3289" x2="28.5764" y2="216.3289">
		<stop  offset="0" style="stop-color:#939598"/>
		<stop  offset="0.1429" style="stop-color:#ECEEEF"/>
		<stop  offset="0.1597" style="stop-color:#DFE0E1"/>
		<stop  offset="0.2195" style="stop-color:#B4B5B6"/>
		<stop  offset="0.2773" style="stop-color:#939394"/>
		<stop  offset="0.3318" style="stop-color:#7B7A7C"/>
		<stop  offset="0.3819" style="stop-color:#6C6B6D"/>
		<stop  offset="0.4231" style="stop-color:#676668"/>
		<stop  offset="0.5028" style="stop-color:#878789"/>
		<stop  offset="0.6773" style="stop-color:#D8DADC"/>
		<stop  offset="0.7363" style="stop-color:#F5F8F9"/>
		<stop  offset="0.838" style="stop-color:#D7DADC"/>
		<stop  offset="1" style="stop-color:#ABADB2"/>
	</linearGradient>
	<path class="st3" d="M235.8,197.3l-4.2-15.4c-38,10.5-73.4,30.3-102.5,57.2l10.9,11.7C167.1,225.6,200.2,207.1,235.8,197.3z"/>
	<linearGradient id="SVGID_5_" gradientUnits="userSpaceOnUse" x1="549.6378" y1="325.3609" x2="28.5764" y2="325.3609">
		<stop  offset="0" style="stop-color:#939598"/>
		<stop  offset="0.1429" style="stop-color:#ECEEEF"/>
		<stop  offset="0.1597" style="stop-color:#DFE0E1"/>
		<stop  offset="0.2195" style="stop-color:#B4B5B6"/>
		<stop  offset="0.2773" style="stop-color:#939394"/>
		<stop  offset="0.3318" style="stop-color:#7B7A7C"/>
		<stop  offset="0.3819" style="stop-color:#6C6B6D"/>
		<stop  offset="0.4231" style="stop-color:#676668"/>
		<stop  offset="0.5028" style="stop-color:#878789"/>
		<stop  offset="0.6773" style="stop-color:#D8DADC"/>
		<stop  offset="0.7363" style="stop-color:#F5F8F9"/>
		<stop  offset="0.838" style="stop-color:#D7DADC"/>
		<stop  offset="1" style="stop-color:#ABADB2"/>
	</linearGradient>
	<path class="st4" d="M87.9,321.7l-14.5-6.8c-2.4,5-4.6,10.1-6.6,15.2l14.9,5.9C83.6,331.1,85.7,326.3,87.9,321.7z"/>
	<linearGradient id="SVGID_6_" gradientUnits="userSpaceOnUse" x1="549.6378" y1="296.9809" x2="28.5764" y2="296.9809">
		<stop  offset="0" style="stop-color:#939598"/>
		<stop  offset="0.1429" style="stop-color:#ECEEEF"/>
		<stop  offset="0.1597" style="stop-color:#DFE0E1"/>
		<stop  offset="0.2195" style="stop-color:#B4B5B6"/>
		<stop  offset="0.2773" style="stop-color:#939394"/>
		<stop  offset="0.3318" style="stop-color:#7B7A7C"/>
		<stop  offset="0.3819" style="stop-color:#6C6B6D"/>
		<stop  offset="0.4231" style="stop-color:#676668"/>
		<stop  offset="0.5028" style="stop-color:#878789"/>
		<stop  offset="0.6773" style="stop-color:#D8DADC"/>
		<stop  offset="0.7363" style="stop-color:#F5F8F9"/>
		<stop  offset="0.838" style="stop-color:#D7DADC"/>
		<stop  offset="1" style="stop-color:#ABADB2"/>
	</linearGradient>
	<path class="st5" d="M103,294.7L89.5,286c-3,4.6-5.9,9.4-8.5,14.1l14,7.8C97.5,303.4,100.1,299,103,294.7z"/>
	<linearGradient id="SVGID_7_" gradientUnits="userSpaceOnUse" x1="549.6378" y1="270.7809" x2="28.5764" y2="270.7809">
		<stop  offset="0" style="stop-color:#939598"/>
		<stop  offset="0.1429" style="stop-color:#ECEEEF"/>
		<stop  offset="0.1597" style="stop-color:#DFE0E1"/>
		<stop  offset="0.2195" style="stop-color:#B4B5B6"/>
		<stop  offset="0.2773" style="stop-color:#939394"/>
		<stop  offset="0.3318" style="stop-color:#7B7A7C"/>
		<stop  offset="0.3819" style="stop-color:#6C6B6D"/>
		<stop  offset="0.4231" style="stop-color:#676668"/>
		<stop  offset="0.5028" style="stop-color:#878789"/>
		<stop  offset="0.6773" style="stop-color:#D8DADC"/>
		<stop  offset="0.7363" style="stop-color:#F5F8F9"/>
		<stop  offset="0.838" style="stop-color:#D7DADC"/>
		<stop  offset="1" style="stop-color:#ABADB2"/>
	</linearGradient>
	<path class="st6" d="M121.5,270l-12.1-10.4c-3.6,4.1-7,8.5-10.3,12.9l12.8,9.6C114.9,277.9,118.1,273.8,121.5,270z"/>
	<linearGradient id="SVGID_8_" gradientUnits="userSpaceOnUse" x1="549.6378" y1="536.1849" x2="28.5764" y2="536.1849">
		<stop  offset="0" style="stop-color:#939598"/>
		<stop  offset="0.1429" style="stop-color:#ECEEEF"/>
		<stop  offset="0.1597" style="stop-color:#DFE0E1"/>
		<stop  offset="0.2195" style="stop-color:#B4B5B6"/>
		<stop  offset="0.2773" style="stop-color:#939394"/>
		<stop  offset="0.3318" style="stop-color:#7B7A7C"/>
		<stop  offset="0.3819" style="stop-color:#6C6B6D"/>
		<stop  offset="0.4231" style="stop-color:#676668"/>
		<stop  offset="0.5028" style="stop-color:#878789"/>
		<stop  offset="0.6773" style="stop-color:#D8DADC"/>
		<stop  offset="0.7363" style="stop-color:#F5F8F9"/>
		<stop  offset="0.838" style="stop-color:#D7DADC"/>
		<stop  offset="1" style="stop-color:#ABADB2"/>
	</linearGradient>
	<path class="st7" d="M58.5,487.1c10.5,38,30.3,73.4,57.2,102.5l11.7-10.9c-25.2-27.2-43.7-60.3-53.5-95.9L58.5,487.1z"/>
	<linearGradient id="SVGID_9_" gradientUnits="userSpaceOnUse" x1="549.6378" y1="608.3409" x2="28.5764" y2="608.3409">
		<stop  offset="0" style="stop-color:#939598"/>
		<stop  offset="0.1429" style="stop-color:#ECEEEF"/>
		<stop  offset="0.1597" style="stop-color:#DFE0E1"/>
		<stop  offset="0.2195" style="stop-color:#B4B5B6"/>
		<stop  offset="0.2773" style="stop-color:#939394"/>
		<stop  offset="0.3318" style="stop-color:#7B7A7C"/>
		<stop  offset="0.3819" style="stop-color:#6C6B6D"/>
		<stop  offset="0.4231" style="stop-color:#676668"/>
		<stop  offset="0.5028" style="stop-color:#878789"/>
		<stop  offset="0.6773" style="stop-color:#D8DADC"/>
		<stop  offset="0.7363" style="stop-color:#F5F8F9"/>
		<stop  offset="0.838" style="stop-color:#D7DADC"/>
		<stop  offset="1" style="stop-color:#ABADB2"/>
	</linearGradient>
	<path class="st8" d="M136.2,609.2c4.2,3.6,8.5,7.1,12.9,10.3l9.6-12.8c-4.1-3.1-8.2-6.3-12.1-9.7L136.2,609.2z"/>
	<linearGradient id="SVGID_10_" gradientUnits="userSpaceOnUse" x1="549.6378" y1="626.6089" x2="28.5764" y2="626.6089">
		<stop  offset="0" style="stop-color:#939598"/>
		<stop  offset="0.1429" style="stop-color:#ECEEEF"/>
		<stop  offset="0.1597" style="stop-color:#DFE0E1"/>
		<stop  offset="0.2195" style="stop-color:#B4B5B6"/>
		<stop  offset="0.2773" style="stop-color:#939394"/>
		<stop  offset="0.3318" style="stop-color:#7B7A7C"/>
		<stop  offset="0.3819" style="stop-color:#6C6B6D"/>
		<stop  offset="0.4231" style="stop-color:#676668"/>
		<stop  offset="0.5028" style="stop-color:#878789"/>
		<stop  offset="0.6773" style="stop-color:#D8DADC"/>
		<stop  offset="0.7363" style="stop-color:#F5F8F9"/>
		<stop  offset="0.838" style="stop-color:#D7DADC"/>
		<stop  offset="1" style="stop-color:#ABADB2"/>
	</linearGradient>
	<path class="st9" d="M162.7,629c4.6,3,9.4,5.9,14.2,8.5l7.8-14c-4.5-2.5-8.9-5.2-13.2-8L162.7,629z"/>
	<linearGradient id="SVGID_11_" gradientUnits="userSpaceOnUse" x1="549.6378" y1="641.2289" x2="28.5764" y2="641.2289">
		<stop  offset="0" style="stop-color:#939598"/>
		<stop  offset="0.1429" style="stop-color:#ECEEEF"/>
		<stop  offset="0.1597" style="stop-color:#DFE0E1"/>
		<stop  offset="0.2195" style="stop-color:#B4B5B6"/>
		<stop  offset="0.2773" style="stop-color:#939394"/>
		<stop  offset="0.3318" style="stop-color:#7B7A7C"/>
		<stop  offset="0.3819" style="stop-color:#6C6B6D"/>
		<stop  offset="0.4231" style="stop-color:#676668"/>
		<stop  offset="0.5028" style="stop-color:#878789"/>
		<stop  offset="0.6773" style="stop-color:#D8DADC"/>
		<stop  offset="0.7363" style="stop-color:#F5F8F9"/>
		<stop  offset="0.838" style="stop-color:#D7DADC"/>
		<stop  offset="1" style="stop-color:#ABADB2"/>
	</linearGradient>
	<path class="st10" d="M191.5,645.2c5,2.4,10.1,4.6,15.2,6.6l5.9-14.9c-4.8-1.9-9.5-4-14.2-6.2L191.5,645.2z"/>
	<linearGradient id="SVGID_12_" gradientUnits="userSpaceOnUse" x1="549.6378" y1="625.5609" x2="28.5764" y2="625.5609">
		<stop  offset="0" style="stop-color:#939598"/>
		<stop  offset="0.1429" style="stop-color:#ECEEEF"/>
		<stop  offset="0.1597" style="stop-color:#DFE0E1"/>
		<stop  offset="0.2195" style="stop-color:#B4B5B6"/>
		<stop  offset="0.2773" style="stop-color:#939394"/>
		<stop  offset="0.3318" style="stop-color:#7B7A7C"/>
		<stop  offset="0.3819" style="stop-color:#6C6B6D"/>
		<stop  offset="0.4231" style="stop-color:#676668"/>
		<stop  offset="0.5028" style="stop-color:#878789"/>
		<stop  offset="0.6773" style="stop-color:#D8DADC"/>
		<stop  offset="0.7363" style="stop-color:#F5F8F9"/>
		<stop  offset="0.838" style="stop-color:#D7DADC"/>
		<stop  offset="1" style="stop-color:#ABADB2"/>
	</linearGradient>
	<path class="st11" d="M359.5,644.6l4.2,15.4c38-10.5,73.4-30.3,102.5-57.2l-10.9-11.7C428.2,616.3,395,634.8,359.5,644.6z"/>
	<linearGradient id="SVGID_13_" gradientUnits="userSpaceOnUse" x1="549.6378" y1="516.5289" x2="28.5764" y2="516.5289">
		<stop  offset="0" style="stop-color:#939598"/>
		<stop  offset="0.1429" style="stop-color:#ECEEEF"/>
		<stop  offset="0.1597" style="stop-color:#DFE0E1"/>
		<stop  offset="0.2195" style="stop-color:#B4B5B6"/>
		<stop  offset="0.2773" style="stop-color:#939394"/>
		<stop  offset="0.3318" style="stop-color:#7B7A7C"/>
		<stop  offset="0.3819" style="stop-color:#6C6B6D"/>
		<stop  offset="0.4231" style="stop-color:#676668"/>
		<stop  offset="0.5028" style="stop-color:#878789"/>
		<stop  offset="0.6773" style="stop-color:#D8DADC"/>
		<stop  offset="0.7363" style="stop-color:#F5F8F9"/>
		<stop  offset="0.838" style="stop-color:#D7DADC"/>
		<stop  offset="1" style="stop-color:#ABADB2"/>
	</linearGradient>
	<path class="st12" d="M507.4,520.2l14.5,6.8c2.4-5,4.6-10.1,6.6-15.2l-14.9-5.9C511.7,510.8,509.6,515.6,507.4,520.2L507.4,520.2z"
		/>
	<linearGradient id="SVGID_14_" gradientUnits="userSpaceOnUse" x1="549.6378" y1="571.1089" x2="28.5764" y2="571.1089">
		<stop  offset="0" style="stop-color:#939598"/>
		<stop  offset="0.1429" style="stop-color:#ECEEEF"/>
		<stop  offset="0.1597" style="stop-color:#DFE0E1"/>
		<stop  offset="0.2195" style="stop-color:#B4B5B6"/>
		<stop  offset="0.2773" style="stop-color:#939394"/>
		<stop  offset="0.3318" style="stop-color:#7B7A7C"/>
		<stop  offset="0.3819" style="stop-color:#6C6B6D"/>
		<stop  offset="0.4231" style="stop-color:#676668"/>
		<stop  offset="0.5028" style="stop-color:#878789"/>
		<stop  offset="0.6773" style="stop-color:#D8DADC"/>
		<stop  offset="0.7363" style="stop-color:#F5F8F9"/>
		<stop  offset="0.838" style="stop-color:#D7DADC"/>
		<stop  offset="1" style="stop-color:#ABADB2"/>
	</linearGradient>
	<path class="st13" d="M473.8,571.9l12.1,10.4c3.6-4.1,7-8.5,10.3-12.9l-12.8-9.6C480.4,564,477.1,568,473.8,571.9L473.8,571.9z"/>
	<linearGradient id="SVGID_15_" gradientUnits="userSpaceOnUse" x1="549.6378" y1="544.9089" x2="28.5764" y2="544.9089">
		<stop  offset="0" style="stop-color:#939598"/>
		<stop  offset="0.1429" style="stop-color:#ECEEEF"/>
		<stop  offset="0.1597" style="stop-color:#DFE0E1"/>
		<stop  offset="0.2195" style="stop-color:#B4B5B6"/>
		<stop  offset="0.2773" style="stop-color:#939394"/>
		<stop  offset="0.3318" style="stop-color:#7B7A7C"/>
		<stop  offset="0.3819" style="stop-color:#6C6B6D"/>
		<stop  offset="0.4231" style="stop-color:#676668"/>
		<stop  offset="0.5028" style="stop-color:#878789"/>
		<stop  offset="0.6773" style="stop-color:#D8DADC"/>
		<stop  offset="0.7363" style="stop-color:#F5F8F9"/>
		<stop  offset="0.838" style="stop-color:#D7DADC"/>
		<stop  offset="1" style="stop-color:#ABADB2"/>
	</linearGradient>
	<path class="st14" d="M492.3,547.2l13.4,8.7c3-4.6,5.9-9.4,8.5-14.1l-14-7.8C497.8,538.4,495.1,542.9,492.3,547.2L492.3,547.2z"/>
	<linearGradient id="SVGID_16_" gradientUnits="userSpaceOnUse" x1="549.6378" y1="305.7049" x2="28.5764" y2="305.7049">
		<stop  offset="0" style="stop-color:#939598"/>
		<stop  offset="0.1429" style="stop-color:#ECEEEF"/>
		<stop  offset="0.1597" style="stop-color:#DFE0E1"/>
		<stop  offset="0.2195" style="stop-color:#B4B5B6"/>
		<stop  offset="0.2773" style="stop-color:#939394"/>
		<stop  offset="0.3318" style="stop-color:#7B7A7C"/>
		<stop  offset="0.3819" style="stop-color:#6C6B6D"/>
		<stop  offset="0.4231" style="stop-color:#676668"/>
		<stop  offset="0.5028" style="stop-color:#878789"/>
		<stop  offset="0.6773" style="stop-color:#D8DADC"/>
		<stop  offset="0.7363" style="stop-color:#F5F8F9"/>
		<stop  offset="0.838" style="stop-color:#D7DADC"/>
		<stop  offset="1" style="stop-color:#ABADB2"/>
	</linearGradient>
	<path class="st15" d="M536.7,354.8c-10.5-38-30.3-73.4-57.2-102.5l-11.7,10.9c25.2,27.2,43.7,60.3,53.5,95.9L536.7,354.8z"/>
	<linearGradient id="SVGID_17_" gradientUnits="userSpaceOnUse" x1="549.6378" y1="233.5489" x2="28.5764" y2="233.5489">
		<stop  offset="0" style="stop-color:#939598"/>
		<stop  offset="0.1429" style="stop-color:#ECEEEF"/>
		<stop  offset="0.1597" style="stop-color:#DFE0E1"/>
		<stop  offset="0.2195" style="stop-color:#B4B5B6"/>
		<stop  offset="0.2773" style="stop-color:#939394"/>
		<stop  offset="0.3318" style="stop-color:#7B7A7C"/>
		<stop  offset="0.3819" style="stop-color:#6C6B6D"/>
		<stop  offset="0.4231" style="stop-color:#676668"/>
		<stop  offset="0.5028" style="stop-color:#878789"/>
		<stop  offset="0.6773" style="stop-color:#D8DADC"/>
		<stop  offset="0.7363" style="stop-color:#F5F8F9"/>
		<stop  offset="0.838" style="stop-color:#D7DADC"/>
		<stop  offset="1" style="stop-color:#ABADB2"/>
	</linearGradient>
	<path class="st16" d="M459,232.6c-4.2-3.6-8.5-7.1-12.9-10.3l-9.6,12.8c4.1,3.1,8.2,6.3,12.1,9.7L459,232.6z"/>
	<linearGradient id="SVGID_18_" gradientUnits="userSpaceOnUse" x1="549.6378" y1="200.6609" x2="28.5764" y2="200.6609">
		<stop  offset="0" style="stop-color:#939598"/>
		<stop  offset="0.1429" style="stop-color:#ECEEEF"/>
		<stop  offset="0.1597" style="stop-color:#DFE0E1"/>
		<stop  offset="0.2195" style="stop-color:#B4B5B6"/>
		<stop  offset="0.2773" style="stop-color:#939394"/>
		<stop  offset="0.3318" style="stop-color:#7B7A7C"/>
		<stop  offset="0.3819" style="stop-color:#6C6B6D"/>
		<stop  offset="0.4231" style="stop-color:#676668"/>
		<stop  offset="0.5028" style="stop-color:#878789"/>
		<stop  offset="0.6773" style="stop-color:#D8DADC"/>
		<stop  offset="0.7363" style="stop-color:#F5F8F9"/>
		<stop  offset="0.838" style="stop-color:#D7DADC"/>
		<stop  offset="1" style="stop-color:#ABADB2"/>
	</linearGradient>
	<path class="st17" d="M403.7,196.7c-5-2.4-10.1-4.6-15.2-6.6l-5.9,14.9c4.8,1.9,9.5,4,14.2,6.2L403.7,196.7z"/>
	<linearGradient id="SVGID_19_" gradientUnits="userSpaceOnUse" x1="549.6378" y1="215.2809" x2="28.5764" y2="215.2809">
		<stop  offset="0" style="stop-color:#939598"/>
		<stop  offset="0.1429" style="stop-color:#ECEEEF"/>
		<stop  offset="0.1597" style="stop-color:#DFE0E1"/>
		<stop  offset="0.2195" style="stop-color:#B4B5B6"/>
		<stop  offset="0.2773" style="stop-color:#939394"/>
		<stop  offset="0.3318" style="stop-color:#7B7A7C"/>
		<stop  offset="0.3819" style="stop-color:#6C6B6D"/>
		<stop  offset="0.4231" style="stop-color:#676668"/>
		<stop  offset="0.5028" style="stop-color:#878789"/>
		<stop  offset="0.6773" style="stop-color:#D8DADC"/>
		<stop  offset="0.7363" style="stop-color:#F5F8F9"/>
		<stop  offset="0.838" style="stop-color:#D7DADC"/>
		<stop  offset="1" style="stop-color:#ABADB2"/>
	</linearGradient>
	<path class="st18" d="M432.6,212.8c-4.6-3-9.4-5.9-14.2-8.5l-7.8,14c4.5,2.5,8.9,5.2,13.2,8L432.6,212.8z"/>
	<linearGradient id="SVGID_20_" gradientUnits="userSpaceOnUse" x1="49.6378" y1="420.9449" x2="545.6378" y2="420.9449">
		<stop  offset="0" style="stop-color:#00F9FF"/>
		<stop  offset="1" style="stop-color:#0078FF"/>
	</linearGradient>
	<path class="st19" d="M513.4,412.9c-4.1-112.7-95.1-203.7-207.8-207.8v-32.2h-16v32.2C176.9,209.3,86,300.2,81.8,412.9H49.6v16
		h32.2c4.1,112.7,95.1,203.7,207.8,207.8v32.2h16v-32.2c112.7-4.1,203.7-95.1,207.8-207.8h32.2v-16H513.4z M100,428.9h29.6v-16H100
		c0.3-0.5,0.5-1.1,0.8-1.6l1.1-1.5c28.3-39.8,67.8-69.4,112.5-86c-27.4,23.5-44.8,58.3-44.8,97.1s17.4,73.6,44.8,97
		c-44.7-16.5-84.2-46.2-112.5-86l-1.1-1.5C100.5,430.1,100.3,429.5,100,428.9z M185.6,420.9c0-61.8,50.2-112,112-112
		s112,50.2,112,112s-50.2,112-112,112S185.6,482.7,185.6,420.9L185.6,420.9z M425.6,420.9c0-38.8-17.4-73.6-44.8-97
		c44.7,16.5,84.2,46.2,112.5,86l1.1,1.5c0.4,0.5,0.5,1.1,0.8,1.6h-29.6v16h29.6c-0.3,0.6-0.5,1.2-0.9,1.8l-1,1.3
		c-28.3,39.8-67.8,69.4-112.5,86C408.2,494.5,425.6,459.7,425.6,420.9z M289.6,221.1v31.8h16v-31.8c94.5,3.7,172.2,73.3,188.7,164
		c-48.4-58-120.6-92.2-196.7-92.2s-148.3,34.2-196.7,92.2C117.4,294.4,195.2,224.9,289.6,221.1z M305.6,620.7v-31.8h-16v31.8
		c-94.5-3.7-172.2-73.3-188.7-164c48.4,58,120.6,92.2,196.7,92.2s148.3-34.2,196.7-92.2C477.9,547.5,400.1,617,305.6,620.7z"/>
</g>
</svg>
