

<svg version="1.1" id="Слой_1" xmlns="http://www.w3.org/2000/svg"  x="0px" y="0px"
	 viewBox="0 0 76 100" style="enable-background:new 0 0 76 100;" xml:space="preserve">
<style type="text/css">
	.st0{fill:#28a1de;stroke:#28a1de;stroke-miterlimit:10;}
</style>
<g>
	<path class="st0" d="M72.2,41.2c-0.1,0-0.2,0-0.3,0v-8c0.1,0,0.2,0,0.3,0c0.9,0,1.5-0.5,1.7-1.4c0.1-0.4,0-0.9,0-1.3
		c0-7.4,0-14.9,0-22.3c0-4.1-2.3-6.4-6.4-6.4c-19.3,0-38.6,0-57.8,0c-0.5,0-1,0-1.6,0C5.6,2,3.5,3.8,3,6.3C2.7,6.8,2.8,7.4,2.8,7.9
		c0,27.6,0,55.2,0,82.8c0,0.5-0.1,1,0.2,1.4l0,0c0.6,4,2.5,5.7,6.5,5.7c15,0,30,0,45,0c0.4,0,0.7,0,1.1,0c1-0.1,1.7-0.7,1.7-1.7
		s-0.6-1.6-1.6-1.7c-0.4,0-0.8,0-1.2,0c-15.1,0-30.2,0-45.2,0c-1.8,0-2.6-0.8-2.7-2.5c0-1.7,0.9-2.7,2.6-2.7c1.2,0,2.5,0,3.7,0
		c18.4,0,36.7,0,55.1,0c3.4,0,6-2.3,6-5.6c0-13.5,0-27,0-40.4C73.8,41.9,73.2,41.2,72.2,41.2z M43.3,74.9c-0.2,0.4-0.4,0.6-0.6,0.8
		c0,0.1-0.1,0.2-0.1,0.3c-0.4,1.2-1.6,0.8-2.4,1.2c-0.2,0-0.5,0-0.7,0c-0.8,0.3-1.7,0.4-2.5,0c-1.1-0.1-1.9-0.5-2.6-1.4
		c-0.9-0.8-1-2-1-3.1c0-11.4,0-22.8,0-34.3c0-0.4,0-0.8,0.2-1.2c0,0,0-0.1,0.1-0.1c0.4-2,1.8-3.2,3.9-3.4c2.4-0.2,4.3,0.7,5.1,2.6
		c0.2,0.4,0.3,0.9,0.5,1.4s0.1,1,0.1,1.4c0,8.8,0,17.6,0,26.4c0,1.6-0.1,3.1,0.4,4.7c0.4,1.5,0.2,3.1-0.5,4.5
		C43.1,74.9,43.2,74.8,43.3,74.9z M38.3,29c-3.4,0-5.7-2.3-5.7-5.7c0-3.4,2.4-5.9,5.7-5.9c3.1,0,5.7,2.6,5.7,5.8
		C44,26.4,41.5,29,38.3,29z"/>
</g>
</svg>
