<?xml version="1.0" encoding="utf-8"?>
<!-- Generator: Adobe Illustrator 19.1.0, SVG Export Plug-In . SVG Version: 6.00 Build 0)  -->
<svg version="1.1" id="Слой_1" xmlns="http://www.w3.org/2000/svg" xmlns:xlink="http://www.w3.org/1999/xlink" x="0px" y="0px"
	 viewBox="0 0 46 38" style="enable-background:new 0 0 46 38;" xml:space="preserve">
<style type="text/css">
	.st0{stroke:#28a1de; fill: #ffffff}
</style>
<g>
	<g>
		<path class="st0" d="M39.5,9.2c-2.8-1.3-4.8,7.5-5.4,11.5c-0.6,4-1.4,13.1,1.6,13.5c3.8,1.4,9-3,10.1-10.1
			C46.9,16.9,43.4,9.9,39.5,9.2z M35.9,31.7c-0.4-0.5-1-4.2,0-10.5c1-6.4,2.6-9.4,3.1-9.6c0.5,0.5,0.6,3.3,0.6,4.9
			C39.3,24.3,36.9,31.3,35.9,31.7z M41.2,12.8c2,2,3.5,6.4,2.9,10.8c-0.7,4.4-3.3,7.5-5.8,8.3C40.3,27.5,41.8,18.1,41.2,12.8z"/>
	</g>
	<g>
		<path class="st0" d="M27,2.6c0.6-0.1,1.2-0.1,1.7-0.1c0.5,0,0.9-0.6,0.9-1.3S29.2,0,28.7,0C17.2,0,4.5,12.7,0.1,26.7
			c-0.2,0.6,0,1.4,0.5,1.6c0.5,0.3,1,0,1.2-0.6C2,27,2.2,26.3,2.5,25.5C7.6,34,21.1,39.1,28.8,37.8c0.5-0.1,0.8-0.7,0.8-1.4
			c-0.1-0.7-0.5-1.2-1-1.1c-0.3,0.1-0.7,0.1-1,0.1c1.5-5.4,2-10.9,2-12.4c0-4.1,0.4-11-2.7-20.4C26.9,2.6,26.9,2.6,27,2.6z
			 M18.2,5.9c2.2-1.4,4.5-2.4,6.8-3c0.1,0.2,0.1,0.4,0.2,0.5c-5,3.3-7.1,14.1-5,22.7c0.2,0.7,0.7,1,1.1,0.8c0.5-0.2,0.7-0.9,0.6-1.6
			c-1.9-7.6,0.1-16.9,4-19.6c0.8,2.9,1.4,5.9,1.7,9c-0.1,0-0.2-0.1-0.3-0.1c-1.2,0-2.2,2-2.2,4.5c0,2.5,1,4.5,2.2,4.5
			c0.2,0,0.3,0,0.5-0.1c-0.2,3.1-0.6,6.3-1.4,9.3c-1.2-0.6-2.3-1.9-3.2-3.6c-0.3-0.6-0.8-0.7-1.3-0.3c-0.4,0.4-0.5,1.2-0.2,1.7
			c1.1,2.2,2.5,3.7,4,4.5c0,0.1-0.1,0.2-0.1,0.3C18,35.2,7.3,30.4,3.5,23.3C6,17.2,11.6,10.1,18.2,5.9C18.2,5.9,18.2,5.9,18.2,5.9z"
			/>
	</g>
</g>
</svg>
