<?xml version="1.0" encoding="utf-8"?>
<!-- Generator: Adobe Illustrator 19.1.0, SVG Export Plug-In . SVG Version: 6.00 Build 0)  -->
<svg version="1.1" id="Capa_1" xmlns="http://www.w3.org/2000/svg" xmlns:xlink="http://www.w3.org/1999/xlink" x="0px" y="0px"
	 viewBox="0 0 512 512" style="enable-background:new 0 0 512 512;" xml:space="preserve">
<style type="text/css">
	.st0{fill:#28a1de;}
</style>
<g>
	<g>
		<path class="st0" d="M273.9,346.5c-6.6,0-13,1.9-18.5,5.3c-5.5-3.4-12-5.3-18.5-5.3c-19.6,0-35.5,16.2-35.5,36.2
			c0,11.3,8.2,24.9,25,41.7c11.3,11.3,22.5,19.9,23,20.2c1.8,1.4,3.9,2.1,6.1,2.1c2.1,0,4.3-0.7,6.1-2.1c0.5-0.4,11.7-8.9,23-20.2
			c16.8-16.7,25-30.3,25-41.7C309.4,362.7,293.5,346.5,273.9,346.5z M255.3,423.8c-17.4-14.4-34.1-32.9-34.1-41.1
			c0-8.9,7-16.2,15.5-16.2c4.3,0,8.2,1.8,11.2,5c1.9,2.1,4.6,3.2,7.4,3.2c2.8,0,5.5-1.2,7.4-3.2c3-3.2,6.9-5,11.2-5
			c8.6,0,15.5,7.3,15.5,16.2C289.4,390.9,272.7,409.4,255.3,423.8z"/>
	</g>
</g>
<g>
	<g>
		<path class="st0" d="M242.1,269.7c-6.5-5.6-14.2-8-21.8-6.9c-47,7.3-69.5,44-70.4,45.6c-2.8,4.7-1.3,10.9,3.5,13.7
			c4.7,2.8,10.9,1.3,13.7-3.5c0.2-0.3,18.4-30.2,56.3-36.1c2.3-0.3,4.5,1.3,5.7,2.2c3.5,3.1,6,8.1,6,12.3c0,4-2.6,7.6-6.4,8.9
			c-18.7,6.2-31.5,13.6-38.2,21.9l-38.3,47.7c-4,4.9-9.4,7.6-14.9,7.5c-2.4-0.1-4.1-0.8-5.6-2.6c-9.6-10.5-7.7-44.8-6.9-59.4
			c0.1-2.3,0.2-4.3,0.3-6.1c3.9-90.4,39.2-116.2,94.8-128.5l3.4-0.8c5.4-1.2,8.8-6.5,7.6-11.9c-1.2-5.4-6.5-8.8-11.9-7.6l-3.4,0.8
			c-37,8.1-62.3,22.1-79.8,44c-18.9,23.7-28.7,56.5-30.7,103.2c-0.1,1.7-0.2,3.7-0.3,5.8c-1.5,27.7-2,58.6,12.1,74.1
			c5.2,5.7,12,8.8,19.8,9.1c0.4,0,0.8,0,1.2,0c0.7,0,1.4,0,2.1-0.1c0.2,16.3,4,32,11,46.6c1.7,3.6,5.3,5.6,9,5.6c1.5,0,3-0.3,4.4-1
			c5-2.4,7-8.4,4.6-13.4c-6-12.4-9.1-25.7-9.1-39.6v-5.6c2.9-2.1,5.6-4.7,7.9-7.6l38.3-47.7c4.1-5.1,14.6-10.7,28.9-15.4
			c11.9-4,20-15.1,20.1-27.7C255,287.2,250.1,276.6,242.1,269.7z"/>
	</g>
</g>
<g>
	<g>
		<path class="st0" d="M184.7,463.7l-0.3-0.3c-3.8-4-10.1-4.2-14.1-0.5c-4,3.8-4.2,10.1-0.5,14.1l0.4,0.5c2,2,4.6,3.1,7.2,3.1
			c2.5,0,5-0.9,6.9-2.8C188.3,474,188.5,467.7,184.7,463.7z"/>
	</g>
</g>
<g>
	<g>
		<path class="st0" d="M344.2,186c-14.5-9.3-30.5-15.9-47.3-19.8c-5.4-1.2-10.8,2.1-12,7.5c-1.2,5.4,2.1,10.8,7.5,12
			c14.6,3.4,28.5,9.1,41.1,17.2c1.7,1.1,3.5,1.6,5.4,1.6c3.3,0,6.5-1.6,8.5-4.6C350.3,195.1,348.9,188.9,344.2,186z"/>
	</g>
</g>
<g>
	<g>
		<path class="st0" d="M372.3,209.1l-0.5-0.6c-3.8-4-10.2-4.1-14.2-0.2c-4,3.8-4.1,10.2-0.2,14.2l0.4,0.5c2,2.1,4.6,3.1,7.2,3.1
			c2.5,0,5-0.9,6.9-2.8C375.9,219.4,376.1,213.1,372.3,209.1z"/>
	</g>
</g>
<g>
	<g>
		<path class="st0" d="M394.7,239.3c-2.7-4.8-8.8-6.5-13.6-3.8c-4.8,2.7-6.5,8.8-3.8,13.6c10.1,17.9,10.9,38.9,10.9,64.4V344
			c0,35.2-8.1,84.7-46.5,120.4c-7,6.5-20.6,13.1-39.1,19.1c-0.7,0.2-1.3,0.4-2,0.5c-4.4,0.9-8.9-0.1-12.6-2.8
			c-4.2-3-6.6-7.8-6.5-12.9c0-7.1,4.6-13.3,11.5-15.3c17.8-5.3,30.5-11.4,37.9-18.3c26.4-24.5,25.1-62.5,23.9-96
			c-0.3-7.2-0.5-14-0.5-20.7c0-0.7-0.1-1.4-0.2-2.1c2.1-3.8,3.4-7.8,4.1-11.9c3-18.7-9.1-34.5-18.8-47.1c-3.9-5-9.7-12.6-9.7-15.3
			c0-5.5-4.5-10-10-10s-10,4.5-10,10c0,9.4,6.4,17.8,13.9,27.5c7.8,10.1,16.6,21.6,15,31.7c-1.1,6.6-6.6,13.3-16.6,20
			c-4.6,3.1-5.8,9.3-2.7,13.9c1.9,2.9,5.1,4.4,8.3,4.4c1.9,0,3.9-0.6,5.6-1.7c0.6-0.4,1.1-0.8,1.6-1.1c0,1.1,0.1,2.1,0.1,3.2
			c1.1,30.6,2.2,62.3-17.5,80.6c-5,4.6-15.6,9.5-30,13.8c-15.4,4.6-25.8,18.4-25.8,34.4c0,8.2,2.6,15.9,7.5,22.1
			c-11.5,1.5-18.4,1.6-18.5,1.6c-14.7,0-29.3-3.6-42.3-10.4c-4.9-2.6-10.9-0.7-13.5,4.2c-2.6,4.9-0.7,10.9,4.2,13.5
			c15.8,8.3,33.6,12.7,51.6,12.7c0.9,0,23-0.1,55-8.5c0.7-0.2,1.4-0.3,2-0.5c0.2-0.1,0.4-0.1,0.6-0.2c0.1,0,0.1,0,0.2,0
			c0.1,0,0.2,0,0.3-0.1c21.7-7,37.5-14.9,46.8-23.6c34.6-32.1,52.9-78.8,52.9-135v-30.5C408.2,286,407.1,261.4,394.7,239.3z"/>
	</g>
</g>
<g>
	<g>
		<path class="st0" d="M255.4,0c-11.5,0-22.4,2.5-32.3,7.1c-18.1-12.2-42.9-8.2-56.1,9.6c-13.5,18.2-9.7,44.1,8.5,57.6
			c0.7,0.5,1.5,0.9,2.3,1.3c0,0.7-0.1,1.5-0.1,2.2V90c0,42.8,34.8,77.7,77.7,77.7s77.7-34.8,77.7-77.7V77.7
			C333.1,34.8,298.3,0,255.4,0z M183.1,28.5c4.8-6.5,12.6-9.4,20-8.3c-9.5,8.6-16.8,19.6-21.1,31.9C177.7,45,177.8,35.7,183.1,28.5z
			 M255.4,147.6c-29.6,0-54.1-22.4-57.3-51.2c15.1-1.1,47.7-5.8,69.3-25c15,16.8,35.4,22.6,45.4,24.5
			C309.8,124.9,285.2,147.6,255.4,147.6z M277,50.7c-1.7-2.9-4.7-4.8-8.1-5c-3.4-0.2-6.6,1.3-8.6,4c-15,20.3-47.6,25.3-62.5,26.6
			c0.7-31.2,26.3-56.3,57.6-56.3c31.1,0,56.4,24.7,57.6,55.5C303.3,73.1,286.4,66.8,277,50.7z"/>
	</g>
</g>
</svg>
