<?xml version="1.0" encoding="utf-8"?>
<!-- Generator: Adobe Illustrator 22.0.1, SVG Export Plug-In . SVG Version: 6.00 Build 0)  -->
<svg version="1.1" id="Слой_1" xmlns="http://www.w3.org/2000/svg" xmlns:xlink="http://www.w3.org/1999/xlink" x="0px" y="0px"
	 viewBox="0 0 530 565.3" style="enable-background:new 0 0 530 565.3;" xml:space="preserve">
<style type="text/css">
	.st0{fill:url(#SVGID_1_);}
	.st1{fill:url(#SVGID_2_);}
	.st2{fill:url(#SVGID_3_);}
	.st3{fill:url(#SVGID_4_);}
	.st4{fill:url(#SVGID_5_);}
	.st5{fill:url(#SVGID_6_);}
	.st6{fill:url(#SVGID_7_);}
</style>
<g id="Outline">
	<linearGradient id="SVGID_1_" gradientUnits="userSpaceOnUse" x1="82.3333" y1="111.8472" x2="450.3333" y2="111.8472">
		<stop  offset="0" style="stop-color:#00F9FF"/>
		<stop  offset="1" style="stop-color:#0078FF"/>
	</linearGradient>
	<path class="st0" d="M98.3,94.4c59.6-1.5,117.7-19.2,168-51.1c50.3,32,108.4,49.7,168,51.1V188c5.6,3.3,10.9,6.6,16,9.9V86.5
		c0-4.4-3.6-8-8-8c-59.5,0-117.7-17-167.9-49l-3.8-2.4c-2.6-1.7-6-1.7-8.6,0l-3.8,2.4c-50.1,32-108.4,49-167.9,49c-4.4,0-8,3.6-8,8
		v111.4c5.1-3.3,10.4-6.6,16-9.9V94.4z"/>
	<linearGradient id="SVGID_2_" gradientUnits="userSpaceOnUse" x1="96.5013" y1="424.1172" x2="436.1333" y2="424.1172">
		<stop  offset="0" style="stop-color:#00F9FF"/>
		<stop  offset="1" style="stop-color:#0078FF"/>
	</linearGradient>
	<path class="st1" d="M266.3,489.4c-66.6-21.2-120.7-70.4-148-134.8c-7.6-4-14.9-8.1-21.8-12.2c26.4,78.1,88.8,138.7,167.5,163
		c1.5,0.4,3.1,0.4,4.6,0c78.8-24.3,141.1-84.9,167.5-163c-6.9,4.1-14.2,8.2-21.8,12.2C387,419,332.9,468.2,266.3,489.4z"/>
	<linearGradient id="SVGID_3_" gradientUnits="userSpaceOnUse" x1="165.7333" y1="415.233" x2="366.9333" y2="415.233">
		<stop  offset="0" style="stop-color:#00F9FF"/>
		<stop  offset="1" style="stop-color:#0078FF"/>
	</linearGradient>
	<path class="st2" d="M263.5,454.6c1.8,0.7,3.9,0.7,5.7,0c40-15.6,74.2-43.3,97.7-79.2c-8.4,3-17.1,5.8-26,8.2
		c-19.9,24.2-45.6,43.1-74.6,54.9c-29-11.8-54.7-30.7-74.6-54.9c-8.9-2.4-17.6-5.2-26-8.2C189.3,411.3,223.4,439,263.5,454.6z"/>
	<linearGradient id="SVGID_4_" gradientUnits="userSpaceOnUse" x1="130.3333" y1="126.3303" x2="402.3333" y2="126.3303">
		<stop  offset="0" style="stop-color:#00F9FF"/>
		<stop  offset="1" style="stop-color:#0078FF"/>
	</linearGradient>
	<path class="st3" d="M402.3,171v-39.6c0-4-3-7.4-7-7.9c-43.9-5.8-86.4-19.6-125.2-40.8c-2.4-1.3-5.3-1.3-7.6,0
		c-38.9,21.2-81.3,35-125.2,40.8c-4,0.5-7,3.9-7,7.9V171c5.2-2.5,10.5-4.9,16-7.2v-25.5c42-6.3,82.5-19.7,120-39.6
		c37.5,19.9,78,33.3,120,39.6v25.5C391.8,166.1,397.1,168.5,402.3,171z"/>
	<linearGradient id="SVGID_5_" gradientUnits="userSpaceOnUse" x1="8.4858" y1="217.003" x2="586.4858" y2="326.3363">
		<stop  offset="0" style="stop-color:#939598"/>
		<stop  offset="0.1429" style="stop-color:#ECEEEF"/>
		<stop  offset="0.1597" style="stop-color:#DFE0E1"/>
		<stop  offset="0.2195" style="stop-color:#B4B5B6"/>
		<stop  offset="0.2773" style="stop-color:#939394"/>
		<stop  offset="0.3318" style="stop-color:#7B7A7C"/>
		<stop  offset="0.3819" style="stop-color:#6C6B6D"/>
		<stop  offset="0.4231" style="stop-color:#676668"/>
		<stop  offset="0.5028" style="stop-color:#878789"/>
		<stop  offset="0.6773" style="stop-color:#D8DADC"/>
		<stop  offset="0.7363" style="stop-color:#F5F8F9"/>
		<stop  offset="0.838" style="stop-color:#D7DADC"/>
		<stop  offset="1" style="stop-color:#ABADB2"/>
	</linearGradient>
	<path class="st4" d="M504,260.1c-4.3-4.3-107.7-106.3-237.7-106.3S33,255.8,28.7,260.1c-3.1,3.1-3.1,8.2,0,11.3
		c4.3,4.3,107.7,106.3,237.7,106.3s233.3-102,237.7-106.3C507.1,268.3,507.1,263.2,504,260.1z M266.3,361.8
		c-106.1,0-196.6-74.6-220.3-96c23.7-21.4,114-96,220.3-96c106.1,0,196.6,74.6,220.3,96C462.9,287.2,372.6,361.8,266.3,361.8z"/>
	<linearGradient id="SVGID_6_" gradientUnits="userSpaceOnUse" x1="8.4858" y1="217.003" x2="586.4858" y2="326.3363">
		<stop  offset="0" style="stop-color:#939598"/>
		<stop  offset="0.1429" style="stop-color:#ECEEEF"/>
		<stop  offset="0.1597" style="stop-color:#DFE0E1"/>
		<stop  offset="0.2195" style="stop-color:#B4B5B6"/>
		<stop  offset="0.2773" style="stop-color:#939394"/>
		<stop  offset="0.3318" style="stop-color:#7B7A7C"/>
		<stop  offset="0.3819" style="stop-color:#6C6B6D"/>
		<stop  offset="0.4231" style="stop-color:#676668"/>
		<stop  offset="0.5028" style="stop-color:#878789"/>
		<stop  offset="0.6773" style="stop-color:#D8DADC"/>
		<stop  offset="0.7363" style="stop-color:#F5F8F9"/>
		<stop  offset="0.838" style="stop-color:#D7DADC"/>
		<stop  offset="1" style="stop-color:#ABADB2"/>
	</linearGradient>
	<path class="st5" d="M362.3,265.8c0-53-43-96-96-96s-96,43-96,96s43,96,96,96C319.3,361.7,362.3,318.8,362.3,265.8z M266.3,345.8
		c-44.2,0-80-35.8-80-80s35.8-80,80-80s80,35.8,80,80C346.3,309.9,310.5,345.7,266.3,345.8z"/>
	<linearGradient id="SVGID_7_" gradientUnits="userSpaceOnUse" x1="7.8268" y1="220.487" x2="585.8268" y2="329.8203">
		<stop  offset="0" style="stop-color:#939598"/>
		<stop  offset="0.1429" style="stop-color:#ECEEEF"/>
		<stop  offset="0.1597" style="stop-color:#DFE0E1"/>
		<stop  offset="0.2195" style="stop-color:#B4B5B6"/>
		<stop  offset="0.2773" style="stop-color:#939394"/>
		<stop  offset="0.3318" style="stop-color:#7B7A7C"/>
		<stop  offset="0.3819" style="stop-color:#6C6B6D"/>
		<stop  offset="0.4231" style="stop-color:#676668"/>
		<stop  offset="0.5028" style="stop-color:#878789"/>
		<stop  offset="0.6773" style="stop-color:#D8DADC"/>
		<stop  offset="0.7363" style="stop-color:#F5F8F9"/>
		<stop  offset="0.838" style="stop-color:#D7DADC"/>
		<stop  offset="1" style="stop-color:#ABADB2"/>
	</linearGradient>
	<path class="st6" d="M243.1,294.7l-27.1-26.7l-11.2,11.4l32.8,32.3c3.1,3.1,8.2,3,11.3-0.1l71.2-72.3l-11.4-11.2L243.1,294.7z"/>
</g>
</svg>
