<?xml version="1.0" encoding="utf-8"?>
<!-- Generator: Adobe Illustrator 19.1.0, SVG Export Plug-In . SVG Version: 6.00 Build 0)  -->
<svg version="1.1" id="Layer_1" xmlns="http://www.w3.org/2000/svg" xmlns:xlink="http://www.w3.org/1999/xlink" x="0px" y="0px"
	 viewBox="0 0 73 73" style="enable-background:new 0 0 73 73;" xml:space="preserve">
<style type="text/css">
	.st0{clip-path:url(#SVGID_2_);fill:#00ADFF;}
	.st1{fill:none;}
</style>
<g>
	<g>
		<defs>
			<rect id="SVGID_1_" x="17.8" y="17.1" width="37.3" height="34.6"/>
		</defs>
		<clipPath id="SVGID_2_">
			<use xlink:href="#SVGID_1_"  style="overflow:visible;"/>
		</clipPath>
		<path class="st0" d="M54.1,33.9c-0.6,0-1.1,0.5-1.1,1.1v9.7c0,2.6-2.2,4.8-4.8,4.8H24.8c-2.6,0-4.8-2.2-4.8-4.8v-9.9
			c0-0.6-0.5-1.1-1.1-1.1s-1.1,0.5-1.1,1.1v9.9c0,3.8,3.1,6.9,6.9,6.9h23.4c3.8,0,6.9-3.1,6.9-6.9V35C55.2,34.4,54.7,33.9,54.1,33.9
			"/>
		<path class="st0" d="M35.7,43.2c0.2,0.2,0.5,0.3,0.8,0.3s0.5-0.1,0.8-0.3l6.8-6.8c0.4-0.4,0.4-1.1,0-1.5c-0.4-0.4-1.1-0.4-1.5,0
			l-5,5V18.2c0-0.6-0.5-1.1-1.1-1.1s-1.1,0.5-1.1,1.1v21.7l-5-5c-0.4-0.4-1.1-0.4-1.5,0c-0.4,0.4-0.4,1.1,0,1.5L35.7,43.2z"/>
	</g>
	<g>
		<path class="st1" d="M36.5,73c-4.9,0-9.7-1-14.2-2.9c-4.3-1.8-8.2-4.5-11.6-7.8c-3.4-3.4-6-7.3-7.8-11.6C1,46.2,0,41.4,0,36.5
			c0-4.9,1-9.7,2.9-14.2c1.8-4.3,4.5-8.2,7.8-11.6c3.4-3.4,7.3-6,11.6-7.8C26.8,1,31.6,0,36.5,0s9.7,1,14.2,2.9
			c4.3,1.8,8.2,4.5,11.6,7.8c3.4,3.4,6,7.3,7.8,11.6C72,26.8,73,31.6,73,36.5c0,4.9-1,9.7-2.9,14.2c-1.8,4.3-4.5,8.2-7.8,11.6
			c-3.4,3.4-7.3,6-11.6,7.8C46.2,72,41.4,73,36.5,73z M36.5,2C17.5,2,2,17.5,2,36.5C2,55.5,17.5,71,36.5,71C55.5,71,71,55.5,71,36.5
			C71,17.5,55.5,2,36.5,2z"/>
	</g>
</g>
</svg>
