<?xml version="1.0" encoding="utf-8"?>
<!-- Generator: Adobe Illustrator 19.1.0, SVG Export Plug-In . SVG Version: 6.00 Build 0)  -->
<svg version="1.1" id="Слой_1" xmlns="http://www.w3.org/2000/svg" xmlns:xlink="http://www.w3.org/1999/xlink" x="0px" y="0px"
	 viewBox="0 0 36 39" style="enable-background:new 0 0 36 39;" xml:space="preserve">
<style type="text/css">
	.st0{fill:#28a1de;}
</style>
<g>
	<path class="st0" d="M9.7,29.2c-0.2,0-0.4,0.1-0.5,0.2C9,29.6,8.9,29.8,8.9,30c0,0.2,0.1,0.4,0.2,0.5c0.1,0.1,0.3,0.2,0.5,0.2
		s0.4-0.1,0.5-0.2c0.1-0.1,0.2-0.3,0.2-0.5c0-0.2-0.1-0.4-0.2-0.5C10.1,29.3,9.9,29.2,9.7,29.2z"/>
	<path class="st0" d="M16,30.3c0-0.2-0.1-0.4-0.2-0.5c-0.1-0.1-0.3-0.2-0.5-0.2c-0.2,0-0.4,0.1-0.5,0.2c-0.1,0.1-0.2,0.3-0.2,0.5
		c0,0.2,0.1,0.4,0.2,0.5c0.1,0.1,0.3,0.2,0.5,0.2c0.2,0,0.4-0.1,0.5-0.2S16,30.5,16,30.3z"/>
	<path class="st0" d="M16.5,33.6c-0.2,0-0.4,0.1-0.5,0.2c-0.1,0.1-0.2,0.3-0.2,0.5c0,0.2,0.1,0.4,0.2,0.5c0.1,0.1,0.3,0.2,0.5,0.2
		c0.2,0,0.4-0.1,0.5-0.2c0.1-0.1,0.2-0.3,0.2-0.5c0-0.2-0.1-0.4-0.2-0.5C16.9,33.7,16.7,33.6,16.5,33.6z"/>
	<path class="st0" d="M12.1,26.2c-0.2,0-0.4,0.1-0.5,0.2c-0.1,0.1-0.2,0.3-0.2,0.5c0,0.2,0.1,0.4,0.2,0.5c0.1,0.1,0.3,0.2,0.5,0.2
		c0.2,0,0.4-0.1,0.5-0.2c0.1-0.1,0.2-0.3,0.2-0.5c0-0.2-0.1-0.4-0.2-0.5C12.5,26.3,12.3,26.2,12.1,26.2z"/>
	<path class="st0" d="M15.2,24.8c0.1-0.1,0.2-0.3,0.2-0.5c0-0.2-0.1-0.4-0.2-0.5c-0.1-0.1-0.3-0.2-0.5-0.2c-0.2,0-0.4,0.1-0.5,0.2
		c-0.1,0.1-0.2,0.3-0.2,0.5c0,0.2,0.1,0.4,0.2,0.5c0.1,0.1,0.3,0.2,0.5,0.2C14.9,25,15.1,24.9,15.2,24.8z"/>
	<path class="st0" d="M11.9,21.5c0-0.2-0.1-0.4-0.2-0.5c-0.1-0.1-0.3-0.2-0.5-0.2c-0.2,0-0.4,0.1-0.5,0.2c-0.1,0.1-0.2,0.3-0.2,0.5
		c0,0.2,0.1,0.4,0.2,0.5c0.1,0.1,0.3,0.2,0.5,0.2c0.2,0,0.4-0.1,0.5-0.2C11.8,21.9,11.9,21.7,11.9,21.5z"/>
	<path class="st0" d="M9.4,24.6c0-0.2-0.1-0.4-0.2-0.5C9,24,8.8,23.9,8.6,23.9c-0.2,0-0.4,0.1-0.5,0.2c-0.1,0.1-0.2,0.3-0.2,0.5
		c0,0.2,0.1,0.4,0.2,0.5c0.1,0.1,0.3,0.2,0.5,0.2c0.2,0,0.4-0.1,0.5-0.2C9.3,25,9.4,24.8,9.4,24.6z"/>
	<path class="st0" d="M33.1,8.4c-1.9-3.6-5.2-6.1-9.4-7.5C20.7,0,18.1,0,17.9,0c-4.1,0-7.7,1.7-9.4,4.5C8.3,4.9,8.1,5.3,8,5.7
		c-0.8,0.7-4.3,4.4-4.3,9.6c0,3.5-1.7,5.3-2.7,6c-0.4,0.3-0.6,0.7-0.5,1.2c0,0.5,0.3,0.9,0.7,1.1c0.4,0.2,0.8,0.4,1.2,0.6
		c0.4,0.2,0.9,0.4,1.1,0.6v1.4c0,0.2,0,0.4-0.1,0.5l-0.2,0.5c-0.3,0.6-0.2,1.4,0.2,1.9v0.2c0,0.5,0.2,1,0.6,1.3v0.9
		c0,1.9,1.6,3.5,3.5,3.5h2.2c1.5,0,2.9,0.7,3.7,1.9l1.3,1.8c0.1,0.2,0.4,0.3,0.6,0.3h12.9c0.2,0,0.5-0.1,0.6-0.3
		c0.1-0.2,0.2-0.5,0.1-0.7l-2.2-6.6c1.4-0.3,2.7-1,3.8-2c2.8-2.7,4.5-6.2,4.8-10.2C35.7,15.5,34.9,11.7,33.1,8.4z M27.1,37.5H15.7
		L14.7,36c-1.1-1.6-3-2.6-5-2.6H7.5c-1.1,0-1.9-0.9-1.9-1.9v-1.3c0-0.3-0.2-0.6-0.5-0.7l0,0c-0.1,0-0.1-0.1-0.1-0.1v-0.4
		c0-0.2-0.1-0.3-0.2-0.5l-0.1-0.2c-0.1-0.1-0.1-0.3-0.1-0.4l0.2-0.5C4.9,27,5,26.6,5,26.2v-1.6c0-0.7-0.7-1.1-2-1.7
		c-0.3-0.2-0.7-0.3-1-0.5c1.2-1,3.1-3.2,3.1-7.1c0-2.9,1.3-5.2,2.4-6.8c0.1,1.3,0.5,2.7,1.2,4.1c2,3.7,5.4,5.2,8.1,6.4
		c2.6,1.2,4.1,1.9,4.1,3.4c0,1.1-0.2,2-0.8,2.5c-0.6,0.6-1.4,0.6-1.4,0.6c-0.3,0-0.5,0.1-0.7,0.3c-0.2,0.2-0.2,0.5-0.1,0.7
		c0,0,0,0.1,0.1,0.2c1,2.4,3,4.1,5.5,4.6c0.5,0.1,1.1,0.2,1.6,0.2L27.1,37.5z M29.5,28.3c-1.1,1-2.4,1.6-3.8,1.7c0,0-0.1,0-0.1,0
		c-0.6,0-1.1,0-1.7-0.1c-1.8-0.4-3.3-1.5-4.1-3.1c0.4-0.1,0.9-0.4,1.4-0.8c0.8-0.8,1.3-2,1.3-3.6c0-2.6-2.4-3.7-5-4.8
		c-2.7-1.2-5.7-2.5-7.4-5.7C9,9.9,8.8,8,9.3,6.4c0,0,0,0,0,0c0.1-0.4,0.3-0.7,0.5-1c1.4-2.3,4.5-3.8,8.1-3.8c0,0,0,0,0,0
		c0,0,2.4-0.1,5.3,0.9c3.9,1.2,6.7,3.5,8.5,6.7C34.7,14.5,35.2,22.9,29.5,28.3z"/>
	<path class="st0" d="M18,3.7C18,3.7,18,3.7,18,3.7c-0.5,0.1-0.8,0.4-0.8,0.8c0,0.4,0.4,0.7,0.8,0.7c0,0,0,0,0,0
		c0.4,0,0.7-0.3,0.7-0.8C18.8,4,18.4,3.7,18,3.7z"/>
	<path class="st0" d="M22.6,4.4c-0.5-0.1-0.9-0.3-1.4-0.4c-0.4-0.1-0.8,0.2-0.9,0.6c-0.1,0.4,0.2,0.8,0.6,0.9
		c0.4,0.1,0.9,0.2,1.3,0.3c2.9,0.9,5.1,2.6,6.4,5c0.1,0.3,0.4,0.4,0.7,0.4c0.1,0,0.2,0,0.4-0.1c0.4-0.2,0.5-0.7,0.3-1
		C28.4,7.4,26,5.5,22.6,4.4z"/>
</g>
</svg>
