<?xml version="1.0" encoding="utf-8"?>
<!-- Generator: Adobe Illustrator 19.1.0, SVG Export Plug-In . SVG Version: 6.00 Build 0)  -->
<svg version="1.1" id="Layer_1" xmlns="http://www.w3.org/2000/svg" xmlns:xlink="http://www.w3.org/1999/xlink" x="0px" y="0px"
	 viewBox="0 0 46.6 66.3" style="enable-background:new 0 0 46.6 66.3;" xml:space="preserve">
<style type="text/css">
	.st0{fill:none;stroke:#FFFFFF;stroke-width:0.2835;stroke-miterlimit:10;}
	.st1{clip-path:url(#SVGID_2_);fill:none;stroke:#FFFFFF;stroke-miterlimit:10;}
	.st2{fill:#FFFFFF;}
	.st3{fill:#28A1DE;}
</style>
<path class="st0" d="M20.1,30.3H9.9c-1.5,0-2.7-1.2-2.7-2.7V17.2c0-1.5,1.2-2.7,2.7-2.7h10.2c1.5,0,2.7,1.2,2.7,2.7v10.4
	C22.7,29.1,21.5,30.3,20.1,30.3z"/>
<g>
	<defs>
		<rect id="SVGID_1_" y="0" width="46.6" height="66.3"/>
	</defs>
	<clipPath id="SVGID_2_">
		<use xlink:href="#SVGID_1_"  style="overflow:visible;"/>
	</clipPath>
	<path class="st1" d="M41,65.8H5.6c-2.8,0-5.1-2.3-5.1-5.1v-55c0-2.8,2.3-5.1,5.1-5.1H41c2.8,0,5.1,2.3,5.1,5.1v55
		C46.1,63.5,43.8,65.8,41,65.8z"/>
</g>
<g>
	<g>
		<path class="st2" d="M28.3,27.3c-0.3,0-0.5,0-0.8-0.1c-0.3,0-0.5-0.2-0.7-0.6c-0.8-1.5-0.2-5.4-0.2-5.9c0.1-0.6,0.9-5.5,2.5-5.5
			c0.1,0,0.2,0,0.3,0.1c0.9,0.2,1.7,0.9,2.4,2.1c0.8,1.4,1.1,3.2,0.8,4.9C32.1,25.4,30,27.3,28.3,27.3
			C28.3,27.3,28.3,27.3,28.3,27.3z M29.1,16.8c-0.3,0.3-0.9,1.6-1.3,4.2c-0.4,2.6-0.2,4.2-0.1,4.6c0.4-0.5,1.5-3.4,1.6-6.8
			C29.3,18,29.2,17.1,29.1,16.8z M30.4,17.5c0.2,2.3-0.4,6-1.3,8.1c1-0.5,2.1-1.7,2.4-3.6C31.7,20.2,31.2,18.5,30.4,17.5z"/>
		<path class="st3" d="M29.1,15.4c0.1,0,0.2,0,0.3,0.1c1.9,0.4,3.6,3.6,3.1,6.9c-0.5,2.9-2.5,4.8-4.2,4.8c-0.3,0-0.5,0-0.7-0.1
			c-1.4-0.2-1.1-4.4-0.8-6.2C27,19,27.9,15.4,29.1,15.4 M27.6,25.8c0.5-0.2,1.7-3.4,1.8-7c0-0.8,0-2-0.3-2.3c-0.3,0.1-1,1.5-1.5,4.4
			C27.1,23.9,27.4,25.6,27.6,25.8 M28.8,25.9c1.2-0.3,2.5-1.8,2.8-3.8c0.3-2-0.4-4-1.4-5C30.5,19.6,29.8,23.9,28.8,25.9 M29.1,15
			c-1.6,0-2.5,4.7-2.6,5.6c-0.1,0.7-0.7,4.5,0.2,6c0.2,0.4,0.5,0.6,0.8,0.6c0.2,0.1,0.5,0.1,0.8,0.1c1.7,0,3.9-1.9,4.4-5.1
			c0.3-1.7,0-3.6-0.8-5.1c-0.6-1.2-1.5-2-2.5-2.2C29.3,15.1,29.2,15,29.1,15L29.1,15z M27.7,25.3c-0.1-0.6-0.2-2,0.1-4.2
			c0.3-2.2,0.9-3.4,1.2-3.9c0.1,0.4,0.1,1,0.1,1.7C29,21.8,28.2,24.5,27.7,25.3L27.7,25.3z M29.4,25.3c0.7-2,1.2-5.1,1.2-7.3
			c0.6,1,1.1,2.5,0.8,4C31.1,23.6,30.2,24.7,29.4,25.3L29.4,25.3z"/>
	</g>
	<g>
		<path class="st2" d="M22.9,28.9c-3.8,0-9.2-2.1-11.6-5.6c-0.1,0.2-0.2,0.5-0.3,0.7c-0.1,0.3-0.3,0.5-0.5,0.5c-0.1,0-0.2,0-0.2-0.1
			c-0.1-0.1-0.2-0.2-0.3-0.4c-0.1-0.2-0.1-0.4,0-0.6c2.3-6.8,8.6-12.4,14-12.4c0.3,0,0.6,0.3,0.6,0.8c0,0.4-0.3,0.8-0.6,0.8
			c-0.2,0-0.4,0-0.7,0c1.3,3.8,1.3,6.7,1.3,8.7c0,0.2,0,0.4,0,0.6c0,0.8-0.2,3.2-0.9,5.5c0.1,0,0.3,0,0.3,0l0.1,0
			c0.3,0,0.5,0.3,0.6,0.7c0,0.2,0,0.4-0.1,0.6c-0.1,0.2-0.2,0.3-0.4,0.3C23.8,28.9,23.4,28.9,22.9,28.9z M12,21.9
			c1.8,3,6.6,5.2,10.2,5.4c-0.6-0.4-1.2-1.1-1.6-1.9c-0.2-0.3-0.1-0.8,0.1-1c0.1-0.1,0.2-0.1,0.3-0.1c0.2,0,0.4,0.1,0.5,0.3
			c0.4,0.7,0.8,1.2,1.3,1.5c0.3-1.2,0.5-2.5,0.6-3.8c0,0-0.1,0-0.1,0c-0.7,0-1.2-1-1.2-2.2c0-1.2,0.5-2.2,1.2-2.2
			c-0.2-1.3-0.4-2.5-0.7-3.7c-1.8,1.3-2.6,5.4-1.8,8.7c0,0.2,0,0.4,0,0.6c-0.1,0.2-0.2,0.3-0.3,0.4c-0.1,0-0.1,0-0.2,0
			c-0.2,0-0.5-0.2-0.5-0.5c-1-4.1,0-8.9,2.3-10.5c-1,0.3-2,0.7-3.1,1.3C16.1,15.9,13.3,19,12,21.9z"/>
		<path class="st3" d="M24.1,11.2c0.2,0,0.4,0.3,0.4,0.6s-0.2,0.6-0.4,0.6c-0.2,0-0.5,0-0.8,0c0,0-0.1,0-0.1,0
			c1.5,4.3,1.3,7.5,1.3,9.4c0,0.7-0.2,3.2-1,5.7c0.2,0,0.3,0,0.5-0.1c0,0,0,0,0.1,0c0.2,0,0.4,0.2,0.4,0.5c0,0.3-0.1,0.6-0.4,0.6
			c-0.4,0.1-0.8,0.1-1.2,0.1c-3.8,0-9.3-2.2-11.6-5.7c-0.1,0.3-0.3,0.7-0.4,1c-0.1,0.2-0.2,0.3-0.4,0.3c-0.1,0-0.1,0-0.2,0
			c-0.2-0.1-0.3-0.5-0.2-0.8C12.3,17.1,18.5,11.2,24.1,11.2 M22.6,27.6c0-0.1,0-0.1,0-0.2c-0.7-0.4-1.4-1.1-1.9-2.1
			c-0.1-0.3-0.1-0.6,0.1-0.8c0.1-0.1,0.2-0.1,0.2-0.1c0.1,0,0.3,0.1,0.4,0.2c0.4,0.8,1,1.4,1.5,1.7c0.4-1.4,0.6-2.8,0.7-4.3
			c-0.1,0-0.2,0.1-0.2,0.1c-0.6,0-1.1-0.9-1.1-2.1c0-1.1,0.5-2.1,1.1-2.1c0.1,0,0.1,0,0.2,0c-0.2-1.4-0.4-2.8-0.8-4.1
			c-1.9,1.2-2.9,5.5-2,9c0.1,0.3,0,0.6-0.3,0.7c0,0-0.1,0-0.1,0c-0.2,0-0.4-0.2-0.4-0.4c-1-3.9,0-8.9,2.4-10.5
			c0-0.1-0.1-0.2-0.1-0.3c-1.1,0.3-2.2,0.7-3.3,1.4c0,0,0,0,0,0c-3.2,1.9-5.9,5.2-7.1,8C13.7,25.2,18.9,27.5,22.6,27.6 M24.1,10.9
			c-5.5,0-11.9,5.6-14.2,12.5c-0.1,0.2-0.1,0.5,0,0.7c0.1,0.2,0.2,0.4,0.4,0.5c0.1,0.1,0.2,0.1,0.3,0.1c0.3,0,0.5-0.2,0.6-0.6
			c0.1-0.2,0.1-0.3,0.2-0.5c2.5,3.4,7.8,5.5,11.5,5.5c0.4,0,0.9,0,1.3-0.1c0.2,0,0.4-0.2,0.5-0.3c0.1-0.2,0.2-0.4,0.1-0.7
			c0-0.5-0.3-0.8-0.7-0.8c0,0-0.1,0-0.1,0c0,0,0,0-0.1,0c0.6-2.3,0.8-4.6,0.8-5.3c0-0.2,0-0.4,0-0.6c0-1.9,0-4.8-1.2-8.5
			c0.2,0,0.3,0,0.5,0c0.4,0,0.7-0.4,0.7-0.9S24.5,10.9,24.1,10.9L24.1,10.9z M12.2,21.9c1.3-2.9,4.1-5.9,6.9-7.7
			c0.8-0.5,1.6-0.8,2.4-1.1c-1.9,2-2.8,6.5-1.8,10.2c0.1,0.4,0.4,0.6,0.7,0.6c0.1,0,0.2,0,0.2,0c0.2-0.1,0.3-0.2,0.4-0.5
			c0.1-0.2,0.1-0.5,0-0.7c-0.8-3.2-0.1-7.1,1.6-8.4c0.3,1,0.5,2.1,0.6,3.3c-0.7,0.1-1.2,1.1-1.2,2.4c0,1.3,0.6,2.4,1.3,2.4
			c-0.1,1.2-0.3,2.3-0.5,3.4c-0.4-0.3-0.8-0.8-1.2-1.4c-0.1-0.2-0.3-0.4-0.6-0.4c-0.1,0-0.3,0.1-0.4,0.2c-0.2,0.1-0.3,0.4-0.3,0.6
			c0,0.2,0,0.5,0.1,0.7c0.3,0.7,0.8,1.2,1.2,1.6C18.2,26.7,13.9,24.7,12.2,21.9L12.2,21.9z"/>
	</g>
</g>
</svg>
